<?xml version="1.0" encoding="utf-8"?>
<!-- Generator: Adobe Illustrator 27.0.0, SVG Export Plug-In . SVG Version: 6.00 Build 0)  -->
<svg version="1.1" id="Layer_2_00000111904941983279577700000015007418608595135623_"
	 xmlns="http://www.w3.org/2000/svg" xmlns:xlink="http://www.w3.org/1999/xlink" x="0px" y="0px" viewBox="0 0 618.5 142.7"
	 style="enable-background:new 0 0 618.5 142.7;" xml:space="preserve">
<style type="text/css">
	.st0{fill:none;stroke:#232458;stroke-miterlimit:10;}
	.st1{fill:#232458;}
	.st2{fill:#FFFFFF;}
	.st3{fill:#BC994E;}
</style>
<g>
	<g>
		<line class="st0" x1="118.8" y1="39.7" x2="118.8" y2="103"/>
		<path class="st1" d="M98.2,108.1c0.1-0.5,0.4-1.6,1-1.6c0.2,0,0.3,0.2,0.3,0.3C99.4,107.5,98.7,108,98.2,108.1L98.2,108.1
			L98.2,108.1z M92.4,109.9h0.9l0.3-1.1c0.1-0.4,0.3-0.9,0.5-1.3c0.1-0.2,0.5-0.6,0.8-0.6c0.2,0,0.3,0.1,0.3,0.3s-0.1,0.5-0.1,0.6
			l-0.3,0.8c-0.1,0.3-0.2,0.6-0.2,0.8c0,0.3,0.3,0.6,0.6,0.6c0.6,0,1.1-0.7,1.3-1.3h-0.2c-0.1,0.2-0.4,0.8-0.7,0.8
			c-0.1,0-0.2-0.1-0.2-0.2s0.1-0.4,0.1-0.6l0.3-0.8c0.1-0.2,0.2-0.6,0.2-0.8c0-0.4-0.3-0.7-0.7-0.7c-0.6,0-1.2,0.6-1.4,1.1l0.8-3.1
			l-1.7,0.1l-0.1,0.3c0.2,0,0.6,0,0.6,0.3c0,0.2-0.2,0.9-0.2,1.1L92.4,109.9L92.4,109.9L92.4,109.9z M91.9,105.1h-0.8l-0.4,1.3H90
			l-0.1,0.3h0.6l-0.3,1.3c-0.1,0.3-0.2,0.9-0.2,1.3s0.3,0.7,0.7,0.7c0.6,0,1.1-0.7,1.3-1.2l-0.2-0.1l-0.1,0.1
			c-0.1,0.2-0.4,0.7-0.7,0.7c-0.2,0-0.2-0.2-0.2-0.3c0-0.2,0.1-0.7,0.2-1l0.4-1.4h0.8l0.1-0.3h-0.8L91.9,105.1L91.9,105.1
			L91.9,105.1z M86.6,106.7h0.8l0.1-0.3h-0.8c0.1-0.4,0.2-0.9,0.3-1.3c0.1-0.2,0.2-0.4,0.4-0.4c0.3,0,0.2,0.6,0.7,0.6
			c0.2,0,0.4-0.2,0.4-0.4c0-0.4-0.5-0.5-0.8-0.5c-1.1,0-1.6,1.2-1.8,2.1h-0.7l-0.1,0.3h0.7l-0.7,3.2c-0.1,0.5-0.2,1-0.3,1.5
			c0,0.1-0.1,0.4-0.3,0.4c-0.1,0-0.2-0.1-0.2-0.3c0-0.2-0.1-0.4-0.3-0.4s-0.4,0.2-0.4,0.4c0,0.4,0.4,0.6,0.7,0.6
			c0.9,0,1.3-0.9,1.5-1.6L86.6,106.7L86.6,106.7L86.6,106.7z M83,106.5c0.3,0,0.4,0.3,0.4,0.5c0,0.6-0.4,2.6-1.2,2.6
			c-0.3,0-0.4-0.3-0.4-0.6c0-0.5,0.2-1.1,0.3-1.5C82.3,107.2,82.5,106.5,83,106.5L83,106.5z M99.6,108.7c-0.3,0.3-0.6,0.8-1.1,0.8
			c-0.3,0-0.5-0.3-0.5-0.6c0-0.2,0-0.3,0-0.5c0.7-0.2,2.1-0.5,2.1-1.4c0-0.5-0.6-0.7-1-0.7c-1.3,0-2.1,1.2-2.1,2.5
			c0,0.8,0.4,1.2,1.2,1.2c0.7,0,1.2-0.5,1.6-1.1L99.6,108.7L99.6,108.7L99.6,108.7z M76.5,107.4l1.6-2.7c0.2-0.3,0.4-0.6,0.8-0.7
			v-0.3c-0.4,0-0.7,0-1.1,0c-0.3,0-0.6,0-1,0v0.3c0.3,0,0.7,0.1,0.7,0.5c0,0.2-0.2,0.7-0.4,0.9l-0.9,1.5l-0.9-1.7
			c-0.1-0.2-0.3-0.6-0.3-0.8c0-0.4,0.5-0.4,0.7-0.4v-0.3c-0.5,0-1.1,0-1.6,0s-1,0-1.4,0v0.3c0.5,0.1,0.5,0.2,0.8,0.6l1.6,2.9v0.8
			c0,0.8,0,1.2-0.9,1.2v0.3c0.5,0,1,0,1.5,0c0.6,0,1.2,0,1.8,0v-0.3c-0.9,0-0.9-0.4-0.9-1.2v-0.9H76.5L76.5,107.4z M71.6,103.7h-6.1
			l-0.1,1.8h0.4c0.1-0.8,0.5-1.4,1.4-1.3c0.6,0,0.6,0,0.6,0.7v3.5c0,0.8,0,1.2-1,1.2v0.3c0.6,0,1.1,0,1.7,0s1.1,0,1.7,0v-0.3
			c-1,0-0.9-0.3-0.9-1.2v-3.5c0-0.7,0-0.7,0.6-0.7c0.8,0,1.3,0.5,1.4,1.3h0.4L71.6,103.7L71.6,103.7z M61.8,108.4
			c0,0.8,0,1.2-0.9,1.2v0.3c0.5,0,1,0,1.6,0s1.1,0,1.7,0v-0.3c-0.9,0-0.9-0.4-0.9-1.1v-3.2c0-0.8,0-1.2,0.9-1.2v-0.3
			c-0.5,0-1.1,0-1.7,0c-0.5,0-1,0-1.5,0v0.3c0.9,0,0.9,0.4,0.9,1.2L61.8,108.4L61.8,108.4z M82.3,110c1.1,0,2-1.1,2-2.3
			c0-0.8-0.5-1.4-1.3-1.4c-1.2,0-2,1.1-2,2.3C80.9,109.4,81.5,110,82.3,110L82.3,110z M55.5,109.3c0.4,0.4,1,0.6,1.6,0.6
			c1.2,0,2.2-0.7,2.2-1.9c0-1.3-1-1.7-2-2.1c-0.5-0.2-1.3-0.4-1.3-1.1c0-0.5,0.5-0.8,0.9-0.8c0.8,0,1.4,0.6,1.5,1.3H59l-0.1-1.7
			h-0.4l-0.1,0.4c-0.4-0.3-0.9-0.5-1.4-0.5c-1.1,0-2,0.6-2,1.8c0,1,0.7,1.5,1.5,1.8c0.7,0.3,1.6,0.5,1.6,1.4c0,0.6-0.5,0.9-1.1,0.9
			c-1,0-1.5-0.8-1.7-1.6H55v1.9h0.4L55.5,109.3L55.5,109.3L55.5,109.3z M51.2,106.8c0.8-0.1,1.5-0.6,1.5-1.5c0-0.7-0.3-1.2-0.9-1.4
			c-0.4-0.2-1.1-0.2-1.6-0.2s-1,0-1.5,0s-1.1,0-1.6,0v0.3c0.9,0,0.9,0.4,0.9,1.2v3.1c0,0.8,0,1.2-0.9,1.2v0.3c0.5,0,1.1,0,1.6,0
			s1.1,0,1.6,0v-0.3c-0.9,0-0.9-0.4-0.9-1.2v-1.2c0,0,0.1,0,0.2,0c0.3,0,0.7,0.4,1,0.9l1.3,1.9c0.3,0,0.6,0,0.9,0c0.3,0,0.6,0,0.9,0
			v-0.3c-0.3-0.1-0.4-0.1-0.6-0.3c-0.2-0.2-0.4-0.5-0.6-0.8L51.2,106.8L51.2,106.8L51.2,106.8z M40.3,109.9c0.5,0,1.1,0,1.6,0
			c1.3,0,2.6,0,3.9,0c0-0.3,0-0.5,0-0.7c0-0.4,0-0.7,0-1h-0.4c-0.2,1-0.7,1.4-1.7,1.4s-1.1-0.6-1.1-1.4v-1.1c0.9,0,1.1,0.1,1.3,1
			h0.4c0-0.4,0-0.8,0-1.2c0-0.4,0-0.9,0-1.3h-0.4c0,0.9-0.5,1-1.3,1v-1.7c0-0.1,0-0.5,0-0.5c0.1-0.1,0.7-0.1,0.8-0.1
			c0.9,0,1.4,0.3,1.6,1.2h0.4l-0.1-1.6c-1.1,0-2.3,0-3.5,0c-0.5,0-1.1,0-1.6,0v0.3c0.9,0,0.9,0.4,0.9,1.2v3.1c0,0.8,0,1.2-0.9,1.2
			L40.3,109.9L40.3,109.9L40.3,109.9z M36.2,110l2.1-4.9c0.2-0.6,0.4-1,1.1-1v-0.3c-0.4,0-0.8,0-1.2,0s-0.8,0-1.1,0v0.3
			c0.4,0,0.8,0.1,0.8,0.5s-0.3,1.1-0.4,1.4l-0.9,2.2l-1.2-3.1c0-0.1-0.2-0.5-0.2-0.6c0-0.4,0.5-0.4,0.8-0.4v-0.3c-0.6,0-1.1,0-1.7,0
			c-0.5,0-1,0-1.5,0v0.3c0.8,0.1,0.8,0.2,1.1,1l2,4.9H36.2L36.2,110z M49.4,106.7v-1.6c0-0.1,0-0.8,0-0.9s0.3-0.1,0.5-0.1
			c0.9,0,1.2,0.4,1.2,1.3s-0.5,1.3-1.4,1.3L49.4,106.7L49.4,106.7z M29.4,108.4c0,0.8,0,1.2-0.9,1.2v0.3c0.5,0,1,0,1.6,0
			s1.1,0,1.7,0v-0.3c-0.9,0-0.9-0.4-0.9-1.1v-3.2c0-0.8,0-1.2,0.9-1.2v-0.3c-0.5,0-1.1,0-1.7,0c-0.5,0-1,0-1.5,0v0.3
			c0.9,0,0.9,0.4,0.9,1.2v3.1H29.4z M25.7,110h0.5v-4.5c0-0.3,0-0.9,0.1-1.1c0.1-0.3,0.4-0.3,0.7-0.3v-0.3c-0.4,0-0.8,0-1.1,0
			c-0.4,0-0.7,0-1.1,0v0.3c0.9,0,0.9,0.7,0.9,1.4v2.5l-3.7-4.2c-0.4,0-0.7,0-1.1,0c-0.3,0-0.6,0-0.9,0v0.3c0.5,0,0.6,0.2,0.9,0.6
			v3.7c0,0.7-0.1,1-0.8,1.1v0.3c0.4,0,0.7,0,1.1,0s0.8,0,1.1,0v-0.3c-0.9,0-0.9-0.8-0.9-1.5v-2.9L25.7,110L25.7,110z M11.7,104.1
			c0.9,0,0.9,0.4,0.9,1.2v2.2c0,1.9,1.1,2.5,2.7,2.5s2.6-0.8,2.6-2.5v-1.7c0-0.4,0-1,0.1-1.3s0.4-0.3,0.7-0.4v-0.3
			c-0.4,0-0.8,0-1.1,0c-0.4,0-0.7,0-1.1,0v0.3c0.3,0,0.6,0.1,0.7,0.4c0.2,0.3,0.2,0.9,0.2,1.3v1.9c0,1.1-0.6,1.7-1.8,1.7
			c-1.3,0-1.6-0.7-1.6-1.9v-2.2c0-0.8,0-1.2,0.9-1.2v-0.3c-0.6,0-1.2,0-1.7,0s-1,0-1.5,0L11.7,104.1
			C11.7,104.1,11.7,104.1,11.7,104.1z M94.1,121.1c0.5,0,1.1,0,1.6,0c1.3,0,2.6,0,3.9,0c0-0.3,0-0.5,0-0.7c0-0.3,0-0.7,0-1h-0.4
			c-0.2,1-0.7,1.4-1.7,1.4c-1.1,0-1.1-0.6-1.1-1.4v-1.1c0.9,0,1.1,0.1,1.3,1h0.4c0-0.4,0-0.8,0-1.2c0-0.4,0-0.9,0-1.3h-0.4
			c0,0.9-0.5,1-1.3,1V116c0-0.1,0-0.5,0-0.5c0.1-0.1,0.7-0.1,0.8-0.1c0.9,0,1.4,0.3,1.6,1.2h0.4l-0.1-1.6c-1.1,0-2.3,0-3.5,0
			c-0.5,0-1.1,0-1.6,0v0.3c0.9,0,0.9,0.4,0.9,1.2v3.1c0,0.8,0,1.2-0.9,1.2L94.1,121.1L94.1,121.1L94.1,121.1z M89.1,117.9v-2
			c0-0.5,0-0.4,0.5-0.5c0.8,0,1.2,0.5,1.2,1.2c0,1-0.5,1.3-1.4,1.3H89.1L89.1,117.9z M80.7,118.8l0.9-2.1l0.8,2.1H80.7L80.7,118.8z
			 M87.6,119.6c0,0.8,0,1.2-0.9,1.2v0.3c0.5,0,1,0,1.6,0s1.1,0,1.7,0v-0.3c-1,0-1-0.3-1-1.2v-1.3h0.8c1,0,2.4-0.4,2.4-1.7
			c0-1.4-1.4-1.7-2.5-1.7c-0.5,0-1,0-1.5,0s-1,0-1.6,0v0.3c0.9,0,0.9,0.4,0.9,1.2L87.6,119.6L87.6,119.6L87.6,119.6z M80.6,119.2
			h2.1l0.2,0.5c0.1,0.1,0.2,0.5,0.2,0.6c0,0.4-0.5,0.4-0.8,0.4v0.3c0.5,0,1,0,1.5,0c0.6,0,1.1,0,1.7,0v-0.3c-0.2,0-0.5-0.1-0.6-0.2
			c-0.2-0.2-0.4-0.7-0.5-0.9l-1.9-4.8H82l-1.9,4.4c-0.2,0.6-0.5,1.5-1.3,1.5v0.3c0.4,0,0.7,0,1.1,0s0.8,0,1.2,0v-0.3
			c-0.3,0-0.8-0.1-0.8-0.5c0-0.3,0.1-0.5,0.2-0.8L80.6,119.2L80.6,119.2L80.6,119.2z M77.1,121.1h0.4V119h-0.4
			c-0.2,1-0.7,1.8-1.8,1.8c-1.5,0-1.9-1.4-1.9-2.7c0-1.2,0.4-2.7,1.9-2.7c1,0,1.6,0.7,1.8,1.5h0.4l-0.1-2H77l-0.1,0.5
			c-0.5-0.4-1.1-0.6-1.8-0.6c-1.9,0-3.3,1.4-3.3,3.3s1.3,3.1,3.2,3.1c0.7,0,1.5-0.2,2-0.7L77.1,121.1L77.1,121.1L77.1,121.1z
			 M64.4,121.3h0.5v-4.5c0-0.3,0-0.9,0.1-1.1c0.1-0.3,0.4-0.3,0.7-0.3V115c-0.4,0-0.8,0-1.1,0c-0.4,0-0.7,0-1.1,0v0.3
			c0.9,0,0.9,0.7,0.9,1.4v2.5l-3.7-4.2c-0.4,0-0.7,0-1.1,0c-0.3,0-0.6,0-0.9,0v0.3c0.5,0,0.6,0.2,0.9,0.6v3.7c0,0.7-0.1,1-0.8,1.1
			v0.3c0.4,0,0.7,0,1.1,0c0.4,0,0.8,0,1.1,0v-0.3c-0.9,0-0.9-0.8-0.9-1.5v-2.9L64.4,121.3L64.4,121.3L64.4,121.3z M52.9,118v-1.6
			c0-0.1,0-0.8,0-0.9s0.3-0.1,0.5-0.1c0.9,0,1.2,0.4,1.2,1.3s-0.5,1.3-1.4,1.3L52.9,118L52.9,118z M54.7,118.1
			c0.8-0.1,1.5-0.6,1.5-1.5c0-0.7-0.3-1.2-0.9-1.4c-0.4-0.2-1.1-0.2-1.6-0.2s-1,0-1.5,0s-1.1,0-1.6,0v0.3c0.9,0,0.9,0.4,0.9,1.2v3.1
			c0,0.8,0,1.2-0.9,1.2v0.3c0.5,0,1.1,0,1.6,0s1.1,0,1.6,0v-0.3c-0.9,0-0.9-0.4-0.9-1.2v-1.2c0,0,0.1,0,0.2,0c0.3,0,0.7,0.4,1,0.9
			l1.3,1.9c0.3,0,0.6,0,0.9,0c0.3,0,0.6,0,0.9,0v-0.3c-0.3-0.1-0.4-0.1-0.6-0.3c-0.2-0.2-0.4-0.6-0.6-0.8L54.7,118.1L54.7,118.1
			L54.7,118.1z M43.3,121.1c0.5,0,1.1,0,1.6,0c1.3,0,2.6,0,3.9,0c0-0.3,0-0.5,0-0.7c0-0.3,0-0.7,0-1h-0.4c-0.2,1-0.7,1.4-1.7,1.4
			c-1.1,0-1.1-0.6-1.1-1.4v-1.1c0.9,0,1.1,0.1,1.3,1h0.4c0-0.4,0-0.8,0-1.2c0-0.4,0-0.9,0-1.3h-0.4c0,0.9-0.5,1-1.3,1V116
			c0-0.1,0-0.5,0-0.5c0.1-0.1,0.7-0.1,0.8-0.1c0.9,0,1.4,0.3,1.6,1.2h0.4l-0.1-1.6c-1.1,0-2.3,0-3.5,0c-0.5,0-1.1,0-1.6,0v0.3
			c0.9,0,0.9,0.4,0.9,1.2v3.1c0,0.8,0,1.2-0.9,1.2L43.3,121.1L43.3,121.1L43.3,121.1z M41.4,115h-6.1l-0.1,1.8h0.4
			c0.2-0.8,0.5-1.4,1.4-1.3c0.6,0,0.6,0,0.6,0.7v3.5c0,0.8,0,1.2-1,1.2v0.3c0.6,0,1.1,0,1.7,0c0.6,0,1.1,0,1.7,0v-0.3
			c-1,0-0.9-0.3-0.9-1.2v-3.5c0-0.7,0-0.7,0.6-0.7c0.8,0,1.3,0.5,1.4,1.3h0.4L41.4,115L41.4,115L41.4,115z M29.5,120.6
			c0.4,0.4,1,0.6,1.6,0.6c1.2,0,2.2-0.7,2.2-1.9c0-1.3-1-1.7-2-2.1c-0.5-0.2-1.3-0.4-1.3-1.1c0-0.5,0.5-0.8,0.9-0.8
			c0.8,0,1.4,0.6,1.5,1.3h0.4L33,115h-0.4l-0.1,0.4c-0.4-0.3-0.9-0.5-1.4-0.5c-1.1,0-2,0.6-2,1.8c0,1,0.7,1.5,1.5,1.8
			c0.7,0.3,1.6,0.5,1.6,1.4c0,0.6-0.5,0.9-1.1,0.9c-1,0-1.5-0.8-1.7-1.6H29v1.9h0.4L29.5,120.6L29.5,120.6L29.5,120.6z M21.5,121.1
			c0.5,0,1.1,0,1.6,0c1.3,0,2.6,0,3.9,0c0-0.3,0-0.5,0-0.7c0-0.3,0-0.7,0-1h-0.4c-0.2,1-0.7,1.4-1.7,1.4c-1.1,0-1.1-0.6-1.1-1.4
			v-1.1c0.9,0,1.1,0.1,1.3,1h0.4c0-0.4,0-0.8,0-1.2c0-0.4,0-0.9,0-1.3h-0.4c0,0.9-0.5,1-1.3,1V116c0-0.1,0-0.5,0-0.5
			c0.1-0.1,0.7-0.1,0.8-0.1c0.9,0,1.4,0.3,1.6,1.2h0.4l-0.1-1.6c-1.1,0-2.3,0-3.5,0c-0.5,0-1.1,0-1.6,0v0.3c0.9,0,0.9,0.4,0.9,1.2
			v3.1c0,0.8,0,1.2-0.9,1.2L21.5,121.1L21.5,121.1L21.5,121.1z M17.2,121.2h0.5l1.7-5.2c0.1-0.4,0.3-0.7,0.7-0.7V115
			c-0.4,0-0.7,0-1.1,0c-0.3,0-0.6,0-1,0v0.3c0.4,0.1,0.8,0.1,0.8,0.6c0,0.4-0.3,1.3-0.4,1.7l-0.5,1.5l-1.5-4.2H16l-1.4,4.3l-0.8-2.5
			c-0.1-0.2-0.3-0.8-0.3-1c0-0.4,0.5-0.4,0.8-0.5V115c-0.6,0-1.1,0-1.7,0c-0.5,0-1,0-1.4,0v0.3c0.7,0.1,0.7,0.3,0.9,0.8l1.8,5.1h0.5
			l1.4-4L17.2,121.2L17.2,121.2L17.2,121.2z"/>
		<path class="st1" d="M27.7,21.5v36.1c0,3.7,0,5.7,1.7,8.9c3,5.7,8.7,9.1,15.8,13.2c3.8,2.2,6.6,3.8,10.6,6.5
			c4-2.7,6.8-4.3,10.6-6.5c7-4,12.7-7.5,15.8-13.2c1.7-3.2,1.7-5.2,1.7-8.9V21.5H27.7z"/>
		<path class="st2" d="M57.4,24.9c-2.4-1.2-3.3,0-3.3,0l0.5,0.5c0.7-0.1,1.1-0.8,1.8-0.5c-0.5,0.1-1,0.7-1.7,0.7l0.4,0.8
			C56,26.5,56.6,25.1,57.4,24.9L57.4,24.9L57.4,24.9z M54.8,26.8c-1.9-2.9-4.4-1.5-4.4-1.5c0.7,0.5,2.2,0.2,2.7,0.9
			c-0.9-0.5-2.1,0.1-3.4-0.5L49,25.9c0.5,0.4,1,0.6,1.7,0.9C52.2,27.4,53.7,26.2,54.8,26.8L54.8,26.8z M63.4,79.8
			c-2.1,0.2-2.8,2.5-7,4c0.3-0.6,0.6-1.2,1.1-1.7c2.9-0.9,3.6-2.1,4.2-2.3c-0.9-0.1-1.5,0.8-2.2,0.9C60.9,78.8,62.8,79.4,63.4,79.8
			L63.4,79.8L63.4,79.8z M60.6,77.1c-0.2,1.6-1.2,3.3-3.5,4.4c0.2-1,1.7-1.8,2.3-3.1c-0.8,1-2.6,1.7-3,3.6
			C55.8,78.5,59.7,78.1,60.6,77.1L60.6,77.1L60.6,77.1z M67.7,77.3c-1.3,1.3-3.3,2.1-5.1,1.3c2-0.3,2.4-0.9,3.7-0.9
			c-0.9-0.3-2.1,0.2-2.6,0.2c0.3-0.2,0.4-0.5,0.4-0.5C65.3,76.9,66.9,77.2,67.7,77.3L67.7,77.3z M65.3,74.3
			c-0.5,1.8-1.6,3.3-3.5,4.2c1.2-1.5,1.2-2,2.1-2.8c-1.5,0.7-1.7,1.8-2.8,2.7C61.6,75,64.5,74.9,65.3,74.3L65.3,74.3z M70.6,75.5
			c-1.5,1.1-4,1.3-5.2,0.9c1.9-0.4,2.2-0.8,3.6-0.7c-1.2-0.4-2.5,0.2-3.8,0.3C67.2,73.9,69.6,75.5,70.6,75.5L70.6,75.5z M70,71.1
			c-0.1,1.7-0.3,3.1-2,3.2c0.3-1.1,1.1-1.1,1.2-1.9c-0.4,0.7-1.3,0.5-1.8,1.9c-0.3,0-0.7,0.1-0.7,0.1C67.3,72.2,69.2,72.3,70,71.1
			L70,71.1L70,71.1z M74.8,72c-0.7,1.4-2.9,3.4-4.1,2.8c0.6-0.9,1.5-0.6,2.5-1.7c-1.2,0.8-2.4,0.4-3,1.6c-0.3-0.1-0.6-0.2-0.6-0.2
			C70.6,72.2,73.2,73.1,74.8,72L74.8,72L74.8,72z M74.6,67.8c-0.1,3.4-1.4,4.1-3.1,4.7c0.3-1.3,1.7-1.5,2-3c-0.7,1.3-2,1.4-2.5,2.7
			C71.1,69.3,73.8,69,74.6,67.8L74.6,67.8z M79,68.7c-0.7,1.8-3,2.5-4.6,2.6c0,0,0.1-0.2,0.3-0.6c0.7-0.1,2.2-0.5,2.8-1.2
			c-0.6,0.3-2,0.7-2.6,0.6C75.9,68.9,77.8,69.4,79,68.7L79,68.7z M81.6,64c0.2,1.8-1.8,3.9-3.2,4.2c0,0,0.2-0.3,0.2-0.8
			c0.6-0.3,1.4-0.9,1.8-1.7c-0.5,0.5-1.2,1-1.7,1.2c0,0,0-0.5,0-0.7C79.1,65.2,80.9,65.3,81.6,64L81.6,64L81.6,64z M77.6,63.7
			c0.8,2.3,0.6,4.2-0.4,4.6c-0.6-0.9,0.4-2.3,0-3c0.1,0.7-1.2,2.3-0.6,3.1c-0.1,0-0.5,0.1-0.9,0.3C74.9,66.2,77.2,65.1,77.6,63.7
			L77.6,63.7L77.6,63.7z M78.4,59c0.4,2.2,2.2,2.5,1.7,5c-0.3-1.4-1.1-1.6-1.3-2.5c-0.2,1,0.9,2,0.8,3.3
			C79.1,64.7,77.5,62.1,78.4,59L78.4,59z M82.5,57.6c0.5,1.8,0.3,4.6-1.1,5.8c-0.2-0.6,1-3,0.6-3.8c0.2,1-1.2,2.8-1,3.1
			C79.8,60.8,82.2,58.8,82.5,57.6L82.5,57.6z M78.6,53.4c0.7,2,2.6,2.6,2.2,5.8c-0.3-1.4-1.6-2.1-1.6-3.6c-0.3,1.7,1.1,2.7,1.1,4.4
			C78.6,58.7,77.9,56.2,78.6,53.4L78.6,53.4L78.6,53.4z M82.7,48.2c0.5,2.2,0.3,4.1-0.2,5.2c-0.1-0.5-0.4-0.8-0.4-0.8
			c0.1-0.3,0.5-2.3,0.3-2.7c-0.1,0.7-0.3,1.4-0.6,2.4C80.8,50.3,82.4,48.9,82.7,48.2L82.7,48.2L82.7,48.2z M78.9,46.6
			c0.3,1,1.7,2.1,1.8,2.9c0,0.5-0.1,0.9-0.5,1.3c-0.1-1.4-0.9-1.2-1.1-2.6c-0.4,1.4,0.6,1.8,0.7,3c0,0-0.3,0.6-0.5,1.2
			C77.7,50.7,78.4,47.8,78.9,46.6L78.9,46.6L78.9,46.6z M80.8,51.6c0.1,1.3,2.4,3.4,1.2,5.6c0.2-2.3-0.6-2.7-1-3.4
			c-0.3,1,1,1.5,0.4,4C81.4,55.9,79.3,53.6,80.8,51.6L80.8,51.6z M82.7,43.6c0.2,2.1-0.1,3.9-1.3,5.1c-0.2-1.5,1.1-2.2,0.6-3.5
			c-0.1,1.1-1.3,2.4-1.2,3.2C79.7,46.7,82,44.5,82.7,43.6L82.7,43.6L82.7,43.6z M78.7,40.7c0.2,0.5,1.8,1.7,1.9,3.1
			c0.1,1.1-0.5,2.1-0.5,2.1c0.4-1.8-0.5-2.3-0.9-3.4c-0.2,0.8,0.9,1.7,0.5,2.9C78.7,44.6,78.1,43.2,78.7,40.7L78.7,40.7z M82.8,38.4
			c0.4,1.4,0.1,4.1-1.2,5.3c-0.2-1.5,0.9-2.1,0.8-3.3c-0.2,1-1,1.2-1.3,2.3c-0.3-0.5-0.5-1.2-0.1-1.8C81.4,40.4,82.2,39.9,82.8,38.4
			L82.8,38.4z M82.6,34.9c-0.5,1.1,0.7,2.5-1.5,4.7c-0.1-1,1.2-2.2,0.9-3c-0.3,1.2-1.3,1.4-1.5,3C80.2,38.2,81,36,82.6,34.9
			L82.6,34.9z M78.3,33.8c1.2,1.1,2.2,3.1,1.5,4.5c-0.8-1.2-0.1-1.6-0.9-2.5c0.5,1.1-0.3,1.9,0.8,3.2c0.2,0.3,0.2,1.3,0.2,1.3
			s-1.4-1.4-1.6-3C78.1,35.8,78.7,35.3,78.3,33.8L78.3,33.8z M81,34.4c-0.6-3.3,1.1-3.7,1.6-5.3c0.5,1.1,0.7,4.6-1.1,5.6
			c1-1.8,0.3-2.8,0.7-3.7C81.5,31.5,81.9,33.2,81,34.4L81,34.4z M78.6,28.9c0.6,1.4,2.1,2.2,1.6,3.7c-0.5-0.1-1-1.5-1.2-2.1
			c0,0.9,0.4,2.1,1.1,2.9c0,0.4,0,0.7,0,0.7C79.1,33.7,77.9,31.5,78.6,28.9L78.6,28.9L78.6,28.9z M80.7,24.1c-0.1,1.1,0,1.9,0.3,2.7
			c0.2,0.9,0.7,1.7,0.2,2.6c-0.2-1.1-1.3-1.4-1.1-3.2c-0.9,2,0.7,2.6,0.5,4.1C77.9,27.1,80.1,25.1,80.7,24.1L80.7,24.1z M82.1,22.9
			c1,1.9,0.8,3.7,0.1,4.5c0.4-1.8,0.1-2.5-0.1-3c0.1,0.6,0,2.1-0.3,2.6C81.1,25.8,81.7,23.9,82.1,22.9L82.1,22.9L82.1,22.9z
			 M75.2,23.1c2.1-1,5.3-0.2,5.2,0.1c0,0-0.1,0-0.1,0.2c-0.4-0.3-3-0.1-3.6-0.2c0.4,0.4,3.2,0.4,3.2,0.7
			C78.1,24.4,76,23.5,75.2,23.1L75.2,23.1z M73,26.8c1.8-0.8,3-2.5,5.4-1.9c-1.5,0.4-2,1.2-3.5,1.5c1.2,0.3,2.6-0.9,3.9-0.9
			c-0.4,0.4-1.4,1.7-3.3,1.4C74.5,26.8,74,26.7,73,26.8L73,26.8L73,26.8z M73.6,24.5c-2,0.4-2.7-1.4-3.3-1.7c3.1-0.4,4.9,0.9,5,1.3
			c0,0-0.5,0-0.8,0.2c-1-0.4-1.5-1-2.8-1C72.7,23.6,73.6,24.5,73.6,24.5L73.6,24.5L73.6,24.5z M67.5,26.7c1.1-1.2,2.5-1.6,3.2-1.6
			s1.3,0.2,1.3,0.2c-0.6,0.6-1.7,0.5-2.7,0.9c1.3-0.1,2.5,0.1,3.5-0.8c0.5,0.1,0.8,0.1,0.8,0.2C71.5,27.3,69,26.4,67.5,26.7
			L67.5,26.7L67.5,26.7z M64.7,22.8c1-0.3,3-0.7,5.3,1.4c0,0-0.7-0.1-1.1,0C68.7,24,67,23,66,23.1c0.9,0.3,1.9,1,2.2,1.2
			c0,0-0.9,0.1-1.2,0C66.8,24.3,65.7,24,64.7,22.8L64.7,22.8L64.7,22.8z M62.2,26.8c1.6-1.9,3.7-2,3.7-2l0.6,0.1
			c-0.3,0.4-1.9,1.1-2.3,1.4c0.6,0.1,2.3-0.5,2.9-1.2l0.7,0.2c-0.8,1-2.1,1.5-3.2,1.5C63.6,26.7,63.2,27,62.2,26.8L62.2,26.8
			L62.2,26.8z M59.9,22.8c0.5,0,1.2-0.2,2.4-0.1s2.2,1.4,2.2,1.4l-0.2,0.1c-0.8-0.6-2.3-0.8-2.8-1c0.5,0.6,2,0.9,2.2,1.2
			C62.9,25.3,60.6,23.7,59.9,22.8L59.9,22.8z M48.1,79.8c2.1,0.2,2.8,2.5,7,4c-0.3-0.6-0.6-1.2-1.1-1.7c-2.9-0.9-3.6-2.1-4.2-2.3
			c0.9-0.1,1.5,0.8,2.2,0.9C50.7,78.8,48.7,79.5,48.1,79.8L48.1,79.8L48.1,79.8z M50.9,77.2c0.2,1.6,1.2,3.3,3.5,4.4
			c-0.2-1-1.7-1.8-2.3-3.1c0.8,1,2.6,1.7,3,3.6C55.7,78.6,51.8,78.1,50.9,77.2L50.9,77.2L50.9,77.2z M43.8,77.4
			c1.3,1.3,3.3,2.1,5.1,1.3c-2-0.3-2.4-0.9-3.7-0.9c0.9-0.3,2.1,0.2,2.6,0.2c-0.3-0.2-0.4-0.5-0.4-0.5
			C46.2,76.9,44.6,77.3,43.8,77.4L43.8,77.4L43.8,77.4z M46.3,74.3c0.5,1.8,1.6,3.3,3.5,4.2c-1.2-1.5-1.2-2-2.1-2.8
			c1.5,0.7,1.7,1.8,2.8,2.7C49.9,75.1,47,74.9,46.3,74.3L46.3,74.3z M41,75.5c1.5,1.1,4,1.3,5.2,0.9c-1.9-0.4-2.2-0.8-3.6-0.7
			c1.2-0.4,2.5,0.2,3.8,0.3C44.3,73.9,41.9,75.5,41,75.5L41,75.5L41,75.5z M41.5,71.1c0.1,1.7,0.3,3.1,2,3.2
			c-0.3-1.1-1.1-1.1-1.2-1.9c0.4,0.7,1.3,0.5,1.8,1.9c0.3,0,0.7,0.1,0.7,0.1C44.2,72.2,42.3,72.3,41.5,71.1L41.5,71.1L41.5,71.1z
			 M36.7,72c0.7,1.4,2.9,3.4,4.1,2.8c-0.6-0.9-1.5-0.6-2.5-1.7c1.2,0.8,2.4,0.4,3,1.6c0.3-0.1,0.6-0.2,0.6-0.2
			C40.9,72.2,38.3,73.1,36.7,72L36.7,72z M37,67.8c0.1,3.4,1.4,4.1,3.1,4.7c-0.3-1.3-1.7-1.5-2-3c0.7,1.3,2,1.4,2.5,2.7
			C40.5,69.3,37.8,69,37,67.8L37,67.8L37,67.8z M32.5,68.7c0.7,1.8,3,2.5,4.6,2.6c0,0-0.1-0.2-0.3-0.6c-0.7-0.1-2.2-0.5-2.8-1.2
			c0.6,0.3,2,0.7,2.6,0.6C35.6,68.9,33.7,69.4,32.5,68.7L32.5,68.7L32.5,68.7z M29.9,64c-0.2,1.8,1.8,3.9,3.2,4.2
			c0,0-0.2-0.3-0.2-0.8c-0.6-0.3-1.4-0.9-1.8-1.7c0.5,0.5,1.2,1,1.7,1.2c0,0,0-0.5,0-0.7C32.4,65.2,30.7,65.3,29.9,64L29.9,64
			L29.9,64z M34,63.7c-0.8,2.3-0.6,4.2,0.4,4.6c0.6-0.9-0.4-2.3,0-3c-0.1,0.7,1.2,2.3,0.6,3.1c0.1,0,0.5,0.1,0.9,0.3
			C36.6,66.2,34.3,65.1,34,63.7L34,63.7L34,63.7z M33.1,59c-0.4,2.2-2.2,2.5-1.7,5c0.3-1.4,1.1-1.6,1.3-2.5c0.2,1-0.9,2-0.8,3.3
			C32.4,64.7,34.1,62.1,33.1,59L33.1,59L33.1,59z M29.1,57.6c-0.5,1.8-0.3,4.6,1.1,5.8c0.1-0.6-1-3-0.6-3.8c-0.2,1,1.2,2.8,1,3.1
			C31.7,60.8,29.4,58.8,29.1,57.6L29.1,57.6z M33,53.4c-0.7,2-2.6,2.6-2.2,5.8c0.4-1.4,1.6-2.1,1.6-3.6c0.3,1.7-1.1,2.7-1.1,4.4
			C33,58.7,33.6,56.2,33,53.4L33,53.4L33,53.4z M28.9,48.2c-0.5,2.2-0.3,4.1,0.2,5.2c0.1-0.5,0.4-0.8,0.4-0.8
			c-0.1-0.3-0.5-2.3-0.3-2.7c0.1,0.7,0.3,1.4,0.6,2.4C30.8,50.3,29.2,48.9,28.9,48.2L28.9,48.2L28.9,48.2z M32.6,46.6
			c-0.3,1-1.7,2.1-1.8,2.9c0,0.5,0.1,0.9,0.5,1.3c0.1-1.4,0.9-1.2,1.1-2.6c0.4,1.4-0.6,1.8-0.7,3c0,0,0.3,0.6,0.5,1.2
			C33.8,50.7,33.1,47.9,32.6,46.6L32.6,46.6L32.6,46.6z M30.7,51.6c-0.1,1.3-2.4,3.4-1.2,5.6c-0.2-2.3,0.6-2.7,1-3.4
			c0.3,1-1,1.5-0.4,4C30.1,55.9,32.2,53.6,30.7,51.6L30.7,51.6z M28.8,43.6c-0.2,2.1,0.1,3.9,1.3,5.1c0.2-1.5-1.1-2.2-0.6-3.5
			c0.1,1.1,1.3,2.4,1.2,3.2C31.9,46.7,29.5,44.6,28.8,43.6L28.8,43.6z M32.8,40.7c-0.2,0.5-1.8,1.7-1.9,3.1C30.8,45,31.4,46,31.4,46
			c-0.4-1.8,0.5-2.3,0.9-3.4c0.2,0.8-0.9,1.7-0.5,2.9C32.8,44.6,33.4,43.2,32.8,40.7L32.8,40.7z M28.7,38.4
			c-0.4,1.4-0.1,4.1,1.2,5.3c0.2-1.5-0.9-2.1-0.8-3.3c0.2,1,1,1.2,1.3,2.3c0.3-0.5,0.5-1.2,0.1-1.8C30.2,40.4,29.3,39.9,28.7,38.4
			L28.7,38.4z M29,34.9c0.5,1.1-0.7,2.5,1.5,4.7c0.1-1-1.2-2.2-0.9-3c0.3,1.2,1.3,1.4,1.5,3C31.3,38.2,30.6,36,29,34.9L29,34.9z
			 M33.2,33.8c-1.2,1.1-2.2,3.1-1.5,4.5c0.8-1.2,0.1-1.6,0.9-2.5c-0.5,1.1,0.3,1.9-0.8,3.2c-0.2,0.3-0.2,1.3-0.2,1.3s1.4-1.4,1.6-3
			C33.4,35.8,32.8,35.3,33.2,33.8L33.2,33.8z M30.6,34.4c0.6-3.3-1.1-3.7-1.6-5.3c-0.5,1.1-0.7,4.6,1.1,5.6c-1-1.8-0.3-2.8-0.7-3.7
			C30.1,31.5,29.6,33.2,30.6,34.4L30.6,34.4L30.6,34.4z M33,29c-0.6,1.4-2.1,2.2-1.6,3.7c0.5-0.1,1-1.5,1.2-2.1
			c0,0.9-0.4,2.1-1.1,2.9c0,0.4,0,0.7,0,0.7C32.4,33.7,33.6,31.5,33,29L33,29L33,29z M30.8,24.1c0.1,1.1,0,1.9-0.3,2.7
			c-0.2,0.9-0.7,1.7-0.2,2.6c0.2-1.1,1.3-1.4,1.1-3.2c0.9,2-0.7,2.6-0.5,4.1C33.6,27.2,31.4,25.1,30.8,24.1L30.8,24.1L30.8,24.1z
			 M29.4,22.9c-1,1.9-0.8,3.7-0.1,4.5c-0.4-1.8-0.1-2.5,0.1-3c-0.1,0.6,0,2.1,0.3,2.6C30.4,25.9,29.8,23.9,29.4,22.9L29.4,22.9
			L29.4,22.9z M36.3,23.1c-2.1-1-5.3-0.2-5.2,0.1c0,0,0.1,0,0.1,0.2c0.4-0.3,3-0.1,3.6-0.2c-0.4,0.4-3.2,0.4-3.2,0.7
			C33.4,24.5,35.4,23.5,36.3,23.1L36.3,23.1z M38.4,26.8c-1.8-0.8-3-2.5-5.4-1.9c1.5,0.4,2,1.2,3.5,1.5c-1.2,0.3-2.6-0.9-3.9-0.9
			c0.4,0.4,1.4,1.7,3.3,1.4C37,26.8,37.5,26.8,38.4,26.8L38.4,26.8z M37.8,24.5c2,0.4,2.7-1.4,3.3-1.7c-3.1-0.4-4.9,0.9-5,1.3
			c0,0,0.6,0,0.8,0.2c1-0.4,1.5-1,2.8-1C38.8,23.6,37.8,24.5,37.8,24.5L37.8,24.5L37.8,24.5z M43.9,26.7c-1.1-1.2-2.5-1.6-3.2-1.6
			s-1.3,0.2-1.3,0.2c0.6,0.6,1.7,0.5,2.7,0.9c-1.3-0.1-2.5,0.1-3.5-0.8c-0.5,0.1-0.8,0.1-0.8,0.2C39.9,27.3,42.4,26.4,43.9,26.7
			L43.9,26.7z M46.7,22.8c-1-0.3-3-0.7-5.3,1.4c0,0,0.6-0.1,1.1,0c0.2-0.2,1.9-1.2,2.9-1.1c-0.9,0.3-1.9,1-2.2,1.2
			c0,0,0.9,0.1,1.2,0C44.6,24.3,45.8,24.1,46.7,22.8L46.7,22.8L46.7,22.8z M49.3,26.8c-1.6-1.9-3.7-2-3.7-2H45
			c0.3,0.4,1.9,1.1,2.3,1.4c-0.6,0.1-2.3-0.5-2.9-1.2l-0.7,0.2c0.8,1,2.1,1.5,3.2,1.5C47.8,26.7,48.2,27.1,49.3,26.8L49.3,26.8
			L49.3,26.8z M51.5,22.8c-0.5,0-1.2-0.2-2.4-0.1s-2.2,1.4-2.2,1.4l0.2,0.1c0.8-0.6,2.3-0.8,2.8-1c-0.5,0.6-2,0.9-2.2,1.2
			C48.6,25.3,50.8,23.7,51.5,22.8L51.5,22.8z M56.4,23.1c-3.4-1.2-4.7,0.3-4.7,0.3l1,0.2c0.4-0.3,1.3-0.3,1.6-0.4
			c-0.3,0.4-0.8,0.4-1.1,0.7l0.6,0.4C54.5,24.1,55.1,23.3,56.4,23.1L56.4,23.1L56.4,23.1z M56.8,22.7c2.4,0,3.4,1.2,3.4,1.2h-1
			c-0.4-0.3-1.2-0.5-1.5-0.7c0.2,0.4,0.8,0.5,1,0.8L58,24.3C57.5,24.1,57,23.2,56.8,22.7L56.8,22.7z M56.3,26.9
			c1.9-2.9,4.4-1.5,4.4-1.5c-0.7,0.5-2.2,0.2-2.7,0.9c0.9-0.5,2.1,0.1,3.4-0.5l0.7,0.2c-0.5,0.4-1,0.6-1.7,0.9
			C58.9,27.4,57.4,26.3,56.3,26.9L56.3,26.9z"/>
		<path class="st3" d="M55.7,87.2c-9.8,0-17.5-2.6-23-5.3v-2.7c0-1,0-1.6-0.9-2.2c-2-1.3-3.4-1-4.7-1.7c-0.9-0.4-1.1-0.7-1.5-2
			c-0.9,0.8-1.3,1.4-1.3,2.5c-0.1,1,0.2,1.7,0.8,2.4c-0.7,0.6-1.1,1.3-0.9,2.2c0.1,1,0.8,1.5,1.7,2c0.4,0.3,1,0.5,1.8,0.5v1.9
			c0,1.3,0,1.9,0.9,2.4c8.3,4.3,15.6,6.7,27.1,6.7s18.8-2.4,27.1-6.7c0.9-0.4,0.9-1.1,0.9-2.4v-1.9c0.8,0,1.4-0.3,1.8-0.5
			c0.9-0.6,1.6-1,1.7-2c0.1-0.9-0.2-1.6-0.9-2.2c0.6-0.8,0.9-1.4,0.8-2.4c-0.1-1.1-0.4-1.7-1.3-2.5c-0.4,1.3-0.7,1.6-1.5,2
			C83,76,81.6,75.8,79.6,77c-0.9,0.6-0.9,1.2-0.9,2.2v2.7C73.2,84.6,65.5,87.2,55.7,87.2L55.7,87.2L55.7,87.2z"/>
		<path class="st1" d="M33.3,87.8c0,0.1-0.1,0.2-0.3,0.2l0,0h2.7c0-0.3,0-0.6,0-0.9h-0.1c-0.1,0.5-0.3,0.6-0.7,0.6h-1.1v-1.3h0.7
			c0.2,0,0.3,0,0.3,0.3H35c0-0.2,0-0.3,0-0.5c0-0.1,0-0.3,0-0.4h-0.1c0,0.3-0.1,0.3-0.3,0.3h-0.7V85H35c0.2,0,0.4,0.1,0.5,0.5h0.1
			c0-0.3,0-0.5,0-0.8h-2.5v0.1c0.2,0,0.3,0.1,0.3,0.2L33.3,87.8L33.3,87.8z M40.4,90c0,0.1-0.1,0.2-0.3,0.2v0.1c0.1,0,0.3,0,0.5,0
			s0.4,0,0.5,0v-0.1c-0.2,0-0.3-0.1-0.3-0.2v-2.8H41c0.7,0,1.2,0.1,1.2,0.8c0,0.5-0.4,0.8-0.9,0.8H41h-0.1l0,0
			c0.1,0.1,0.4,0.1,0.5,0.1c0.7,0,1.2-0.4,1.2-1s-0.3-1-1-1H40V87c0.2,0,0.3,0.1,0.3,0.2L40.4,90L40.4,90L40.4,90z M43.6,91.3
			c0.1,0,0.3,0,0.5,0s0.4,0,0.5,0v-0.1c-0.2,0-0.3-0.1-0.3-0.2v-2.8c0-0.1,0.1-0.2,0.3-0.2v-0.1c-0.1,0-0.3,0-0.5,0s-0.4,0-0.5,0V88
			c0.2,0,0.3,0.1,0.3,0.2V91C43.8,91.1,43.8,91.2,43.6,91.3L43.6,91.3L43.6,91.3z M48.5,91.2c-0.3,0.2-0.7,0.3-1,0.3
			c-0.7,0-1.3-0.7-1.3-1.5s0.5-1.3,1.2-1.2c0.4,0,0.8,0.2,0.9,0.6h0.1c0-0.3,0-0.5,0-0.8c-0.2-0.1-0.5-0.2-0.8-0.2
			c-0.7,0-1.9,0.5-1.9,1.7s0.9,1.7,1.6,1.7c0.4,0,0.9-0.1,1.2-0.4V91.2L48.5,91.2L48.5,91.2z M49.9,91.9c0,0.1-0.1,0.2-0.3,0.2v0.1
			h2.7c0-0.3,0-0.6,0-0.9h-0.1c-0.1,0.5-0.3,0.6-0.7,0.6h-1.1v-1.3h0.7c0.2,0,0.3,0,0.3,0.3h0.1c0-0.1,0-0.3,0-0.5s0-0.3,0-0.4h-0.1
			c0,0.3-0.1,0.3-0.3,0.3h-0.7v-1.1h1.2c0.2,0,0.4,0.1,0.5,0.5h0.1c0-0.3,0-0.5,0-0.8h-2.5V89c0.2,0,0.3,0.1,0.3,0.2L49.9,91.9
			L49.9,91.9z M55.3,92.1c0,0.1-0.1,0.2-0.3,0.2v0.1c0.1,0,0.3,0,0.5,0s0.4,0,0.5,0v-0.1c-0.2,0-0.3-0.1-0.3-0.2v-2.8h0.1
			c0.7,0,1.2,0.1,1.2,0.8c0,0.5-0.4,0.8-0.9,0.8h-0.3h-0.1l0,0C56,91,56.3,91,56.4,91c0.7,0,1.2-0.4,1.2-1s-0.3-1-1-1H55v0.1
			c0.2,0,0.3,0.1,0.3,0.2V92.1L55.3,92.1L55.3,92.1z M58.9,92c0,0.1-0.1,0.2-0.3,0.2v0.1c0.1,0,0.3,0,0.5,0s0.4,0,0.5,0v-0.1
			c-0.2,0-0.3-0.1-0.3-0.2v-2.7h0.3c0.4,0,0.9,0.1,0.9,0.6s-0.4,0.7-0.9,0.7h-0.1c0,0,0,0.1,0.1,0.2l0.7,0.9
			c0.4,0.6,0.5,0.7,0.5,0.7c0.1,0,0.3,0,0.4,0c0.1,0,0.2,0,0.3,0v-0.1c-0.2,0-0.3-0.1-0.4-0.3l-1-1.2c0.5,0,1-0.3,1-0.9
			c0-0.4-0.3-0.8-1-0.8h-1.5V89c0.2,0,0.3,0.1,0.3,0.2V92L58.9,92L58.9,92z M62.9,90.1c-0.1-1,0.5-1.3,0.9-1.4
			c0.7-0.1,1.4,0.5,1.5,1.4c0.1,0.8-0.4,1.3-0.9,1.4C63.6,91.5,63,90.8,62.9,90.1L62.9,90.1L62.9,90.1z M62.5,90.3
			c0.1,0.9,0.8,1.6,1.9,1.5c1-0.1,1.6-1.1,1.5-2c-0.1-0.8-0.7-1.6-1.8-1.5C63.2,88.4,62.3,89.3,62.5,90.3L62.5,90.3L62.5,90.3z
			 M66.8,90c0,0.3,0,0.5,0,0.8c0.3,0.2,0.6,0.2,1,0.2c1,0,1.4-0.5,1.4-1.1c0-0.7-0.5-0.8-1.2-1c-0.7-0.1-0.9-0.2-0.9-0.6
			c0-0.3,0.3-0.6,0.9-0.6c0.4,0,0.8,0.2,0.9,0.6H69c0-0.2,0-0.5,0-0.7c-0.2-0.1-0.7-0.2-0.9-0.2c-0.9,0-1.4,0.4-1.4,1s0.5,0.8,1.4,1
			c0.4,0.1,0.6,0.2,0.6,0.6c0,0.5-0.4,0.7-0.8,0.7c-0.5,0-0.9-0.3-1-0.8L66.8,90L66.8,90z M70.6,90.1c0,0.1-0.1,0.2-0.3,0.2v0.1
			c0.1,0,0.3,0,0.5,0s0.4,0,0.5,0v-0.1c-0.2,0-0.3-0.1-0.3-0.2v-2.8h0.1c0.7,0,1.2,0.1,1.2,0.8c0,0.5-0.4,0.8-0.9,0.8h-0.3H71l0,0
			c0.1,0.1,0.4,0.1,0.5,0.1c0.7,0,1.2-0.4,1.2-1s-0.3-1-1-1h-1.6v0.1c0.2,0,0.3,0.1,0.3,0.2L70.6,90.1L70.6,90.1L70.6,90.1z
			 M73.8,89.3c0.1,0,0.3,0,0.5,0s0.4,0,0.5,0v-0.1c-0.2,0-0.3-0.1-0.3-0.2v-2.8c0-0.1,0.1-0.2,0.3-0.2v-0.1c-0.1,0-0.3,0-0.5,0
			s-0.4,0-0.5,0V86c0.2,0,0.3,0.1,0.3,0.2V89C74.1,89.2,74,89.2,73.8,89.3L73.8,89.3L73.8,89.3z M78.5,87.4c-0.3,0.2-0.7,0.3-1,0.3
			c-0.7,0-1.3-0.8-1.3-1.6c0-0.8,0.6-1.2,1.3-1.2c0.4,0,0.8,0.2,0.9,0.6h0.1c0-0.3,0-0.5,0-0.8c-0.2-0.1-0.5-0.2-0.8-0.2
			c-0.7,0-1.9,0.4-1.9,1.7c0,1.2,0.9,1.7,1.6,1.8c0.4,0,0.9-0.1,1.2-0.4L78.5,87.4L78.5,87.4L78.5,87.4z M79.6,86.2
			c0,0.1-0.1,0.2-0.3,0.2v0.1H82c0-0.3,0-0.6,0-0.9h0c-0.1,0.5-0.3,0.6-0.7,0.6h-1.1v-1.3h0.7c0.2,0,0.3,0,0.3,0.3h0.1
			c0-0.2,0-0.3,0-0.5c0-0.1,0-0.3,0-0.4h-0.1c0,0.3-0.1,0.3-0.3,0.3h-0.7v-1.1h1.2c0.2,0,0.4,0.1,0.5,0.5H82c0-0.3,0-0.5,0-0.8h-2.5
			v0.1c0.2,0,0.3,0.1,0.3,0.2L79.6,86.2L79.6,86.2L79.6,86.2z M29.7,86c0,0.1-0.1,0.2-0.3,0.2v0.1c0.1,0,0.3,0,0.5,0s0.4,0,0.5,0
			v-0.1c-0.2,0-0.3-0.1-0.3-0.2v-2.7h0.3c0.4,0,0.9,0.1,0.9,0.6s-0.4,0.7-0.9,0.7h-0.1c0,0,0,0.1,0.1,0.2l0.7,0.9
			c0.4,0.6,0.5,0.7,0.5,0.7c0.1,0,0.3,0,0.4,0c0.1,0,0.2,0,0.3,0v-0.1c-0.2,0-0.3-0.1-0.4-0.3l-1-1.2c0.5,0,1-0.4,1-0.9
			c0-0.4-0.2-0.8-1-0.8h-1.5V83c0.2,0,0.3,0.1,0.3,0.2L29.7,86L29.7,86L29.7,86z M36.6,88.3c0,0.3,0,0.5,0,0.8
			c0.3,0.2,0.6,0.3,0.9,0.3c1,0,1.5-0.4,1.5-1c0-0.7-0.5-0.8-1.1-1s-0.8-0.2-0.8-0.6c0-0.3,0.3-0.6,0.9-0.6c0.4,0,0.8,0.2,0.8,0.7
			H39c0-0.2,0-0.5,0-0.7c-0.2-0.1-0.6-0.2-0.9-0.2c-0.8,0-1.4,0.4-1.4,0.9c0,0.6,0.4,0.8,1.3,1c0.4,0.1,0.6,0.2,0.6,0.6
			c0,0.5-0.5,0.6-0.9,0.6C37.2,89.1,36.8,88.8,36.6,88.3L36.6,88.3L36.6,88.3z"/>
		<path class="st1" d="M25.5,74c0.1,0.4,0.4,0.9,0.9,1.3c0.7,0.5,1.5,0.7,2.3,0.9c0.5,0.1,1.1,0.2,1.6,0.5C31,77,32,77.4,32.2,78
			c0.1,0.1,0.1,0.4,0.1,0.5V79c-0.1,0-0.5,0.1-0.7,0.1c-1.1,0-2.1-0.6-3.1-0.6c0,0-0.2,0-0.3,0c-0.1,0-0.2,0.1-0.3,0.1
			c-0.1,0.1-0.5,0.3-0.5,0.5c0,0-0.1,0.1-0.1,0.2v3.4h-0.1c-0.3,0-1.1-0.5-1.2-0.5c-1.1-0.7-1.5-1.1-1.5-2c0-1.3,1.1-1.6,1.1-1.8
			c0-0.1-1-1-1-2.2C24.7,75.5,24.8,74.7,25.5,74L25.5,74L25.5,74z M55.7,93.6h-0.9l-2.5-0.1L50,93.4c-3.7-0.3-7.5-1-11.2-2.2
			c-1-0.3-2-0.7-3-1.1c-1.6-0.6-3.1-1.3-4.7-2c-0.6-0.3-1.3-0.7-1.9-1c-0.5-0.2-1.1-0.7-1-1.2c0-0.1,0-0.1,0-0.2V80
			c4,2.2,8,4,12,5.3c2.1,0.7,4.3,1.2,6.4,1.5c1.9,0.3,3.7,0.6,5.6,0.7c1.1,0.1,0.4,0.1,3.6,0.1c3.2,0,2.5,0,3.6-0.1
			c1.9-0.1,3.7-0.4,5.6-0.7c2.1-0.4,4.2-0.9,6.4-1.5c4-1.2,8-3.1,12-5.3v5.8c0,0.1,0,0.2,0,0.2c0.1,0.4-0.5,1-1,1.2
			c-0.7,0.3-1.3,0.7-1.9,1c-1.5,0.7-3.1,1.4-4.7,2c-1,0.4-2,0.7-3,1.1c-3.7,1.2-7.5,1.8-11.2,2.2l-2.4,0.1l-2.5,0.1h-1V93.6z
			 M82.9,79.2h-0.2c-0.2,0-1.5,0.4-1.7,0.4c-0.3,0.1-0.6,0.1-0.9,0.2h-0.4c-0.2,0-0.5,0-0.7-0.1v1.5C80.4,80.7,81.7,79.9,82.9,79.2
			L82.9,79.2L82.9,79.2z M86,74c-0.1,0.4-0.4,0.9-0.9,1.3c-0.7,0.5-1.5,0.7-2.3,0.9c-0.5,0.1-1.1,0.2-1.6,0.5
			c-0.7,0.3-1.7,0.7-1.9,1.3c-0.1,0.1-0.1,0.4-0.1,0.5V79c0.1,0,0.5,0.1,0.7,0.1c1.1,0,2.1-0.6,3.1-0.6c0,0,0.2,0,0.3,0
			c0.1,0,0.2,0.1,0.3,0.1c0.1,0.1,0.5,0.3,0.5,0.5c0,0,0.1,0.1,0.1,0.2v3.4h0.1c0.3,0,1.1-0.5,1.2-0.5c1.1-0.7,1.5-1.1,1.5-2
			c0-1.3-1.1-1.6-1.1-1.8c0-0.1,1-1,1-2.2C86.8,75.5,86.6,74.7,86,74L86,74L86,74z M28.5,79.2h0.2c0.2,0,1.5,0.4,1.7,0.4
			c0.3,0.1,0.6,0.1,0.9,0.2h0.4c0.2,0,0.5,0,0.7-0.1v1.5C31.1,80.7,29.8,79.9,28.5,79.2L28.5,79.2L28.5,79.2z M55.7,86.8h-2.2
			l-1.3-0.1c-3.2-0.2-6.4-0.7-9.5-1.5c-3.2-0.8-6.3-2-9.5-3.5v-3.2c0,0-0.1-0.3-0.1-0.5c0-0.1-0.1-0.3-0.2-0.5
			c-0.3-0.6-1.5-1.2-2.3-1.5c-0.9-0.3-1.8-0.5-2.7-0.7c-0.5-0.2-1.4-0.6-1.6-1.2c-0.1-0.4-0.3-0.9-0.5-1.3c-0.2,0.1-0.3,0.3-0.4,0.4
			c-1.1,0.9-1.4,1.9-1.5,2.8c0,0.3,0,0.4,0,0.4c0,0.6,0.2,1.4,0.7,2c-0.4,0.2-0.8,1.2-0.8,1.5v0.7c0,0,0,0.1,0,0.2
			c0.1,1.3,2,2.5,3.5,2.7l0,0v2.4c0,0.5,0.3,1.4,0.8,1.7c2.6,1.5,5.4,2.7,8.1,3.7c0.7,0.2,1.3,0.5,2,0.7c3.9,1.2,7.9,2,11.7,2.3
			l2.7,0.1l3.1,0.1l3.1-0.1l2.7-0.1c3.9-0.3,7.9-1.1,11.7-2.3c0.7-0.2,1.3-0.5,2-0.7c2.7-1,5.4-2.2,8.1-3.7c0.5-0.3,0.8-1.2,0.8-1.7
			v-2.4l0,0c1.5-0.2,3.4-1.5,3.5-2.7c0-0.1,0-0.2,0-0.2v-0.7c0-0.3-0.4-1.3-0.8-1.5c0.4-0.6,0.7-1.4,0.7-2c0,0,0-0.2,0-0.4
			c-0.1-0.9-0.4-1.9-1.5-2.8c-0.2-0.1-0.3-0.3-0.4-0.4c-0.2,0.4-0.3,0.9-0.5,1.3c-0.2,0.7-1.1,1.1-1.6,1.2c-0.9,0.3-1.8,0.4-2.7,0.7
			c-0.8,0.3-1.9,0.9-2.3,1.5c-0.1,0.1-0.1,0.3-0.2,0.5c0,0.2-0.1,0.5-0.1,0.5v3.2c-3.2,1.5-6.3,2.7-9.5,3.5
			c-3.1,0.8-6.3,1.3-9.5,1.5l-1.3,0.1H55.7L55.7,86.8z"/>
		<path class="st2" d="M46.3,56.1v-0.5h-0.5v-0.5h-1.4v0.5H44v0.5h-0.5l0.1,8.7h3l0.1-8.7C46.7,56.1,46.3,56.1,46.3,56.1z
			 M39.6,66.5v0.3h32.3v-0.3H39.6z M40.3,65.8v0.3h30.9v-0.3H40.3z M41,65.1v0.3h29.5v-0.3H41z M42,56.1c-0.1,0-0.2,0.1-0.2,0.2v8.2
			c0,0.1,0.1,0.2,0.2,0.2s0.2-0.1,0.2-0.2v-8.2C42.2,56.2,42.1,56.1,42,56.1L42,56.1z M42.9,56.1c-0.1,0-0.2,0.1-0.2,0.2v8.2
			c0,0.1,0.1,0.2,0.2,0.2s0.2-0.1,0.2-0.2v-8.2C43.2,56.2,43.1,56.1,42.9,56.1L42.9,56.1z M41.5,55.2c-0.1,0-0.2,0.1-0.2,0.2
			s0.1,0.2,0.2,0.2h1.8c0.1,0,0.2-0.1,0.2-0.2s-0.1-0.2-0.2-0.2H41.5z M47.3,56.1c-0.1,0-0.2,0.1-0.2,0.2v8.2c0,0.1,0.1,0.2,0.2,0.2
			s0.2-0.1,0.2-0.2v-8.2C47.5,56.2,47.4,56.1,47.3,56.1L47.3,56.1z M48.2,56.1c-0.1,0-0.2,0.1-0.2,0.2v8.2c0,0.1,0.1,0.2,0.2,0.2
			s0.2-0.1,0.2-0.2v-8.2C48.5,56.2,48.4,56.1,48.2,56.1L48.2,56.1z M46.9,55.2c-0.1,0-0.2,0.1-0.2,0.2s0.1,0.2,0.2,0.2h1.8
			c0.1,0,0.2-0.1,0.2-0.2s-0.1-0.2-0.2-0.2H46.9z M52.2,55.2c-0.1,0-0.2,0.1-0.2,0.2s0.1,0.2,0.2,0.2H54c0.1,0,0.2-0.1,0.2-0.2
			s-0.1-0.2-0.2-0.2H52.2z M52.6,56.1c-0.1,0-0.2,0.1-0.2,0.2v8.2c0,0.1,0.1,0.2,0.2,0.2s0.2-0.1,0.2-0.2v-8.2
			C52.9,56.2,52.8,56.1,52.6,56.1L52.6,56.1z M53.5,56.1c-0.1,0-0.2,0.1-0.2,0.2v8.2c0,0.1,0.1,0.2,0.2,0.2s0.2-0.1,0.2-0.2v-8.2
			C53.8,56.2,53.7,56.1,53.5,56.1L53.5,56.1z M41.8,53.6v1.1h27.9v-1.1H41.8L41.8,53.6z M41.2,50.7c-0.2,0-0.3,0.2-0.3,0.3
			s0.2,0.3,0.3,0.3h29.1c0.2,0,0.3-0.2,0.3-0.3s-0.2-0.3-0.3-0.3H41.2z M42,51.8c-0.1,0-0.2,0.1-0.2,0.2v0.9c0,0.1,0.1,0.2,0.2,0.2
			c0.1,0,0.2-0.1,0.2-0.2V52C42.2,51.9,42.1,51.8,42,51.8L42,51.8z M42.9,51.8c-0.1,0-0.2,0.1-0.2,0.2v0.9c0,0.1,0.1,0.2,0.2,0.2
			c0.1,0,0.2-0.1,0.2-0.2V52C43.2,51.9,43.1,51.8,42.9,51.8L42.9,51.8z M47.3,51.8c-0.1,0-0.2,0.1-0.2,0.2v0.9
			c0,0.1,0.1,0.2,0.2,0.2c0.1,0,0.2-0.1,0.2-0.2V52C47.5,51.9,47.4,51.8,47.3,51.8L47.3,51.8z M48.2,51.8c-0.1,0-0.2,0.1-0.2,0.2
			v0.9c0,0.1,0.1,0.2,0.2,0.2c0.1,0,0.2-0.1,0.2-0.2V52C48.5,51.9,48.4,51.8,48.2,51.8L48.2,51.8z M52.6,51.8
			c-0.1,0-0.2,0.1-0.2,0.2v0.9c0,0.1,0.1,0.2,0.2,0.2c0.1,0,0.2-0.1,0.2-0.2V52C52.9,51.9,52.8,51.8,52.6,51.8L52.6,51.8z
			 M53.5,51.8c-0.1,0-0.2,0.1-0.2,0.2v0.9c0,0.1,0.1,0.2,0.2,0.2c0.1,0,0.2-0.1,0.2-0.2V52C53.8,51.9,53.7,51.8,53.5,51.8L53.5,51.8
			z M44.4,51.8c-0.1,0-0.2,0.1-0.2,0.2v0.9c0,0.1,0.1,0.2,0.2,0.2h1.4c0.1,0,0.2-0.1,0.2-0.2V52c0-0.1-0.1-0.2-0.2-0.2H44.4z
			 M49.7,51.8c-0.1,0-0.2,0.1-0.2,0.2v0.9c0,0.1,0.1,0.2,0.2,0.2h1.4c0.1,0,0.2-0.1,0.2-0.2V52c0-0.1-0.1-0.2-0.2-0.2H49.7z
			 M55.1,51.8c-0.1,0-0.2,0.1-0.2,0.2v0.9c0,0.1,0.1,0.2,0.2,0.2h1.4c0.1,0,0.2-0.1,0.2-0.2V52c0-0.1-0.1-0.2-0.2-0.2H55.1z
			 M62.6,64.8l0.1-8.7h-0.5v-0.5h-0.5v-0.5h-1.4v0.5h-0.5v0.5h-0.5l0.1,8.7H62.6L62.6,64.8z M65.2,56.1h-0.5l0.1,8.7h3l0.1-8.7h-0.5
			v-0.5h-0.5v-0.5h-1.4v0.5H65L65.2,56.1L65.2,56.1L65.2,56.1z M69.5,56.1c-0.1,0-0.2,0.1-0.2,0.2v8.2c0,0.1,0.1,0.2,0.2,0.2
			s0.2-0.1,0.2-0.2v-8.2C69.7,56.2,69.6,56.1,69.5,56.1L69.5,56.1z M68.5,56.1c-0.1,0-0.2,0.1-0.2,0.2v8.2c0,0.1,0.1,0.2,0.2,0.2
			s0.2-0.1,0.2-0.2v-8.2C68.8,56.2,68.7,56.1,68.5,56.1L68.5,56.1z M68.1,55.2c-0.1,0-0.2,0.1-0.2,0.2s0.1,0.2,0.2,0.2h1.8
			c0.1,0,0.2-0.1,0.2-0.2s-0.1-0.2-0.2-0.2H68.1z M64.2,56.1c-0.1,0-0.2,0.1-0.2,0.2v8.2c0,0.1,0.1,0.2,0.2,0.2s0.2-0.1,0.2-0.2
			v-8.2C64.4,56.2,64.3,56.1,64.2,56.1L64.2,56.1z M63.2,56.1c-0.1,0-0.2,0.1-0.2,0.2v8.2c0,0.1,0.1,0.2,0.2,0.2s0.2-0.1,0.2-0.2
			v-8.2C63.5,56.2,63.4,56.1,63.2,56.1L63.2,56.1z M62.8,55.2c-0.1,0-0.2,0.1-0.2,0.2s0.1,0.2,0.2,0.2h1.8c0.1,0,0.2-0.1,0.2-0.2
			s-0.1-0.2-0.2-0.2H62.8z M57.5,55.2c-0.1,0-0.2,0.1-0.2,0.2s0.1,0.2,0.2,0.2h1.8c0.1,0,0.2-0.1,0.2-0.2s-0.1-0.2-0.2-0.2H57.5z
			 M58.9,56.1c-0.1,0-0.2,0.1-0.2,0.2v8.2c0,0.1,0.1,0.2,0.2,0.2c0.1,0,0.2-0.1,0.2-0.2v-8.2C59.1,56.2,59,56.1,58.9,56.1L58.9,56.1
			z M57.9,56.1c-0.1,0-0.2,0.1-0.2,0.2v8.2c0,0.1,0.1,0.2,0.2,0.2c0.1,0,0.2-0.1,0.2-0.2v-8.2C58.2,56.2,58.1,56.1,57.9,56.1
			L57.9,56.1z M69.5,51.8c-0.1,0-0.2,0.1-0.2,0.2v0.9c0,0.1,0.1,0.2,0.2,0.2s0.2-0.1,0.2-0.2V52C69.7,51.9,69.6,51.8,69.5,51.8
			L69.5,51.8z M68.5,51.8c-0.1,0-0.2,0.1-0.2,0.2v0.9c0,0.1,0.1,0.2,0.2,0.2s0.2-0.1,0.2-0.2V52C68.8,51.9,68.7,51.8,68.5,51.8
			L68.5,51.8z M64.2,51.8c-0.1,0-0.2,0.1-0.2,0.2v0.9c0,0.1,0.1,0.2,0.2,0.2s0.2-0.1,0.2-0.2V52C64.4,51.9,64.3,51.8,64.2,51.8
			L64.2,51.8z M63.2,51.8c-0.1,0-0.2,0.1-0.2,0.2v0.9c0,0.1,0.1,0.2,0.2,0.2c0.1,0,0.2-0.1,0.2-0.2V52
			C63.5,51.9,63.4,51.8,63.2,51.8L63.2,51.8z M58.8,51.8c-0.1,0-0.2,0.1-0.2,0.2v0.9c0,0.1,0.1,0.2,0.2,0.2S59,53,59,52.9V52
			C59.1,51.9,59,51.8,58.8,51.8L58.8,51.8z M57.9,51.8c-0.1,0-0.2,0.1-0.2,0.2v0.9c0,0.1,0.1,0.2,0.2,0.2s0.2-0.1,0.2-0.2V52
			C58.2,51.9,58,51.8,57.9,51.8L57.9,51.8z M65.6,51.8c-0.1,0-0.2,0.1-0.2,0.2v0.9c0,0.1,0.1,0.2,0.2,0.2H67c0.1,0,0.2-0.1,0.2-0.2
			V52c0-0.1-0.1-0.2-0.2-0.2H65.6z M60.3,51.8c-0.1,0-0.2,0.1-0.2,0.2v0.9c0,0.1,0.1,0.2,0.2,0.2h1.4c0.1,0,0.2-0.1,0.2-0.2V52
			c0-0.1-0.1-0.2-0.2-0.2H60.3z M55.7,46.5l15.1,3.7c0.2,0,0.4,0,0.4-0.2s-0.1-0.3-0.3-0.3L55.7,46l-15.3,3.8
			c-0.2,0-0.3,0.2-0.3,0.3c0,0.2,0.2,0.2,0.4,0.2L55.7,46.5L55.7,46.5z M45.8,50h20l-10.1-2.4L45.8,50L45.8,50L45.8,50z M56.4,55.2
			H55v0.5h-0.5v0.5H54l0.1,8.7h3l0.1-8.7h-0.5v-0.5h-0.5L56.4,55.2L56.4,55.2L56.4,55.2z M48.9,64.8h3l0.1-8.7h-0.5v-0.5H51v-0.5
			h-1.4v0.5h-0.5v0.5h-0.5L48.9,64.8L48.9,64.8z M39.2,67.2v-1h0.7v-0.7h0.7v-0.7h0.7l0.1-8.5h-0.3v-0.5h-0.3v-1h0.6v-3h-0.9V51
			l-0.8-0.5v-1.1l16.1-4l16.1,4v1.1L71.1,51v0.8h-0.9v3h0.6v1h-0.3v0.5H70l0.1,8.5h0.7v0.7h0.7v0.7h0.7v1H39.2L39.2,67.2z"/>
		<path class="st3" d="M85.9,74.1c-0.1,0.4-0.4,0.9-0.9,1.3c-0.7,0.5-1.5,0.7-2.3,0.9c-0.5,0.1-1.1,0.2-1.6,0.5
			c-0.7,0.3-1.7,0.7-1.9,1.3c-0.1,0.1-0.1,0.4-0.1,0.5V79c0.1,0,0.5,0.1,0.7,0.1c1.1,0,2.1-0.6,3.1-0.6c0,0,0.2,0,0.3,0
			c0.1,0,0.2,0.1,0.3,0.1c0.1,0.1,0.5,0.3,0.5,0.5c0,0,0.1,0.1,0.1,0.2v3.4h0.1c0.3,0,1.1-0.5,1.2-0.5c1.1-0.7,1.5-1.1,1.5-2
			c0-1.3-1.1-1.6-1.1-1.8c0-0.1,1-1,1-2.2C86.6,75.5,86.5,74.8,85.9,74.1L85.9,74.1L85.9,74.1z"/>
		<path class="st3" d="M82.8,79.3h-0.2c-0.2,0-1.5,0.4-1.7,0.4c-0.3,0.1-0.6,0.1-0.9,0.2h-0.4c-0.2,0-0.5,0-0.7-0.1v1.5
			C80.3,80.7,81.6,80,82.8,79.3L82.8,79.3L82.8,79.3z"/>
		<polygon class="st3" points="34.6,28.3 34.6,43.2 76.9,43.2 76.9,28.3 		"/>
		<path class="st1" d="M75.3,35.3c0-0.4-0.4-0.6-0.5-0.4c-0.2,1.2-1.5,1.7-2.1,2.3c-0.4,0.4-0.6,0.7-0.9,1.2
			c-0.1,0.2-0.9,0.2-0.9,0.2s-0.1-0.5,0.2-0.7c1.3-0.8,1.7-1.2,2.3-2.4c0.4-0.8,0.8-1.7,0.3-2.5c0-0.5-0.1-0.6-0.3-1
			c-0.4,0-0.7,0.5-0.7,0.5s-0.2-0.9-0.6-1.3c-0.5,0.2-0.9,0.7-0.9,0.7s-0.2-0.7-0.7-1.1c-0.5,0.2-0.9,0.7-0.9,0.7s-0.3-0.4-0.8-0.7
			c-0.6,0.4-0.8,0.9-0.8,0.9s-0.3-0.3-0.8-0.5c-0.3,0.4-0.5,1-0.5,1s-0.3-0.3-0.6-0.5c-0.3,0.2-0.2,0.9-0.3,0.9
			c-1.5,2,1.4,4.7,2.5,5.4c0.3,0.2,0.3,0.7,0.3,0.7h-0.4c-0.5-1.5-2-1.6-2.5-2c-0.4-0.4-0.9-1-1.3-1.5c-0.1-0.2-0.4,0-0.4,0.2
			c-0.1,1.6-0.4,3,0.1,3.6c1.7,2.1,3,0.2,4.6,0.6c0,0-0.1,0.8,0.4,0.9c0.4,0.1,1.1,0,1.4-0.1c0.4-0.2,0.3-1.1,0.3-1.1h0.4
			c0.6,0.6,2.3,0.6,3.1-0.1C75.3,38.6,75.5,36.9,75.3,35.3L75.3,35.3L75.3,35.3z M66.7,39.2c-1.2,0.7-2.4-1-2.1-1.9
			C64.8,38.2,65.8,39,66.7,39.2L66.7,39.2z M67.9,38.7c-0.2,0.6-2.7,0.3-2.6-2.2c0.3,0.5,0.9,0.7,1.5,0.9
			C67.2,37.6,68,38.3,67.9,38.7L67.9,38.7z M70.5,37.2c-0.2-0.3-0.4-0.4-0.4-0.4s0.2-0.4,0.4-0.6c0.2,0.1,0.4,0.5,0.4,0.5
			S70.6,36.9,70.5,37.2L70.5,37.2L70.5,37.2z M70.5,35.1c-0.2-0.3-0.4-0.4-0.4-0.4s0.2-0.5,0.4-0.7c0.2,0.2,0.4,0.6,0.4,0.6
			S70.7,34.8,70.5,35.1L70.5,35.1z M70,38.2c0.2-0.1,0.4-0.1,0.6-0.1c0,0.6,0,1,0,1.6c0,0.3-0.6,0.4-0.6,0.2
			C69.8,39.3,70,38.9,70,38.2L70,38.2z M69.9,36.1c-0.2-0.3-0.4-0.6-0.4-0.6s0.1-0.4,0.4-0.6c0.3,0.2,0.4,0.6,0.4,0.6
			S70.1,35.8,69.9,36.1L69.9,36.1z M68.9,36.7c0,0,0.2-0.4,0.4-0.5c0.2,0.2,0.4,0.6,0.4,0.6s-0.2,0.1-0.4,0.4
			C69.2,36.9,68.9,36.7,68.9,36.7L68.9,36.7z M68.6,34.5c0,0,0.2-0.4,0.4-0.6c0.2,0.2,0.4,0.7,0.4,0.7S69.2,34.7,69,35
			C68.9,34.7,68.6,34.5,68.6,34.5L68.6,34.5z M68.5,36.1c-0.1-0.3-0.4-0.5-0.4-0.5s0.1-0.4,0.4-0.6c0.3,0.2,0.5,0.6,0.5,0.6
			S68.6,35.8,68.5,36.1L68.5,36.1z M67.8,36.6c0,0,0.2-0.3,0.3-0.4c0.2,0.3,0.3,0.5,0.3,0.5c-0.1,0.1-0.2,0.3-0.2,0.3
			C67.9,36.8,67.8,36.6,67.8,36.6L67.8,36.6L67.8,36.6z M67.6,34.9c-0.1-0.3-0.4-0.5-0.4-0.5s0.2-0.4,0.5-0.6
			c0.2,0.1,0.3,0.6,0.3,0.6S67.8,34.6,67.6,34.9L67.6,34.9z M66.8,35.4c0,0,0.1-0.3,0.3-0.5c0.3,0.2,0.4,0.6,0.4,0.6
			s-0.2,0.1-0.4,0.5C66.9,35.6,66.8,35.4,66.8,35.4L66.8,35.4z M66.8,34.2c-0.2,0.2-0.4,0.4-0.4,0.4s-0.2-0.3-0.2-0.6
			c0,0,0.1-0.3,0.2-0.4C66.5,33.8,66.7,34.1,66.8,34.2L66.8,34.2L66.8,34.2z M67,32.6c-0.2,0.1-0.3,0.2-0.4,0.4c0-0.3-0.1-0.4,0-0.7
			C66.8,32.5,67,32.6,67,32.6L67,32.6L67,32.6z M68.3,32.2c-0.4,0.1-0.7,0.2-0.8,0.2c0,0,0-0.3,0.2-0.7C68,31.9,68.3,32.2,68.3,32.2
			L68.3,32.2z M69.5,31.8c-0.2,0.1-0.5,0.3-0.8,0.3c0,0,0.1-0.4,0.4-0.7C69.3,31.5,69.5,31.8,69.5,31.8L69.5,31.8L69.5,31.8z
			 M71,32.1c-0.3-0.1-0.6-0.2-0.8-0.3c0,0,0.1-0.3,0.4-0.4C71,31.7,71,32.1,71,32.1L71,32.1z M72.3,32.5c-0.1-0.1-0.4-0.2-0.8-0.2
			c0,0,0.3-0.3,0.6-0.5C72.4,32.1,72.3,32.5,72.3,32.5L72.3,32.5z M72.7,33.5l-0.3,0.4c0,0-0.2-0.4-0.6-0.6
			c-0.3,0.3-0.4,0.9-0.4,0.9s-0.2-0.6-0.7-0.8c-0.5,0.2-0.8,0.7-0.8,0.7s-0.3-0.5-0.8-0.7c-0.5,0.2-0.7,0.6-0.7,0.6
			s-0.2-0.4-0.4-0.6c-0.2,0-0.8,0.4-0.8,0.4L67,33.4c0.4-0.6,1.7-0.7,1.9-0.8c0,0.3-0.3,0.4-0.2,0.8c0.2-0.4,0.8-0.9,0.9-1
			c0.3,0.2,0.1,0.7,0.3,1.2c0.3-0.1,0.1-1.1,0.3-1.1c0.1,0.4,0.6,0.6,0.8,0.9c0.1-0.4-0.5-0.7-0.3-0.8
			C71.3,32.9,72.3,32.7,72.7,33.5L72.7,33.5z M71.9,33.9c0.2,0.2,0.5,0.6,0.5,0.6s-0.2,0.2-0.3,0.5c-0.3-0.3-0.4-0.4-0.4-0.4
			S71.7,34,71.9,33.9L71.9,33.9z M73.4,33.2c-0.2-0.2-0.2-0.3-0.4-0.4c0,0,0.1-0.2,0.4-0.3C73.5,32.8,73.4,33,73.4,33.2L73.4,33.2z
			 M73.2,34.7c0,0-0.1-0.3-0.4-0.4c0.1-0.2,0.2-0.4,0.4-0.6c0.1,0.1,0.2,0.4,0.2,0.4C73.4,34.4,73.2,34.7,73.2,34.7L73.2,34.7z
			 M72.3,35.6c0,0,0.1-0.4,0.4-0.6c0.2,0.1,0.3,0.5,0.3,0.5s-0.1,0.3-0.3,0.6C72.4,35.7,72.3,35.6,72.3,35.6L72.3,35.6z M71.5,36.7
			c0,0,0.1-0.2,0.3-0.5c0.1,0.1,0.3,0.4,0.3,0.4S72,36.8,71.7,37C71.7,37,71.6,36.8,71.5,36.7L71.5,36.7L71.5,36.7z M70.8,35.7
			c0,0,0.1-0.4,0.4-0.7c0.2,0.2,0.4,0.5,0.4,0.5s-0.3,0.3-0.4,0.6C71.1,35.9,70.8,35.7,70.8,35.7L70.8,35.7L70.8,35.7z M72.2,39
			c0.9,0,2-0.6,2.4-1.5C74.8,38.4,73.3,39.8,72.2,39L72.2,39z M74.9,35.8c-0.2,2-1.9,2.9-2.3,2.7c-0.3-0.2,0.3-1,0.7-1.2
			C73.8,37.1,74.6,36.2,74.9,35.8L74.9,35.8L74.9,35.8z M61.6,40c1-0.8,1.2-2.8,1-4.8c0-0.5-0.5-0.8-0.6-0.4
			c-0.2,1.4-1.9,2.1-2.6,2.8c-0.5,0.5-0.7,0.8-1.1,1.5c-0.2,0.3-1.1,0.3-1.1,0.3s-0.1-0.6,0.3-0.9c1.6-1,2.1-1.5,2.8-3
			c0.5-0.9,0.9-2.1,0.3-3.1c-0.1-0.6-0.2-0.7-0.4-1.2c-0.5,0-0.8,0.6-0.8,0.6s-0.3-1.1-0.7-1.6c-0.6,0.2-1,0.9-1,0.9
			s-0.3-0.8-0.8-1.4c-0.7,0.2-1.1,0.8-1.1,0.8s-0.4-0.5-1-0.9c-0.7,0.5-1,1.1-1,1.1s-0.3-0.4-1-0.7c-0.4,0.5-0.6,1.3-0.6,1.3
			s-0.3-0.4-0.7-0.6c-0.4,0.2-0.2,1.1-0.4,1.1c-1.8,2.4,1.7,5.7,3,6.6c0.4,0.3,0.3,0.9,0.3,0.9h-0.5c-0.7-1.9-2.5-1.9-3-2.5
			c-0.5-0.5-1.1-1.2-1.6-1.9c-0.2-0.2-0.4,0-0.5,0.3c-0.2,2-0.5,3.7,0.1,4.4c2,2.5,3.7,0.2,5.6,0.8c0,0-0.1,1,0.4,1.1
			c0.4,0.1,1.4,0,1.7-0.1c0.4-0.3,0.3-1.3,0.3-1.3h0.5C58.5,40.9,60.7,40.8,61.6,40L61.6,40L61.6,40z M52.1,39.9
			c-1.5,0.8-2.9-1.2-2.5-2.3C49.9,38.8,51,39.8,52.1,39.9L52.1,39.9z M53.5,39.4c-0.3,0.7-3.3,0.3-3.2-2.7c0.3,0.6,1.1,0.8,1.9,1.1
			C52.8,38.1,53.7,38.9,53.5,39.4L53.5,39.4z M56.8,37.6c-0.2-0.3-0.4-0.5-0.4-0.5s0.2-0.5,0.5-0.7c0.3,0.1,0.5,0.6,0.5,0.6
			S56.9,37.3,56.8,37.6L56.8,37.6L56.8,37.6z M56.4,34.5c0,0,0.2-0.6,0.5-0.8c0.3,0.2,0.5,0.8,0.5,0.8S57,34.7,56.8,35
			C56.6,34.7,56.4,34.5,56.4,34.5L56.4,34.5z M56.1,38.8c0.3-0.1,0.5-0.1,0.7-0.1c0,0.7,0.1,1.3,0.1,2c0,0.4-0.7,0.5-0.8,0.2
			C55.9,40.1,56.1,39.6,56.1,38.8L56.1,38.8L56.1,38.8z M56,36.2c-0.2-0.4-0.5-0.7-0.5-0.7s0.2-0.5,0.5-0.7c0.3,0.2,0.5,0.7,0.5,0.7
			S56.3,35.8,56,36.2L56,36.2z M54.9,36.9c0,0,0.2-0.5,0.5-0.6c0.3,0.2,0.5,0.7,0.5,0.7s-0.3,0.2-0.4,0.5
			C55.3,37.3,54.9,36.9,54.9,36.9L54.9,36.9z M54.5,34.3c0,0,0.2-0.6,0.5-0.8c0.3,0.2,0.5,0.8,0.5,0.8s-0.3,0.2-0.5,0.5
			C54.8,34.5,54.5,34.3,54.5,34.3L54.5,34.3z M54.3,36.2c-0.2-0.3-0.5-0.7-0.5-0.7s0.2-0.4,0.4-0.7c0.4,0.2,0.6,0.7,0.6,0.7
			S54.5,35.9,54.3,36.2L54.3,36.2L54.3,36.2z M53.4,36.8c0,0,0.2-0.3,0.4-0.5c0.3,0.3,0.4,0.6,0.4,0.6c-0.2,0.1-0.3,0.4-0.3,0.4
			C53.6,37.1,53.4,36.8,53.4,36.8L53.4,36.8z M53.2,34.8c-0.2-0.3-0.5-0.6-0.5-0.6s0.3-0.5,0.6-0.7c0.2,0.1,0.4,0.8,0.4,0.8
			S53.5,34.4,53.2,34.8L53.2,34.8z M52.3,35.3c0,0,0.2-0.4,0.4-0.6c0.3,0.3,0.5,0.7,0.5,0.7S53,35.6,52.7,36
			C52.4,35.6,52.2,35.3,52.3,35.3L52.3,35.3L52.3,35.3z M52.2,33.9c-0.3,0.2-0.4,0.5-0.4,0.5s-0.2-0.4-0.3-0.7c0,0,0.1-0.4,0.2-0.5
			C51.9,33.4,52.1,33.7,52.2,33.9L52.2,33.9L52.2,33.9z M52.5,32c-0.2,0.1-0.3,0.3-0.5,0.5c0-0.3-0.1-0.5,0-0.9
			C52.3,31.8,52.5,32,52.5,32L52.5,32L52.5,32z M54,31.4c-0.5,0.1-0.8,0.2-1,0.3c0,0,0-0.4,0.2-0.9C53.7,31.1,54,31.4,54,31.4
			L54,31.4L54,31.4z M55.5,31c-0.3,0.2-0.6,0.4-1,0.4c0,0,0.1-0.5,0.5-0.9C55.3,30.6,55.5,31,55.5,31L55.5,31z M57.4,31.4
			c-0.4-0.1-0.7-0.2-1-0.4c0,0,0.2-0.3,0.5-0.5C57.3,30.9,57.4,31.4,57.4,31.4L57.4,31.4z M59,31.8c-0.1-0.1-0.5-0.2-1-0.3
			c0,0,0.3-0.3,0.8-0.6C59.1,31.4,59,31.8,59,31.8L59,31.8L59,31.8z M59.4,33.1L59,33.5c0,0-0.3-0.4-0.8-0.7c-0.4,0.4-0.5,1-0.5,1
			s-0.3-0.7-0.9-0.9c-0.6,0.3-1,0.9-1,0.9s-0.4-0.6-0.9-0.9c-0.6,0.3-0.9,0.7-0.9,0.7s-0.3-0.5-0.5-0.8c-0.3,0.1-0.9,0.5-0.9,0.5
			l-0.3-0.5c0.5-0.7,2.1-0.9,2.4-1c0,0.3-0.4,0.5-0.3,1c0.2-0.5,1-1.1,1.1-1.2c0.3,0.3,0.1,0.8,0.4,1.4c0.3-0.1,0.1-1.3,0.4-1.4
			c0.1,0.5,0.8,0.8,0.9,1.1c0.1-0.5-0.6-0.8-0.3-1C57.7,32.2,58.9,32.1,59.4,33.1L59.4,33.1L59.4,33.1z M58.4,33.5
			c0.3,0.2,0.6,0.7,0.6,0.7s-0.3,0.2-0.4,0.6c-0.3-0.3-0.5-0.5-0.5-0.5S58.2,33.7,58.4,33.5L58.4,33.5z M60.3,32.7
			c-0.2-0.2-0.3-0.4-0.5-0.5c0,0,0.2-0.2,0.5-0.4C60.4,32.2,60.3,32.4,60.3,32.7L60.3,32.7L60.3,32.7z M60,34.6c0,0-0.2-0.3-0.4-0.5
			c0.1-0.2,0.3-0.5,0.5-0.7c0.1,0.1,0.2,0.5,0.2,0.5C60.2,34.1,60,34.6,60,34.6L60,34.6z M58.9,35.6c0,0,0.2-0.4,0.5-0.7
			c0.2,0.1,0.4,0.6,0.4,0.6s-0.1,0.3-0.4,0.7C59.1,35.7,58.9,35.6,58.9,35.6L58.9,35.6L58.9,35.6z M58,36.9c0,0,0.1-0.3,0.4-0.6
			c0.1,0.1,0.4,0.5,0.4,0.5s-0.2,0.3-0.5,0.5C58.3,37.3,58.1,37,58,36.9L58,36.9z M57.1,35.7c0,0,0.2-0.5,0.5-0.8
			c0.3,0.2,0.5,0.7,0.5,0.7s-0.3,0.4-0.5,0.7C57.5,35.9,57.1,35.7,57.1,35.7L57.1,35.7L57.1,35.7z M62.1,35.9
			c-0.2,2.5-2.3,3.6-2.8,3.2c-0.4-0.3,0.4-1.3,0.9-1.4C60.8,37.4,61.8,36.3,62.1,35.9L62.1,35.9z M61.8,37.8
			c0.2,1.2-1.6,2.9-2.9,1.9C60,39.7,61.3,38.9,61.8,37.8L61.8,37.8z M46.5,39.2c0.8-0.6,1-2.3,0.8-4c0-0.4-0.4-0.6-0.5-0.4
			c-0.2,1.2-1.5,1.7-2.1,2.3c-0.4,0.4-0.6,0.7-0.9,1.2c-0.1,0.2-0.9,0.2-0.9,0.2s-0.1-0.5,0.2-0.7c1.3-0.8,1.7-1.2,2.3-2.4
			c0.4-0.8,0.8-1.7,0.3-2.5c0-0.5-0.1-0.6-0.3-1c-0.4,0-0.7,0.5-0.7,0.5s-0.2-0.9-0.6-1.3c-0.5,0.2-0.9,0.7-0.9,0.7
			s-0.2-0.7-0.7-1.1c-0.5,0.2-0.9,0.7-0.9,0.7s-0.3-0.4-0.8-0.7c-0.6,0.4-0.8,0.9-0.8,0.9s-0.3-0.3-0.8-0.5c-0.3,0.4-0.5,1-0.5,1
			s-0.3-0.3-0.6-0.5c-0.3,0.2-0.2,0.9-0.3,0.9c-1.5,2,1.4,4.7,2.5,5.4c0.3,0.2,0.3,0.7,0.3,0.7h-0.4c-0.5-1.5-2-1.6-2.5-2
			c-0.4-0.4-0.9-1-1.3-1.5c-0.1-0.2-0.4,0-0.4,0.2c-0.1,1.6-0.4,3,0,3.6c1.7,2.1,3,0.2,4.6,0.6c0,0-0.1,0.8,0.4,0.9
			c0.4,0.1,1.1,0,1.4-0.1c0.4-0.2,0.3-1.1,0.3-1.1h0.4C44,39.9,45.7,39.9,46.5,39.2L46.5,39.2L46.5,39.2z M38.7,39.2
			c-1.2,0.7-2.4-1-2.1-1.9C36.8,38.2,37.8,39,38.7,39.2L38.7,39.2z M39.9,38.7c-0.2,0.6-2.7,0.3-2.6-2.2c0.3,0.5,0.9,0.7,1.5,0.9
			C39.2,37.6,40,38.3,39.9,38.7L39.9,38.7z M42.5,37.2c-0.2-0.3-0.4-0.4-0.4-0.4s0.2-0.4,0.4-0.6c0.2,0.1,0.4,0.5,0.4,0.5
			S42.6,37,42.5,37.2L42.5,37.2z M42.5,35.1c-0.2-0.3-0.4-0.4-0.4-0.4s0.2-0.5,0.4-0.7c0.2,0.2,0.4,0.6,0.4,0.6S42.7,34.8,42.5,35.1
			L42.5,35.1L42.5,35.1z M42,38.2c0.2-0.1,0.4-0.1,0.6-0.1c0,0.6,0,1,0,1.6c0,0.3-0.6,0.4-0.6,0.2C41.8,39.3,42,38.9,42,38.2
			L42,38.2z M41.9,36.1c-0.2-0.3-0.4-0.6-0.4-0.6s0.1-0.4,0.4-0.6c0.3,0.2,0.4,0.6,0.4,0.6S42.1,35.8,41.9,36.1L41.9,36.1z
			 M40.9,36.7c0,0,0.2-0.4,0.4-0.5c0.2,0.2,0.4,0.6,0.4,0.6s-0.2,0.1-0.4,0.4C41.3,37,40.9,36.7,40.9,36.7L40.9,36.7L40.9,36.7z
			 M40.6,34.5c0,0,0.2-0.4,0.4-0.6c0.2,0.2,0.4,0.7,0.4,0.7S41.2,34.7,41,35C40.9,34.7,40.6,34.5,40.6,34.5L40.6,34.5z M40.5,36.1
			c-0.1-0.3-0.4-0.5-0.4-0.5s0.1-0.4,0.4-0.6c0.3,0.2,0.5,0.6,0.5,0.6S40.6,35.8,40.5,36.1L40.5,36.1z M39.8,36.6
			c0,0,0.2-0.3,0.3-0.4c0.2,0.3,0.3,0.5,0.3,0.5c-0.1,0.1-0.2,0.3-0.2,0.3C39.9,36.8,39.8,36.6,39.8,36.6L39.8,36.6L39.8,36.6z
			 M39.6,34.9c-0.1-0.3-0.4-0.5-0.4-0.5s0.2-0.4,0.5-0.6c0.2,0.1,0.3,0.6,0.3,0.6S39.8,34.6,39.6,34.9L39.6,34.9L39.6,34.9z
			 M38.8,35.4c0,0,0.2-0.3,0.3-0.5c0.3,0.2,0.4,0.6,0.4,0.6s-0.2,0.1-0.4,0.5C38.9,35.6,38.8,35.4,38.8,35.4L38.8,35.4z M38.8,34.2
			c-0.2,0.2-0.4,0.4-0.4,0.4s-0.2-0.3-0.2-0.6c0,0,0.1-0.3,0.2-0.4C38.5,33.8,38.7,34.1,38.8,34.2L38.8,34.2z M39,32.6
			c-0.2,0.1-0.3,0.2-0.4,0.4c0-0.3-0.1-0.4,0-0.7C38.8,32.5,39,32.6,39,32.6L39,32.6L39,32.6z M40.2,32.2c-0.4,0.1-0.7,0.2-0.8,0.2
			c0,0,0-0.3,0.2-0.7C40,31.9,40.2,32.2,40.2,32.2L40.2,32.2z M41.5,31.8c-0.2,0.1-0.5,0.3-0.8,0.3c0,0,0.1-0.4,0.4-0.7
			C41.3,31.6,41.5,31.8,41.5,31.8L41.5,31.8L41.5,31.8z M43,32.1c-0.3-0.1-0.6-0.2-0.8-0.3c0,0,0.1-0.3,0.4-0.4
			C43,31.7,43,32.1,43,32.1L43,32.1z M44.3,32.5c-0.1-0.1-0.4-0.2-0.8-0.2c0,0,0.3-0.3,0.6-0.5C44.4,32.2,44.3,32.5,44.3,32.5
			L44.3,32.5z M44.7,33.5l-0.3,0.4c0,0-0.2-0.4-0.6-0.6c-0.3,0.3-0.4,0.9-0.4,0.9s-0.2-0.6-0.7-0.8c-0.5,0.2-0.8,0.7-0.8,0.7
			s-0.3-0.5-0.8-0.7c-0.5,0.2-0.7,0.6-0.7,0.6s-0.2-0.4-0.4-0.6c-0.2,0-0.8,0.4-0.8,0.4L39,33.4c0.4-0.6,1.7-0.7,1.9-0.8
			c0,0.3-0.3,0.4-0.2,0.8c0.2-0.4,0.8-0.9,0.9-1c0.3,0.2,0.1,0.7,0.3,1.2c0.3-0.1,0.1-1.1,0.3-1.1c0.1,0.4,0.6,0.6,0.8,0.9
			c0.1-0.4-0.5-0.7-0.3-0.8C43.3,32.9,44.3,32.7,44.7,33.5L44.7,33.5z M43.8,33.9c0.2,0.2,0.5,0.6,0.5,0.6S44.1,34.7,44,35
			c-0.3-0.3-0.4-0.4-0.4-0.4S43.7,34,43.8,33.9L43.8,33.9L43.8,33.9z M45.4,33.2c-0.2-0.2-0.2-0.3-0.4-0.4c0,0,0.1-0.2,0.4-0.3
			C45.4,32.8,45.4,33,45.4,33.2L45.4,33.2z M45.2,34.8c0,0-0.1-0.3-0.4-0.4c0.1-0.2,0.2-0.4,0.4-0.6c0.1,0.1,0.2,0.4,0.2,0.4
			C45.3,34.4,45.2,34.8,45.2,34.8L45.2,34.8z M44.2,35.6c0,0,0.1-0.4,0.4-0.6c0.2,0.1,0.3,0.5,0.3,0.5s-0.1,0.3-0.3,0.6
			C44.4,35.7,44.2,35.6,44.2,35.6L44.2,35.6z M43.5,36.7c0,0,0.1-0.2,0.3-0.5c0.1,0.1,0.3,0.4,0.3,0.4S44,36.8,43.7,37
			C43.7,37,43.6,36.8,43.5,36.7L43.5,36.7L43.5,36.7z M42.8,35.7c0,0,0.1-0.4,0.4-0.7c0.2,0.2,0.4,0.5,0.4,0.5s-0.3,0.3-0.4,0.6
			C43.1,35.9,42.8,35.7,42.8,35.7L42.8,35.7L42.8,35.7z M46.8,35.8c-0.2,2-1.9,2.9-2.3,2.7c-0.3-0.2,0.3-1,0.7-1.2
			C45.8,37.1,46.6,36.2,46.8,35.8L46.8,35.8L46.8,35.8z M46.6,37.4c0.2,1-1.3,2.4-2.4,1.5C45.1,39,46.2,38.3,46.6,37.4L46.6,37.4z"
			/>
	</g>
	<g>
		<g>
			<path class="st3" d="M148.5,94.1c0,0.2-0.1,0.3-0.1,0.5s0,0.3,0,0.4c0,0.2,0,0.3,0.1,0.4s0.2,0.2,0.3,0.2c0.2,0,0.4,0.1,0.6,0.1
				c0.3,0,0.4,0.1,0.4,0.2c0,0,0,0.1-0.1,0.1c0,0-0.1,0.1-0.2,0.1c0,0-0.1,0-0.2,0c-0.8-0.1-1.6-0.1-2.4-0.1c-0.6,0-1.1,0-1.7,0.1
				c-0.1,0-0.2,0-0.3,0s-0.2,0-0.3-0.1c-0.1,0-0.1-0.1-0.1-0.1c0-0.1,0.1-0.2,0.4-0.2l0,0c0.1,0,0.2,0,0.3-0.1c0.1,0,0.2,0,0.3-0.1
				c0.2-0.1,0.4-0.2,0.5-0.4c0.1-0.2,0.3-0.5,0.4-1.1l2.4-8.6c0.1-0.3,0.2-0.6,0.2-0.7c0-0.2,0-0.3,0-0.4c0-0.2-0.1-0.4-0.2-0.5
				c-0.1-0.1-0.4-0.2-0.7-0.2c0,0-0.1,0-0.2,0c-0.3,0-0.5-0.1-0.5-0.2c0,0,0-0.1,0.1-0.1s0.2-0.1,0.3-0.1c0,0,0.1,0,0.2,0
				c0.6,0,1.3,0.1,2,0.1s1.4,0,2.1-0.1c0.1,0,0.2,0,0.2,0c0.1,0,0.2,0,0.3,0.1c0.1,0,0.1,0.1,0.1,0.1c0,0.1-0.1,0.2-0.4,0.2
				c-0.3,0-0.5,0.1-0.7,0.1c-0.2,0.1-0.3,0.2-0.5,0.3c-0.1,0.1-0.2,0.4-0.3,0.8L148.5,94.1z"/>
			<path class="st3" d="M153.8,96.1h-1.3l1-3.7c0.3-1,0.5-1.7,0.6-2.4c0.1-0.6,0.2-1.1,0.2-1.4c0-0.2,0-0.3-0.1-0.4
				s-0.2-0.1-0.3-0.1c-0.3,0-0.5,0.2-0.8,0.7c-0.3,0.4-0.7,1.1-1,2l-0.3-0.2c0.4-1.1,0.8-1.9,1.2-2.4s0.9-0.8,1.4-0.8
				c0.3,0,0.6,0.1,0.8,0.4s0.3,0.6,0.3,1.1c0,0.2,0,0.5-0.1,0.9c0,0.3-0.1,0.8-0.2,1.2c0.5-1.2,1.1-2.1,1.7-2.7
				c0.6-0.6,1.2-0.9,1.8-0.9c0.3,0,0.6,0.1,0.8,0.4c0.2,0.2,0.3,0.6,0.3,1c0,0.2,0,0.5-0.1,0.8s-0.2,0.7-0.3,1.2
				c0.6-1.1,1.1-2,1.7-2.5c0.5-0.5,1.1-0.8,1.6-0.8c0.4,0,0.6,0.1,0.8,0.4s0.3,0.6,0.3,1.1c0,0.3,0,0.6-0.1,1s-0.2,0.8-0.3,1.3
				l-1.1,3.5c0,0.1-0.1,0.3-0.1,0.4s0,0.2,0,0.3c0,0.1,0,0.2,0.1,0.2c0.1,0.1,0.2,0.1,0.3,0.1c0.3,0,0.6-0.2,0.9-0.6
				c0.3-0.4,0.7-1.1,1.2-2l0.3,0.1c-0.4,1.1-0.9,1.8-1.3,2.3c-0.5,0.5-1,0.7-1.5,0.7c-0.3,0-0.6-0.1-0.8-0.4
				c-0.2-0.2-0.3-0.5-0.3-0.9c0-0.2,0-0.4,0.1-0.6c0-0.2,0.1-0.5,0.2-0.8l1.1-3.2c0.2-0.5,0.3-0.8,0.3-1.1c0.1-0.2,0.1-0.5,0.1-0.6
				c0-0.2,0-0.4-0.1-0.5s-0.2-0.2-0.4-0.2c-0.4,0-1,0.5-1.7,1.4c-0.7,1-1.2,2.1-1.7,3.4l-1,3.2h-1.3l1.7-5.6
				c0.1-0.5,0.3-0.9,0.3-1.2c0.1-0.3,0.1-0.5,0.1-0.7s0-0.4-0.1-0.4c-0.1-0.1-0.2-0.1-0.4-0.1c-0.4,0-1,0.4-1.6,1.3s-1.1,2-1.6,3.4
				L153.8,96.1z"/>
			<path class="st3" d="M167.3,96.1H166l1-3.7c0.3-1,0.5-1.7,0.6-2.4c0.1-0.6,0.2-1.1,0.2-1.4c0-0.2,0-0.3-0.1-0.4s-0.2-0.1-0.3-0.1
				c-0.3,0-0.5,0.2-0.8,0.7c-0.3,0.4-0.7,1.1-1,2l-0.3-0.2c0.4-1.1,0.8-1.9,1.2-2.4s0.9-0.8,1.4-0.8c0.3,0,0.6,0.1,0.8,0.4
				s0.3,0.6,0.3,1.1c0,0.2,0,0.5-0.1,0.9c0,0.3-0.1,0.8-0.2,1.2c0.5-1.2,1.1-2.1,1.7-2.7c0.6-0.6,1.2-0.9,1.8-0.9
				c0.3,0,0.6,0.1,0.8,0.4c0.2,0.2,0.3,0.6,0.3,1c0,0.2,0,0.5-0.1,0.8s-0.2,0.7-0.3,1.2c0.6-1.1,1.1-2,1.7-2.5
				c0.5-0.5,1.1-0.8,1.6-0.8c0.4,0,0.6,0.1,0.8,0.4s0.3,0.6,0.3,1.1c0,0.3,0,0.6-0.1,1s-0.2,0.8-0.3,1.3l-1.1,3.5
				c0,0.1-0.1,0.3-0.1,0.4s0,0.2,0,0.3c0,0.1,0,0.2,0.1,0.2c0.1,0.1,0.2,0.1,0.3,0.1c0.3,0,0.6-0.2,0.9-0.6c0.3-0.4,0.7-1.1,1.2-2
				l0.3,0.1c-0.4,1.1-0.9,1.8-1.3,2.3c-0.5,0.5-1,0.7-1.5,0.7c-0.3,0-0.6-0.1-0.8-0.4c-0.2-0.2-0.3-0.5-0.3-0.9c0-0.2,0-0.4,0.1-0.6
				c0-0.2,0.1-0.5,0.2-0.8l1.1-3.2c0.2-0.5,0.3-0.8,0.3-1.1c0.1-0.2,0.1-0.5,0.1-0.6c0-0.2,0-0.4-0.1-0.5s-0.2-0.2-0.4-0.2
				c-0.4,0-1,0.5-1.7,1.4c-0.7,1-1.2,2.1-1.7,3.4l-1,3.2H170l1.7-5.6c0.1-0.5,0.3-0.9,0.3-1.2c0.1-0.3,0.1-0.5,0.1-0.7
				s0-0.4-0.1-0.4c-0.1-0.1-0.2-0.1-0.4-0.1c-0.4,0-1,0.4-1.6,1.3s-1.1,2-1.6,3.4L167.3,96.1z"/>
			<path class="st3" d="M184.8,93.8c-0.5,0.9-1.1,1.6-1.6,2c-0.6,0.4-1.2,0.6-1.9,0.6c-0.6,0-1.1-0.2-1.4-0.6
				c-0.3-0.4-0.5-1-0.5-1.7c0-0.6,0.1-1.2,0.3-1.8c0.2-0.6,0.5-1.2,0.8-1.8c0.6-0.9,1.2-1.7,1.9-2.2c0.7-0.6,1.3-0.8,1.9-0.8
				c0.4,0,0.8,0.1,1,0.4c0.3,0.3,0.4,0.6,0.4,1c0,0.8-0.4,1.5-1.2,2.2s-1.9,1.3-3.5,1.9l-0.1,0.6c-0.1,0.2-0.1,0.5-0.1,0.7
				s0,0.4,0,0.5c0,0.4,0.1,0.7,0.3,0.9c0.2,0.2,0.4,0.3,0.8,0.3c0.4,0,0.8-0.2,1.3-0.6s1-1,1.5-1.8L184.8,93.8z M181,92.5
				c1-0.4,1.9-1,2.6-1.7c0.7-0.7,1-1.4,1-2c0-0.3-0.1-0.5-0.2-0.6c-0.1-0.1-0.3-0.2-0.5-0.2c-0.5,0-1,0.4-1.6,1.3
				C181.8,90,181.4,91.1,181,92.5z"/>
			<path class="st3" d="M188.6,96.1h-1.4c0.6-1.7,1-3.1,1.3-4.2s0.4-2.2,0.4-3c0-0.2,0-0.4-0.1-0.6c-0.1-0.1-0.2-0.2-0.3-0.2
				c-0.2,0-0.5,0.2-0.8,0.6s-0.6,1-1,1.9l-0.3-0.1c0.4-1,0.9-1.8,1.3-2.3c0.4-0.5,0.8-0.7,1.3-0.7c0.4,0,0.7,0.1,0.9,0.4
				s0.3,0.7,0.3,1.3c0,0.2,0,0.5-0.1,0.8c0,0.3-0.1,0.7-0.2,1.1c0.5-1.3,1-2.2,1.5-2.8c0.5-0.6,1-0.9,1.5-0.9c0.3,0,0.5,0.1,0.7,0.2
				c0.2,0.2,0.2,0.4,0.2,0.7c0,0.2-0.1,0.4-0.2,0.5c-0.1,0.1-0.3,0.2-0.5,0.2s-0.4,0-0.5-0.1s-0.1-0.3-0.1-0.5c0,0,0,0,0-0.1v-0.1
				c0-0.1,0-0.2-0.1-0.2c0,0-0.1,0-0.2,0c-0.3,0-0.7,0.4-1.1,1.2c-0.4,0.8-0.9,1.9-1.4,3.3L188.6,96.1z"/>
			<path class="st3" d="M195.3,96.4c-0.7,0-1.2-0.1-1.6-0.4c-0.4-0.3-0.6-0.6-0.6-1c0-0.2,0.1-0.4,0.2-0.5c0.1-0.1,0.3-0.2,0.4-0.2
				s0.3,0.1,0.4,0.2c0.1,0.1,0.1,0.3,0.1,0.5c0,0,0,0.1,0,0.3c0,0.1,0,0.2,0,0.3c0,0.1,0.1,0.3,0.3,0.4s0.5,0.1,0.8,0.1
				c0.6,0,1-0.1,1.3-0.4s0.5-0.6,0.5-1.1c0-0.3-0.1-0.6-0.2-0.9c-0.1-0.3-0.4-0.7-0.9-1.3c0-0.1-0.1-0.1-0.2-0.2
				c-0.8-1-1.2-1.8-1.2-2.4s0.2-1.2,0.7-1.6s1.1-0.7,1.8-0.7c0.5,0,0.9,0.1,1.2,0.3c0.3,0.2,0.5,0.5,0.5,0.8c0,0.2,0,0.3-0.1,0.4
				s-0.2,0.1-0.4,0.1c-0.1,0-0.3,0-0.4-0.1c-0.1-0.1-0.1-0.2-0.1-0.4c0,0,0-0.1,0-0.2s0-0.1,0-0.2s-0.1-0.3-0.2-0.3
				c-0.2-0.1-0.4-0.1-0.6-0.1c-0.4,0-0.8,0.1-1,0.4c-0.3,0.2-0.4,0.5-0.4,0.9s0.3,0.9,0.9,1.6c0.1,0.2,0.2,0.3,0.3,0.4
				c0.5,0.6,0.8,1.2,1,1.6s0.3,0.8,0.3,1.2c0,0.7-0.3,1.3-0.8,1.8C196.9,96.2,196.2,96.4,195.3,96.4z"/>
			<path class="st3" d="M201,92.4l0.7-1.8c0.2-0.5,0.4-0.9,0.5-1.3c0.1-0.3,0.1-0.6,0.1-0.8c0-0.1,0-0.2-0.1-0.3
				c-0.1-0.1-0.1-0.1-0.3-0.1s-0.5,0.2-0.9,0.6c-0.3,0.4-0.7,1-1,1.7l-0.3-0.1c0.4-0.9,0.8-1.6,1.2-2.1s0.8-0.7,1.3-0.7
				c0.4,0,0.6,0.1,0.9,0.4c0.2,0.2,0.3,0.6,0.3,1c0,0.3-0.1,0.7-0.2,1.1c-0.1,0.4-0.3,1-0.6,1.7l-0.6,1.5c-0.2,0.7-0.4,1.2-0.5,1.5
				s-0.2,0.6-0.2,0.7s0,0.2,0.1,0.3c0.1,0.1,0.2,0.1,0.3,0.1c0.3,0,0.6-0.2,0.9-0.6c0.3-0.4,0.7-1,1.2-2l0.3,0.2
				c-0.4,1-0.9,1.7-1.3,2.2c-0.4,0.5-0.9,0.7-1.4,0.7c-0.4,0-0.7-0.1-0.9-0.3c-0.2-0.2-0.3-0.6-0.3-1c0-0.3,0.1-0.7,0.2-1.1
				S200.7,93.1,201,92.4z M202.7,83.7c0-0.2,0.1-0.4,0.2-0.6c0.2-0.2,0.4-0.2,0.6-0.2c0.2,0,0.4,0.1,0.6,0.2
				c0.2,0.2,0.2,0.3,0.2,0.6c0,0.2-0.1,0.4-0.2,0.6c-0.2,0.2-0.4,0.2-0.6,0.2c-0.2,0-0.4-0.1-0.6-0.2
				C202.8,84.1,202.7,83.9,202.7,83.7z"/>
			<path class="st3" d="M208.4,89c-0.2,0.2-0.5,0.4-0.7,0.5s-0.4,0.1-0.7,0.1c-0.2,0-0.4,0-0.8-0.1c-0.3-0.1-0.5-0.1-0.6-0.1
				s-0.1,0-0.2,0.1c-0.1,0.1-0.1,0.1-0.1,0.2v0.2c0,0.1,0,0.1-0.1,0.2l-0.1,0.1c-0.1,0-0.2-0.1-0.2-0.2c-0.1-0.1-0.1-0.3-0.1-0.5
				c0-0.3,0.1-0.6,0.3-0.9c0.2-0.2,0.5-0.3,0.8-0.3s0.6,0.1,0.9,0.3c0.4,0.2,0.6,0.3,0.8,0.3c0.3,0,0.5-0.1,0.6-0.2
				c0.2-0.1,0.3-0.4,0.3-0.7c0-0.2,0.1-0.3,0.1-0.4c0.1-0.1,0.1-0.1,0.2-0.1c0.1,0,0.1,0,0.2,0.1s0.1,0.1,0.1,0.2
				c0,0.2-0.1,0.5-0.4,0.9c-0.2,0.3-0.3,0.5-0.3,0.6c-0.3,0.7-0.6,1.5-0.8,2.3s-0.3,1.5-0.3,2.2s0.1,1.2,0.3,1.5s0.5,0.5,1,0.5
				c0.3,0,0.7-0.1,1-0.3c0.3-0.2,0.6-0.5,0.9-0.8c0.4-0.6,0.8-1.2,1-2s0.4-1.6,0.4-2.5c0-0.3,0-0.6-0.1-1c0-0.4-0.1-0.6-0.1-0.8
				c0-0.3,0.1-0.5,0.2-0.7c0.1-0.2,0.2-0.2,0.4-0.2c0.3,0,0.4,0.1,0.5,0.3c0.1,0.2,0.1,0.6,0.1,1.2c0,0.8-0.1,1.5-0.3,2.3
				c-0.2,0.7-0.5,1.5-0.9,2.2c-0.5,1-1.1,1.7-1.8,2.2s-1.3,0.8-2.1,0.8c-0.7,0-1.2-0.2-1.5-0.5c-0.4-0.4-0.5-0.9-0.5-1.5
				c0-0.7,0.5-1.9,1.4-3.6C207.9,90,208.2,89.4,208.4,89z"/>
			<path class="st3" d="M219.6,93.8c-0.5,0.9-1.1,1.6-1.6,2c-0.6,0.4-1.2,0.6-1.9,0.6c-0.6,0-1.1-0.2-1.4-0.6
				c-0.3-0.4-0.5-1-0.5-1.7c0-0.6,0.1-1.2,0.3-1.8c0.2-0.6,0.5-1.2,0.8-1.8c0.6-0.9,1.2-1.7,1.9-2.2c0.7-0.6,1.3-0.8,1.9-0.8
				c0.4,0,0.8,0.1,1,0.4c0.3,0.3,0.4,0.6,0.4,1c0,0.8-0.4,1.5-1.2,2.2s-1.9,1.3-3.5,1.9l-0.1,0.6c-0.1,0.2-0.1,0.5-0.1,0.7
				s0,0.4,0,0.5c0,0.4,0.1,0.7,0.3,0.9c0.2,0.2,0.4,0.3,0.8,0.3c0.4,0,0.8-0.2,1.3-0.6s1-1,1.5-1.8L219.6,93.8z M215.9,92.5
				c1-0.4,1.9-1,2.6-1.7c0.7-0.7,1-1.4,1-2c0-0.3-0.1-0.5-0.2-0.6c-0.1-0.1-0.3-0.2-0.5-0.2c-0.5,0-1,0.4-1.6,1.3
				C216.7,90,216.2,91.1,215.9,92.5z"/>
			<path class="st3" d="M226.7,95.7l8.7-11.9h-2.2c-0.6,0-1.2,0-1.6,0.1c-0.4,0.1-0.8,0.3-1.1,0.5c-0.4,0.3-0.8,0.7-1.1,1.1
				c-0.4,0.4-0.6,0.7-0.6,0.7c-0.1,0-0.1,0-0.1-0.1c0,0,0-0.1,0-0.2s0.1-0.4,0.4-0.9c0.3-0.5,0.5-1.1,0.7-1.5h0.1c0.1,0,0.1,0,0.3,0
				h7.2c0.1,0,0.2,0,0.2,0l0.1,0.1v0.1v0.1l-8.8,12h2.5c1.2,0,2.1-0.1,2.7-0.4c0.6-0.2,1.2-0.7,1.7-1.3c0.1-0.2,0.3-0.4,0.4-0.7
				s0.3-0.4,0.4-0.4h0.1v0.1c0,0.1-0.1,0.4-0.4,1.1c-0.3,0.7-0.5,1.3-0.7,1.9c-0.1,0-0.2,0-0.2,0c-0.1,0-0.1,0-0.2,0H227
				c-0.2,0-0.3,0-0.4,0c-0.1,0-0.1-0.1-0.1-0.1v-0.1C226.6,95.8,226.6,95.7,226.7,95.7z"/>
			<path class="st3" d="M240.6,96.4c-0.8,0-1.4-0.2-1.9-0.7s-0.7-1.2-0.7-2.1c0-0.7,0.1-1.5,0.4-2.2c0.2-0.7,0.6-1.4,1-2
				s0.9-1.1,1.5-1.4c0.5-0.3,1.1-0.5,1.6-0.5c0.7,0,1.3,0.3,1.8,0.9c0.4,0.6,0.7,1.3,0.7,2.3c0,0.8-0.1,1.5-0.4,2.2
				c-0.2,0.7-0.6,1.4-1.1,2c-0.4,0.5-0.8,0.9-1.3,1.2C241.7,96.3,241.1,96.4,240.6,96.4z M239.3,94.4c0,0.5,0.1,0.9,0.4,1.2
				c0.2,0.3,0.6,0.4,1,0.4s0.7-0.1,1-0.4s0.6-0.7,0.8-1.2c0.4-0.8,0.6-1.6,0.8-2.4c0.2-0.9,0.3-1.6,0.3-2.3c0-0.6-0.1-1.1-0.3-1.4
				s-0.5-0.5-0.9-0.5s-0.8,0.2-1.1,0.5c-0.4,0.3-0.7,0.9-1,1.5c-0.3,0.7-0.6,1.5-0.8,2.3C239.4,93.1,239.3,93.8,239.3,94.4z"/>
			<path class="st3" d="M248.3,96.1h-1.4l1-3.4c0.2-0.8,0.4-1.6,0.6-2.3s0.2-1.3,0.2-1.7c0-0.2,0-0.3-0.1-0.4s-0.2-0.1-0.3-0.1
				c-0.3,0-0.6,0.2-0.9,0.6c-0.3,0.4-0.7,1.1-1.1,2.1l-0.3-0.1c0.4-1.1,0.8-1.9,1.3-2.4s1-0.8,1.5-0.8c0.3,0,0.6,0.1,0.8,0.4
				s0.3,0.6,0.3,1.1c0,0.3,0,0.6-0.1,1s-0.1,0.8-0.3,1.3c0.6-1.2,1.2-2.1,1.8-2.8c0.6-0.6,1.2-1,1.8-1c0.5,0,0.8,0.2,1.1,0.5
				s0.4,0.8,0.4,1.3c0,0.2,0,0.4-0.1,0.7c0,0.2-0.1,0.5-0.2,0.7l-1.3,3.9c0,0.2-0.1,0.3-0.1,0.5c0,0.1,0,0.3,0,0.3
				c0,0.1,0,0.3,0.1,0.3c0.1,0.1,0.2,0.1,0.3,0.1c0.3,0,0.6-0.2,1-0.6c0.3-0.4,0.7-1.1,1.1-2l0.3,0.2l-0.4,0.8
				c-0.3,0.7-0.7,1.2-1.1,1.6c-0.4,0.4-0.9,0.5-1.3,0.5c-0.4,0-0.7-0.1-0.9-0.4c-0.2-0.2-0.3-0.6-0.3-1c0-0.2,0-0.4,0.1-0.6
				c0-0.2,0.2-0.6,0.3-1.1l1-3c0.1-0.3,0.2-0.6,0.2-0.8s0.1-0.5,0.1-0.7s-0.1-0.4-0.2-0.6s-0.3-0.2-0.5-0.2c-0.3,0-0.5,0.1-0.8,0.3
				c-0.3,0.2-0.6,0.5-0.9,0.9c-0.9,1.1-1.6,2.7-2.3,4.8c-0.1,0.2-0.1,0.3-0.1,0.4L248.3,96.1z"/>
			<path class="st3" d="M262.4,93.8c-0.5,0.9-1.1,1.6-1.6,2c-0.6,0.4-1.2,0.6-1.9,0.6c-0.6,0-1.1-0.2-1.4-0.6s-0.5-1-0.5-1.7
				c0-0.6,0.1-1.2,0.3-1.8c0.2-0.6,0.5-1.2,0.8-1.8c0.6-0.9,1.2-1.7,1.9-2.2c0.7-0.6,1.3-0.8,1.9-0.8c0.4,0,0.8,0.1,1,0.4
				c0.3,0.3,0.4,0.6,0.4,1c0,0.8-0.4,1.5-1.2,2.2c-0.8,0.7-1.9,1.3-3.5,1.9l-0.1,0.6c-0.1,0.2-0.1,0.5-0.1,0.7s0,0.4,0,0.5
				c0,0.4,0.1,0.7,0.3,0.9c0.2,0.2,0.4,0.3,0.8,0.3s0.8-0.2,1.3-0.6s1-1,1.5-1.8L262.4,93.8z M258.7,92.5c1-0.4,1.9-1,2.6-1.7
				s1-1.4,1-2c0-0.3-0.1-0.5-0.2-0.6s-0.3-0.2-0.5-0.2c-0.5,0-1,0.4-1.6,1.3C259.5,90,259,91.1,258.7,92.5z"/>
			<path class="st3" d="M281.3,88.6c0.4,0.3,0.7,0.7,0.9,1.2c0.2,0.5,0.3,1,0.3,1.7c0,0.5-0.1,1.1-0.3,1.6c-0.2,0.5-0.5,1-0.9,1.5
				c-0.5,0.6-1.2,1.1-2,1.4s-1.8,0.5-2.8,0.5c-1.9,0-3.5-0.5-4.6-1.4c-1.2-0.9-1.8-2.2-1.8-3.7c0-0.8,0.2-1.6,0.5-2.2
				s0.8-1.1,1.5-1.5c-0.2-0.3-0.3-0.6-0.4-0.9s-0.1-0.6-0.1-0.9c0-0.8,0.3-1.5,0.9-2.1s1.3-0.9,2-0.9c0.5,0,0.9,0.1,1.2,0.3
				c0.3,0.2,0.5,0.4,0.5,0.7c0,0.2-0.1,0.3-0.2,0.5c-0.1,0.1-0.3,0.2-0.4,0.2s-0.4-0.1-0.8-0.4c-0.4-0.2-0.7-0.4-1.1-0.4
				c-0.5,0-0.8,0.2-1.2,0.5c-0.3,0.4-0.5,0.8-0.5,1.3c0,0.2,0.1,0.5,0.2,0.8s0.3,0.6,0.5,0.8c0.1-0.1,0.2-0.1,0.4-0.2
				c0.2,0,0.3-0.1,0.5-0.1c0.3,0,0.6,0.1,0.8,0.3c0.2,0.2,0.3,0.4,0.3,0.6c0,0.3-0.1,0.5-0.3,0.6c-0.2,0.1-0.4,0.2-0.8,0.2
				c-0.3,0-0.5-0.1-0.7-0.2s-0.4-0.3-0.7-0.6c-0.4,0.2-0.8,0.5-1,1c-0.2,0.4-0.4,0.9-0.4,1.5s0.2,1.2,0.5,1.8
				c0.4,0.6,0.9,1.1,1.5,1.6c0.5,0.4,1.1,0.6,1.8,0.8c0.6,0.2,1.3,0.3,2.1,0.3c1.5,0,2.7-0.4,3.6-1.1s1.4-1.7,1.4-2.8
				c0-0.9-0.2-1.5-0.7-2s-1.1-0.7-2-0.7c-0.7,0-1.2,0.1-1.5,0.4c-0.4,0.3-0.6,0.6-0.6,1c0,0.2,0,0.3,0.1,0.4s0.2,0.2,0.4,0.2
				c0.1,0,0.2,0,0.4-0.1c0.2-0.1,0.4-0.1,0.6-0.1s0.4,0.1,0.6,0.2c0.1,0.2,0.2,0.4,0.2,0.6c0,0.3-0.1,0.5-0.3,0.7
				c-0.2,0.2-0.4,0.2-0.8,0.2c-0.5,0-0.9-0.2-1.2-0.6c-0.3-0.4-0.5-0.8-0.5-1.4c0-0.8,0.3-1.4,0.8-1.9c0.6-0.5,1.3-0.7,2.2-0.7h0.1
				h1.6h0.3c1,0,1.8-0.2,2.3-0.5s0.8-0.8,0.8-1.5c0-0.4-0.1-0.8-0.3-1.1c-0.2-0.3-0.5-0.5-0.8-0.5c-0.2,0-0.4,0.1-0.5,0.4V84
				c-0.1,0.2-0.2,0.4-0.4,0.5c-0.1,0.1-0.3,0.2-0.5,0.2s-0.4-0.1-0.6-0.2s-0.2-0.3-0.2-0.5c0-0.4,0.1-0.7,0.4-0.9
				c0.3-0.2,0.6-0.3,1.1-0.3c0.7,0,1.2,0.2,1.7,0.7s0.7,1.1,0.7,1.9c0,1-0.3,1.8-1,2.3c-0.7,0.6-1.6,0.8-2.8,0.8c0,0-0.1,0-0.2,0
				C281.5,88.6,281.4,88.6,281.3,88.6z"/>
			<path class="st3" d="M295.2,85.7v-0.1c0.1-0.4,0.1-0.7,0.1-0.8c0-0.2,0-0.4-0.1-0.5s-0.3-0.2-0.5-0.2c0,0-0.1,0-0.2,0
				c-0.5,0-0.8-0.1-0.8-0.3c0-0.1,0.3-0.2,0.9-0.3c0.6-0.1,1.6-0.1,3.1-0.1c2.1,0,3.7,0.5,4.8,1.4c1.1,0.9,1.7,2.2,1.7,3.9
				c0,1-0.2,1.9-0.5,2.8s-0.8,1.7-1.5,2.4c-0.7,0.8-1.6,1.4-2.5,1.8s-2.1,0.6-3.4,0.6c-0.4,0-0.8,0-1.4,0s-1,0-1.3,0
				c-0.7,0-1.4,0-2.1,0.1c-0.1,0-0.2,0-0.3,0c-0.1,0-0.2,0-0.3-0.1c-0.1,0-0.1-0.1-0.1-0.1c0-0.1,0.1-0.2,0.4-0.2l0,0
				c0.1,0,0.2,0,0.3-0.1c0.1,0,0.2,0,0.3-0.1c0.2-0.1,0.4-0.2,0.5-0.4c0.1-0.2,0.3-0.5,0.4-1.1L295.2,85.7z M297.1,85.1l-2.4,8.5
				c0,0.2-0.1,0.4-0.1,0.6s0,0.4,0,0.5c0,0.4,0.1,0.6,0.4,0.8c0.3,0.1,0.8,0.2,1.5,0.2c1,0,1.8-0.2,2.5-0.6s1.3-1,1.8-1.9
				c0.4-0.8,0.8-1.7,1-2.6s0.4-1.9,0.4-2.8c0-1.2-0.3-2.2-1-2.9c-0.7-0.7-1.6-1-2.8-1c-0.4,0-0.6,0.1-0.8,0.2
				C297.5,84.2,297.3,84.5,297.1,85.1z"/>
			<path class="st3" d="M310.4,93.8c-0.5,0.9-1.1,1.6-1.6,2c-0.6,0.4-1.2,0.6-1.9,0.6c-0.6,0-1.1-0.2-1.4-0.6s-0.5-1-0.5-1.7
				c0-0.6,0.1-1.2,0.3-1.8c0.2-0.6,0.5-1.2,0.8-1.8c0.6-0.9,1.2-1.7,1.9-2.2c0.7-0.6,1.3-0.8,1.9-0.8c0.4,0,0.8,0.1,1,0.4
				c0.3,0.3,0.4,0.6,0.4,1c0,0.8-0.4,1.5-1.2,2.2c-0.8,0.7-1.9,1.3-3.5,1.9l-0.1,0.6c-0.1,0.2-0.1,0.5-0.1,0.7s0,0.4,0,0.5
				c0,0.4,0.1,0.7,0.3,0.9c0.2,0.2,0.4,0.3,0.8,0.3s0.8-0.2,1.3-0.6s1-1,1.5-1.8L310.4,93.8z M306.7,92.5c1-0.4,1.9-1,2.6-1.7
				s1-1.4,1-2c0-0.3-0.1-0.5-0.2-0.6s-0.3-0.2-0.5-0.2c-0.5,0-1,0.4-1.6,1.3C307.5,90,307.1,91.1,306.7,92.5z"/>
			<path class="st3" d="M315.8,89c-0.2,0.2-0.5,0.4-0.7,0.5s-0.4,0.1-0.7,0.1c-0.2,0-0.4,0-0.8-0.1c-0.3-0.1-0.5-0.1-0.6-0.1
				s-0.1,0-0.2,0.1s-0.1,0.1-0.1,0.2v0.2c0,0.1,0,0.1-0.1,0.2l-0.1,0.1c-0.1,0-0.2-0.1-0.2-0.2c-0.1-0.1-0.1-0.3-0.1-0.5
				c0-0.3,0.1-0.6,0.3-0.9c0.2-0.2,0.5-0.3,0.8-0.3s0.6,0.1,0.9,0.3c0.4,0.2,0.6,0.3,0.8,0.3c0.3,0,0.5-0.1,0.6-0.2
				c0.2-0.1,0.3-0.4,0.3-0.7c0-0.2,0.1-0.3,0.1-0.4c0.1-0.1,0.1-0.1,0.2-0.1s0.1,0,0.2,0.1s0.1,0.1,0.1,0.2c0,0.2-0.1,0.5-0.4,0.9
				c-0.2,0.3-0.3,0.5-0.3,0.6c-0.3,0.7-0.6,1.5-0.8,2.3c-0.2,0.8-0.3,1.5-0.3,2.2s0.1,1.2,0.3,1.5c0.2,0.3,0.5,0.5,1,0.5
				c0.3,0,0.7-0.1,1-0.3c0.3-0.2,0.6-0.5,0.9-0.8c0.4-0.6,0.8-1.2,1-2s0.4-1.6,0.4-2.5c0-0.3,0-0.6-0.1-1c0-0.4-0.1-0.6-0.1-0.8
				c0-0.3,0.1-0.5,0.2-0.7s0.2-0.2,0.4-0.2c0.3,0,0.4,0.1,0.5,0.3c0.1,0.2,0.1,0.6,0.1,1.2c0,0.8-0.1,1.5-0.3,2.3
				c-0.2,0.7-0.5,1.5-0.9,2.2c-0.5,1-1.1,1.7-1.8,2.2c-0.7,0.5-1.3,0.8-2.1,0.8c-0.7,0-1.2-0.2-1.5-0.5c-0.4-0.4-0.5-0.9-0.5-1.5
				c0-0.7,0.5-1.9,1.4-3.6C315.3,90,315.6,89.4,315.8,89z"/>
			<path class="st3" d="M327,93.8c-0.5,0.9-1.1,1.6-1.6,2c-0.6,0.4-1.2,0.6-1.9,0.6c-0.6,0-1.1-0.2-1.4-0.6s-0.5-1-0.5-1.7
				c0-0.6,0.1-1.2,0.3-1.8c0.2-0.6,0.5-1.2,0.8-1.8c0.6-0.9,1.2-1.7,1.9-2.2c0.7-0.6,1.3-0.8,1.9-0.8c0.4,0,0.8,0.1,1,0.4
				c0.3,0.3,0.4,0.6,0.4,1c0,0.8-0.4,1.5-1.2,2.2c-0.8,0.7-1.9,1.3-3.5,1.9l-0.1,0.6c-0.1,0.2-0.1,0.5-0.1,0.7s0,0.4,0,0.5
				c0,0.4,0.1,0.7,0.3,0.9c0.2,0.2,0.4,0.3,0.8,0.3s0.8-0.2,1.3-0.6s1-1,1.5-1.8L327,93.8z M323.3,92.5c1-0.4,1.9-1,2.6-1.7
				s1-1.4,1-2c0-0.3-0.1-0.5-0.2-0.6s-0.3-0.2-0.5-0.2c-0.5,0-1,0.4-1.6,1.3C324.1,90,323.6,91.1,323.3,92.5z"/>
			<path class="st3" d="M331.6,84.1c0-0.1,0.1-0.2,0.1-0.3c0-0.1,0-0.1,0-0.2c0-0.2-0.1-0.3-0.2-0.4s-0.3-0.1-0.7-0.1
				c-0.1,0-0.2,0-0.4,0l0,0l0.1-0.5l2.9-0.4L330.2,94c-0.1,0.2-0.1,0.5-0.2,0.7c0,0.2-0.1,0.4-0.1,0.6s0,0.4,0.1,0.5
				s0.2,0.2,0.4,0.2c0.3,0,0.6-0.2,1-0.7c0.4-0.4,0.7-1.1,1-1.9l0.3,0.1c-0.4,1-0.8,1.7-1.2,2.2c-0.5,0.5-1,0.7-1.5,0.7
				c-0.4,0-0.8-0.1-1-0.3c-0.2-0.2-0.3-0.6-0.3-1c0-0.2,0-0.4,0.1-0.7c0-0.3,0.1-0.6,0.2-0.9L331.6,84.1z"/>
			<path class="st3" d="M336.5,96.4c-0.8,0-1.4-0.2-1.9-0.7c-0.4-0.5-0.7-1.2-0.7-2.1c0-0.7,0.1-1.5,0.4-2.2c0.2-0.7,0.6-1.4,1-2
				s0.9-1.1,1.5-1.4c0.5-0.3,1.1-0.5,1.6-0.5c0.7,0,1.3,0.3,1.8,0.9c0.4,0.6,0.7,1.3,0.7,2.3c0,0.8-0.1,1.5-0.4,2.2
				c-0.2,0.7-0.6,1.4-1.1,2c-0.4,0.5-0.8,0.9-1.3,1.2C337.5,96.3,337,96.4,336.5,96.4z M335.2,94.4c0,0.5,0.1,0.9,0.4,1.2
				c0.2,0.3,0.6,0.4,1,0.4s0.7-0.1,1-0.4s0.6-0.7,0.8-1.2c0.4-0.8,0.6-1.6,0.8-2.4c0.2-0.9,0.3-1.6,0.3-2.3c0-0.6-0.1-1.1-0.3-1.4
				c-0.2-0.3-0.5-0.5-0.9-0.5s-0.8,0.2-1.1,0.5c-0.4,0.3-0.7,0.9-1,1.5c-0.3,0.7-0.6,1.5-0.8,2.3C335.3,93.1,335.2,93.8,335.2,94.4z
				"/>
			<path class="st3" d="M343.4,99.2c-0.1,0.4-0.2,0.6-0.2,0.8c0,0.2,0,0.3,0,0.4c0,0.2,0.1,0.4,0.3,0.5c0.2,0.1,0.5,0.2,1,0.2
				l-0.1,0.3h-4.2l0.1-0.3c0.5,0,0.9-0.1,1.1-0.4c0.2-0.2,0.5-0.8,0.7-1.7l2.6-10.2c-1,0.8-1.6,1.4-1.9,1.8s-0.5,0.8-0.6,1.3
				l-0.4-0.1c0.1-0.4,0.2-0.8,0.4-1.2c0.2-0.4,0.6-0.8,1.1-1.2c0.1-0.1,0.2-0.2,0.4-0.3c0.7-0.6,1.2-1.2,1.3-1.8l0.6-2.2
				c0-0.1,0.1-0.3,0.1-0.3c0.1-0.1,0.1-0.1,0.3-0.1c0.3,0,0.5,0,0.6,0.1c0.1,0,0.2,0.1,0.2,0.2c0,0,0,0.1,0,0.2s0,0.2-0.1,0.3
				l-1.2,4.6c0.5-0.9,1-1.5,1.4-1.9c0.5-0.4,1-0.6,1.5-0.6c0.6,0,1.1,0.2,1.5,0.7s0.6,1.1,0.6,2c0,0.7-0.1,1.4-0.4,2.2
				c-0.3,0.8-0.7,1.5-1.2,2.2c-0.4,0.6-0.9,1-1.4,1.3s-1,0.4-1.6,0.4c-0.4,0-0.7-0.1-0.9-0.2c-0.2-0.2-0.4-0.4-0.6-0.7L343.4,99.2z
				 M344.7,94.6c0,0.4,0.1,0.8,0.3,1s0.4,0.4,0.8,0.4s0.7-0.2,1.1-0.5s0.7-0.8,1-1.4c0.2-0.3,0.4-0.7,0.5-1.1
				c0.2-0.4,0.3-0.9,0.5-1.4c0.1-0.4,0.2-0.8,0.3-1.2c0.1-0.4,0.1-0.7,0.1-0.9c0-0.5-0.1-0.8-0.3-1.1c-0.2-0.2-0.4-0.4-0.8-0.4
				c-0.3,0-0.6,0.1-1,0.4c-0.3,0.3-0.7,0.7-1,1.3c-0.5,0.8-0.8,1.6-1.1,2.4C344.8,93.1,344.7,93.9,344.7,94.6z"/>
			<path class="st3" d="M353.6,96.1h-1.3l1-3.7c0.3-1,0.5-1.7,0.6-2.4c0.1-0.6,0.2-1.1,0.2-1.4c0-0.2,0-0.3-0.1-0.4
				s-0.2-0.1-0.3-0.1c-0.3,0-0.5,0.2-0.8,0.7c-0.3,0.4-0.7,1.1-1,2l-0.3-0.2c0.4-1.1,0.8-1.9,1.2-2.4c0.4-0.5,0.9-0.8,1.4-0.8
				c0.3,0,0.6,0.1,0.8,0.4c0.2,0.3,0.3,0.6,0.3,1.1c0,0.2,0,0.5-0.1,0.9c0,0.3-0.1,0.8-0.2,1.2c0.5-1.2,1.1-2.1,1.7-2.7
				s1.2-0.9,1.8-0.9c0.3,0,0.6,0.1,0.8,0.4c0.2,0.2,0.3,0.6,0.3,1c0,0.2,0,0.5-0.1,0.8s-0.2,0.7-0.3,1.2c0.6-1.1,1.1-2,1.7-2.5
				c0.5-0.5,1.1-0.8,1.6-0.8c0.4,0,0.6,0.1,0.8,0.4c0.2,0.3,0.3,0.6,0.3,1.1c0,0.3,0,0.6-0.1,1s-0.2,0.8-0.3,1.3l-1.1,3.5
				c0,0.1-0.1,0.3-0.1,0.4s0,0.2,0,0.3c0,0.1,0,0.2,0.1,0.2c0.1,0.1,0.2,0.1,0.3,0.1c0.3,0,0.6-0.2,0.9-0.6s0.7-1.1,1.2-2l0.3,0.1
				c-0.4,1.1-0.9,1.8-1.3,2.3c-0.5,0.5-1,0.7-1.5,0.7c-0.3,0-0.6-0.1-0.8-0.4c-0.2-0.2-0.3-0.5-0.3-0.9c0-0.2,0-0.4,0.1-0.6
				c0-0.2,0.1-0.5,0.2-0.8l1.1-3.2c0.2-0.5,0.3-0.8,0.3-1.1c0.1-0.2,0.1-0.5,0.1-0.6c0-0.2,0-0.4-0.1-0.5s-0.2-0.2-0.4-0.2
				c-0.4,0-1,0.5-1.7,1.4c-0.7,1-1.2,2.1-1.7,3.4l-1,3.2h-1.3l1.7-5.6c0.1-0.5,0.3-0.9,0.3-1.2c0.1-0.3,0.1-0.5,0.1-0.7
				s0-0.4-0.1-0.4c-0.1-0.1-0.2-0.1-0.4-0.1c-0.4,0-1,0.4-1.6,1.3s-1.1,2-1.6,3.4L353.6,96.1z"/>
			<path class="st3" d="M371,93.8c-0.5,0.9-1.1,1.6-1.6,2c-0.6,0.4-1.2,0.6-1.9,0.6c-0.6,0-1.1-0.2-1.4-0.6s-0.5-1-0.5-1.7
				c0-0.6,0.1-1.2,0.3-1.8c0.2-0.6,0.5-1.2,0.8-1.8c0.6-0.9,1.2-1.7,1.9-2.2c0.7-0.6,1.3-0.8,1.9-0.8c0.4,0,0.8,0.1,1,0.4
				c0.3,0.3,0.4,0.6,0.4,1c0,0.8-0.4,1.5-1.2,2.2c-0.8,0.7-1.9,1.3-3.5,1.9l-0.1,0.6c-0.1,0.2-0.1,0.5-0.1,0.7s0,0.4,0,0.5
				c0,0.4,0.1,0.7,0.3,0.9c0.2,0.2,0.4,0.3,0.8,0.3s0.8-0.2,1.3-0.6s1-1,1.5-1.8L371,93.8z M367.3,92.5c1-0.4,1.9-1,2.6-1.7
				s1-1.4,1-2c0-0.3-0.1-0.5-0.2-0.6s-0.3-0.2-0.5-0.2c-0.5,0-1,0.4-1.6,1.3C368.1,90,367.6,91.1,367.3,92.5z"/>
			<path class="st3" d="M374.8,96.1h-1.4l1-3.4c0.2-0.8,0.4-1.6,0.6-2.3s0.2-1.3,0.2-1.7c0-0.2,0-0.3-0.1-0.4s-0.2-0.1-0.3-0.1
				c-0.3,0-0.6,0.2-0.9,0.6s-0.7,1.1-1.1,2.1l-0.3-0.1c0.4-1.1,0.8-1.9,1.3-2.4s1-0.8,1.5-0.8c0.3,0,0.6,0.1,0.8,0.4
				c0.2,0.3,0.3,0.6,0.3,1.1c0,0.3,0,0.6-0.1,1s-0.1,0.8-0.3,1.3c0.6-1.2,1.2-2.1,1.8-2.8c0.6-0.6,1.2-1,1.8-1
				c0.5,0,0.8,0.2,1.1,0.5c0.3,0.3,0.4,0.8,0.4,1.3c0,0.2,0,0.4-0.1,0.7c0,0.2-0.1,0.5-0.2,0.7l-1.3,3.9c0,0.2-0.1,0.3-0.1,0.5
				c0,0.1,0,0.3,0,0.3c0,0.1,0,0.3,0.1,0.3c0.1,0.1,0.2,0.1,0.3,0.1c0.3,0,0.6-0.2,1-0.6c0.3-0.4,0.7-1.1,1.1-2l0.3,0.2l-0.4,0.8
				c-0.3,0.7-0.7,1.2-1.1,1.6s-0.9,0.5-1.3,0.5s-0.7-0.1-0.9-0.4c-0.2-0.2-0.3-0.6-0.3-1c0-0.2,0-0.4,0.1-0.6c0-0.2,0.2-0.6,0.3-1.1
				l1-3c0.1-0.3,0.2-0.6,0.2-0.8c0.1-0.3,0.1-0.5,0.1-0.7s-0.1-0.4-0.2-0.6c-0.1-0.1-0.3-0.2-0.5-0.2c-0.3,0-0.5,0.1-0.8,0.3
				c-0.3,0.2-0.6,0.5-0.9,0.9c-0.9,1.1-1.6,2.7-2.3,4.8c-0.1,0.2-0.1,0.3-0.1,0.4L374.8,96.1z"/>
			<path class="st3" d="M385.1,88.2h-1.5v-0.4h1.6l0.7-2.5c0.1-0.2,0.1-0.3,0.2-0.4s0.2-0.1,0.3-0.1c0.3,0,0.5,0,0.6,0.1
				c0.1,0,0.1,0.1,0.1,0.2v0.1c0,0.1,0,0.1,0,0.2l-0.6,2.4h1.5v0.4h-1.6l-1.5,5.3c-0.1,0.5-0.2,0.8-0.3,1.1c0,0.2-0.1,0.4-0.1,0.6
				s0,0.3,0.1,0.4s0.2,0.2,0.4,0.2c0.3,0,0.6-0.2,0.9-0.6s0.6-1,1-2l0.4,0.1c-0.4,1.1-0.8,1.9-1.3,2.4c-0.4,0.5-0.9,0.7-1.5,0.7
				c-0.4,0-0.7-0.1-1-0.3c-0.2-0.2-0.3-0.6-0.3-1c0-0.2,0-0.4,0.1-0.6c0-0.2,0.1-0.5,0.2-0.8L385.1,88.2z"/>
			<path class="st3" d="M394.3,95.8c-0.1,0-0.1,0-0.2-0.1l-0.1-0.1c0-0.1,0-0.3,0.1-0.6c0.1-0.4,0.1-0.7,0.2-0.9
				c0-0.3,0.1-0.6,0.1-1.1s0.1-0.8,0.3-0.8c0.1,0,0.2,0.2,0.2,0.6c0,0.3,0.1,0.5,0.1,0.7c0.1,0.7,0.5,1.3,1.1,1.8s1.2,0.7,2,0.7
				c0.7,0,1.3-0.2,1.8-0.7s0.7-1,0.7-1.8c0-0.5-0.1-0.9-0.3-1.4c-0.2-0.5-0.6-0.9-1-1.3c0,0-0.1-0.1-0.2-0.2
				c-1.9-1.8-2.9-3.3-2.9-4.4c0-0.9,0.3-1.7,1-2.3c0.7-0.6,1.5-0.9,2.5-0.9c0.6,0,1.3,0.2,1.9,0.5s0.9,0.5,1,0.5s0.2-0.1,0.3-0.2
				c0.1-0.1,0.2-0.2,0.3-0.2c0.1,0,0.1,0,0.1,0.1c0,0,0.1,0.1,0.1,0.2c0,0,0,0.2-0.1,0.5s-0.2,0.7-0.3,1.1c0,0.2-0.1,0.5-0.1,0.9
				s-0.1,0.6-0.3,0.6c-0.1,0-0.1,0-0.1-0.1s0-0.2,0-0.3v-0.2c0-0.9-0.2-1.5-0.7-2s-1.1-0.8-1.9-0.8c-0.6,0-1.1,0.2-1.5,0.6
				s-0.6,0.9-0.6,1.5c0,0.4,0.1,0.8,0.4,1.2c0.3,0.4,0.6,0.9,1.1,1.3c1.3,1.2,2.1,2,2.5,2.7c0.4,0.6,0.6,1.2,0.6,1.9
				c0,1.2-0.3,2.2-1,2.8c-0.7,0.7-1.6,1-2.9,1c-0.4,0-0.8,0-1.2-0.1s-0.7-0.2-1-0.4c-0.2-0.1-0.4-0.2-0.7-0.4
				c-0.3-0.2-0.4-0.2-0.5-0.2s-0.2,0.1-0.3,0.2C394.5,95.7,394.4,95.8,394.3,95.8z"/>
			<path class="st3" d="M405.8,88.2h-1.5v-0.4h1.6l0.7-2.5c0.1-0.2,0.1-0.3,0.2-0.4s0.2-0.1,0.3-0.1c0.3,0,0.5,0,0.6,0.1
				c0.1,0,0.1,0.1,0.1,0.2v0.1c0,0.1,0,0.1,0,0.2l-0.6,2.4h1.5v0.4h-1.6l-1.5,5.3c-0.1,0.5-0.2,0.8-0.3,1.1c0,0.2-0.1,0.4-0.1,0.6
				s0,0.3,0.1,0.4s0.2,0.2,0.4,0.2c0.3,0,0.6-0.2,0.9-0.6s0.6-1,1-2l0.4,0.1c-0.4,1.1-0.8,1.9-1.3,2.4c-0.4,0.5-0.9,0.7-1.5,0.7
				c-0.4,0-0.7-0.1-1-0.3s-0.3-0.6-0.3-1c0-0.2,0-0.4,0.1-0.6c0-0.2,0.1-0.5,0.2-0.8L405.8,88.2z"/>
			<path class="st3" d="M416.4,87.7h1.4l-1,3.5c-0.2,0.8-0.4,1.6-0.6,2.3c-0.1,0.7-0.2,1.3-0.2,1.7c0,0.2,0,0.3,0.1,0.4
				s0.2,0.1,0.3,0.1c0.3,0,0.6-0.2,0.9-0.6s0.7-1.1,1.1-2.1l0.3,0.1c-0.4,1.1-0.8,1.9-1.3,2.4s-1,0.8-1.5,0.8
				c-0.3,0-0.6-0.1-0.8-0.4c-0.2-0.3-0.3-0.6-0.3-1.1c0-0.3,0-0.6,0.1-1s0.1-0.8,0.2-1.2c-0.6,1.2-1.2,2.1-1.8,2.8
				c-0.6,0.6-1.2,1-1.8,1c-0.5,0-0.8-0.2-1.1-0.5c-0.3-0.3-0.4-0.8-0.4-1.3c0-0.2,0-0.4,0.1-0.7c0-0.2,0.1-0.5,0.2-0.8l1.3-4
				c0.1-0.2,0.1-0.3,0.1-0.5c0-0.1,0-0.2,0-0.3c0-0.2,0-0.3-0.1-0.4s-0.2-0.1-0.3-0.1c-0.3,0-0.6,0.2-1,0.6c-0.3,0.4-0.7,1.1-1.2,2
				l-0.3-0.2l0.4-0.8c0.3-0.7,0.7-1.2,1.1-1.6s0.9-0.5,1.3-0.5s0.7,0.1,0.9,0.4c0.2,0.2,0.3,0.6,0.3,1c0,0.2,0,0.4-0.1,0.7
				c0,0.2-0.2,0.6-0.3,1.1l-1,3.1c-0.1,0.3-0.2,0.6-0.2,0.9c-0.1,0.2-0.1,0.5-0.1,0.6c0,0.2,0.1,0.4,0.2,0.6s0.3,0.2,0.5,0.2
				c0.3,0,0.5-0.1,0.8-0.3c0.3-0.2,0.6-0.5,0.9-0.9c0.9-1.1,1.6-2.7,2.3-4.8c0.1-0.2,0.1-0.3,0.1-0.4L416.4,87.7z"/>
			<path class="st3" d="M424.7,93.3c-0.4,1-0.8,1.8-1.3,2.3s-1.1,0.8-1.7,0.8c-0.7,0-1.2-0.2-1.5-0.7s-0.6-1.1-0.6-1.9
				c0-0.6,0.1-1.2,0.3-1.9c0.2-0.7,0.6-1.3,1-2c0.5-0.8,1.1-1.4,1.7-1.8s1.2-0.6,1.7-0.6c0.3,0,0.6,0.1,0.8,0.3
				c0.2,0.2,0.4,0.5,0.6,0.8l1.1-4.6v-0.1c0-0.1,0-0.2,0-0.3c0-0.2-0.1-0.3-0.2-0.4s-0.3-0.1-0.7-0.1c-0.1,0-0.2,0-0.3,0h-0.1
				l0.1-0.5l2.9-0.4l-2.2,8.3c-0.3,1-0.5,1.9-0.6,2.8c-0.2,0.8-0.2,1.4-0.2,1.7c0,0.2,0,0.3,0.1,0.5c0.1,0.1,0.2,0.2,0.3,0.2
				c0.3,0,0.5-0.2,0.8-0.7c0.3-0.4,0.6-1.1,1-2l0.3,0.1c-0.3,1-0.7,1.8-1.2,2.3s-1,0.8-1.5,0.8c-0.3,0-0.5-0.1-0.7-0.3
				c-0.2-0.2-0.3-0.5-0.3-0.8c0-0.2,0-0.4,0.1-0.7C424.5,94.3,424.6,93.9,424.7,93.3z M420.8,94.5c0,0.5,0.1,0.8,0.3,1.1
				c0.2,0.3,0.5,0.4,0.8,0.4c0.4,0,0.7-0.2,1.1-0.5c0.3-0.3,0.7-0.9,1.1-1.6c0.4-0.8,0.8-1.6,1-2.5c0.2-0.8,0.4-1.5,0.4-2.1
				c0-0.4-0.1-0.8-0.3-1c-0.2-0.2-0.4-0.4-0.7-0.4c-0.3,0-0.7,0.1-1,0.4s-0.7,0.7-1.1,1.4c-0.5,0.8-0.9,1.7-1.2,2.6
				C420.9,93.2,420.8,93.9,420.8,94.5z"/>
			<path class="st3" d="M430.2,92.4l0.7-1.8c0.2-0.5,0.4-0.9,0.5-1.3c0.1-0.3,0.1-0.6,0.1-0.8c0-0.1,0-0.2-0.1-0.3
				c-0.1-0.1-0.1-0.1-0.3-0.1c-0.2,0-0.5,0.2-0.9,0.6c-0.3,0.4-0.7,1-1,1.7l-0.3-0.1c0.4-0.9,0.8-1.6,1.2-2.1
				c0.4-0.5,0.8-0.7,1.3-0.7c0.4,0,0.6,0.1,0.9,0.4c0.2,0.2,0.3,0.6,0.3,1c0,0.3-0.1,0.7-0.2,1.1s-0.3,1-0.6,1.7l-0.6,1.5
				c-0.2,0.7-0.4,1.2-0.5,1.5s-0.2,0.6-0.2,0.7s0,0.2,0.1,0.3c0.1,0.1,0.2,0.1,0.3,0.1c0.3,0,0.6-0.2,0.9-0.6s0.7-1,1.2-2l0.3,0.2
				c-0.4,1-0.9,1.7-1.3,2.2s-0.9,0.7-1.4,0.7c-0.4,0-0.7-0.1-0.9-0.3c-0.2-0.2-0.3-0.6-0.3-1c0-0.3,0.1-0.7,0.2-1.1
				S429.9,93.1,430.2,92.4z M431.9,83.7c0-0.2,0.1-0.4,0.2-0.6c0.2-0.2,0.4-0.2,0.6-0.2s0.4,0.1,0.6,0.2c0.2,0.2,0.2,0.3,0.2,0.6
				c0,0.2-0.1,0.4-0.2,0.6c-0.2,0.2-0.4,0.2-0.6,0.2s-0.4-0.1-0.6-0.2C431.9,84.1,431.9,83.9,431.9,83.7z"/>
			<path class="st3" d="M437,96.4c-0.8,0-1.4-0.2-1.9-0.7s-0.7-1.2-0.7-2.1c0-0.7,0.1-1.5,0.4-2.2c0.2-0.7,0.6-1.4,1-2
				s0.9-1.1,1.5-1.4c0.5-0.3,1.1-0.5,1.6-0.5c0.7,0,1.3,0.3,1.8,0.9c0.4,0.6,0.7,1.3,0.7,2.3c0,0.8-0.1,1.5-0.4,2.2
				c-0.2,0.7-0.6,1.4-1.1,2c-0.4,0.5-0.8,0.9-1.3,1.2C438.1,96.3,437.5,96.4,437,96.4z M435.7,94.4c0,0.5,0.1,0.9,0.4,1.2
				c0.2,0.3,0.6,0.4,1,0.4s0.7-0.1,1-0.4s0.6-0.7,0.8-1.2c0.4-0.8,0.6-1.6,0.8-2.4c0.2-0.9,0.3-1.6,0.3-2.3c0-0.6-0.1-1.1-0.3-1.4
				c-0.2-0.3-0.5-0.5-0.9-0.5s-0.8,0.2-1.1,0.5c-0.4,0.3-0.7,0.9-1,1.5c-0.3,0.7-0.6,1.5-0.8,2.3C435.8,93.1,435.7,93.8,435.7,94.4z
				"/>
		</g>
		<g>
			<path class="st1" d="M150,41.9v26.7h-5.4V41.9H150z"/>
			<path class="st1" d="M177.1,41.9v26.7H173l-14.1-17.3v17.3h-5.4V41.9h4.1L171.7,59V41.9H177.1z"/>
			<path class="st1" d="M204.2,41.9v26.7h-4.1L186,51.3v17.3h-5.4V41.9h4.1L198.8,59V41.9H204.2z"/>
			<path class="st1" d="M219.7,69.2c-3.9,0-7.2-1.3-9.7-4c-2.5-2.7-3.8-6-3.8-9.9s1.3-7.2,3.8-9.9s5.8-4,9.7-4c4,0,7.3,1.3,9.8,4
				s3.8,6,3.8,9.9s-1.3,7.2-3.8,9.9C227,67.8,223.7,69.2,219.7,69.2z M219.7,64c2.3,0,4.3-0.8,5.8-2.5c1.5-1.6,2.2-3.7,2.2-6.3
				c0-2.5-0.7-4.6-2.2-6.3c-1.5-1.6-3.4-2.5-5.8-2.5c-2.3,0-4.2,0.8-5.7,2.5s-2.2,3.7-2.2,6.3c0,2.5,0.7,4.6,2.2,6.3
				S217.4,64,219.7,64z"/>
			<path class="st1" d="M241.6,68.6L231,41.9h5.7l7.6,20.7l7.7-20.7h5.7l-10.6,26.7C247.1,68.6,241.6,68.6,241.6,68.6z"/>
			<path class="st1" d="M269.2,41.9l10.6,26.7H274l-1.9-5.2h-11.5l-1.9,5.2H253l10.6-26.7C263.6,41.9,269.2,41.9,269.2,41.9z
				 M266.3,47.9l-4.1,11.2h8.3L266.3,47.9z"/>
			<path class="st1" d="M275.1,46.6v-4.7h21.2v4.7h-8v22H283v-22H275.1z"/>
			<path class="st1" d="M302.7,41.9v26.7h-5.4V41.9H302.7z"/>
			<path class="st1" d="M318.3,69.2c-3.9,0-7.2-1.3-9.7-4c-2.5-2.7-3.8-6-3.8-9.9s1.3-7.2,3.8-9.9s5.8-4,9.7-4c4,0,7.3,1.3,9.8,4
				s3.8,6,3.8,9.9s-1.3,7.2-3.8,9.9C325.6,67.8,322.3,69.2,318.3,69.2z M318.3,64c2.3,0,4.3-0.8,5.8-2.5c1.5-1.6,2.2-3.7,2.2-6.3
				c0-2.5-0.7-4.6-2.2-6.3c-1.5-1.6-3.4-2.5-5.8-2.5c-2.3,0-4.2,0.8-5.7,2.5s-2.2,3.7-2.2,6.3c0,2.5,0.7,4.6,2.2,6.3
				C314.1,63.2,316,64,318.3,64z"/>
			<path class="st1" d="M357.4,41.9v26.7h-4.1l-14.1-17.3v17.3h-5.4V41.9h4.1L352,59V41.9H357.4z"/>
			<path class="st1" d="M391.2,41.9v26.7h-5.4V57.5h-12.3v11.1h-5.4V41.9h5.4v11.2h12.3V41.9H391.2z"/>
			<path class="st1" d="M405.9,69.2c-3.5,0-6.2-1.1-8.3-3.4c-2.1-2.3-3.1-5.1-3.1-8.6V41.9h5.4v15.3c0,2,0.5,3.7,1.6,4.9
				c1.1,1.3,2.6,1.9,4.5,1.9c2,0,3.5-0.6,4.6-1.9c1-1.2,1.5-2.9,1.5-4.9V41.9h5.4v15.3c0,3.5-1,6.4-3.1,8.6
				C412.2,68.1,409.4,69.2,405.9,69.2z"/>
			<path class="st1" d="M442.6,60.8c0,2.5-0.9,4.4-2.6,5.8c-1.7,1.3-4.1,2-7.1,2h-12.4V41.9h12c3,0,5.3,0.6,6.9,1.9
				c1.6,1.3,2.4,3,2.4,5.4c0,1.2-0.3,2.3-0.9,3.3s-1.4,1.7-2.5,2.3V55c1.3,0.4,2.3,1.1,3.1,2.1C442.3,58.1,442.6,59.3,442.6,60.8z
				 M436.2,49.9c0-1-0.3-1.8-1-2.4c-0.7-0.6-1.6-0.9-2.7-0.9H426V53h6.5c1.1,0,2-0.3,2.7-0.9C435.9,51.5,436.2,50.7,436.2,49.9z
				 M432.9,57.2h-7v6.7h7c1.2,0,2.1-0.3,2.8-0.9c0.7-0.6,1.1-1.4,1.1-2.4c0-0.9-0.4-1.7-1.1-2.4C435,57.5,434.1,57.2,432.9,57.2z"/>
		</g>
	</g>
	<g>
		<g>
			<g>
				<g>
					<path class="st3" d="M467.2,43.3c0,0.3-0.3,0.6-0.6,0.6c-0.3,0-0.6-0.3-0.6-0.6s0.3-0.6,0.6-0.6
						C466.9,42.7,467.2,42.9,467.2,43.3z"/>
					<circle class="st3" cx="474.3" cy="43.3" r="1.1"/>
					<path class="st3" d="M483.7,43.3c0,0.8-0.7,1.5-1.5,1.5s-1.5-0.7-1.5-1.5s0.7-1.5,1.5-1.5S483.7,42.4,483.7,43.3z"/>
					<path class="st3" d="M491.8,43.3c0,1-0.8,1.9-1.9,1.9c-1,0-1.9-0.8-1.9-1.9c0-1,0.8-1.9,1.9-1.9
						C491,41.4,491.8,42.2,491.8,43.3z"/>
					<path class="st3" d="M499.8,43.3c0,1.2-1,2.1-2.1,2.1c-1.2,0-2.1-1-2.1-2.1c0-1.2,1-2.1,2.1-2.1
						C498.9,41.1,499.8,42.1,499.8,43.3z"/>
					<circle class="st3" cx="505.5" cy="43.3" r="2.4"/>
					<path class="st3" d="M515.8,43.3c0,1.4-1.1,2.5-2.5,2.5c-1.4,0-2.5-1.1-2.5-2.5s1.1-2.5,2.5-2.5
						C514.7,40.7,515.8,41.9,515.8,43.3z"/>
					<path class="st3" d="M523.5,43.3c0,1.4-1.1,2.5-2.5,2.5s-2.5-1.1-2.5-2.5s1.1-2.5,2.5-2.5S523.5,41.9,523.5,43.3z"/>
					<circle class="st3" cx="552.1" cy="43.3" r="2.5"/>
					<path class="st3" d="M562.5,43.3c0,1.4-1.1,2.6-2.6,2.6c-1.4,0-2.6-1.1-2.6-2.6s1.1-2.6,2.6-2.6
						C561.3,40.7,562.5,41.9,562.5,43.3z"/>
					<path class="st3" d="M570.1,43.3c0,1.3-1.1,2.4-2.4,2.4c-1.3,0-2.4-1.1-2.4-2.4c0-1.3,1.1-2.4,2.4-2.4
						C569,40.9,570.1,42,570.1,43.3z"/>
					<circle class="st3" cx="575.5" cy="43.3" r="2.2"/>
					<path class="st3" d="M585.2,43.3c0,1-0.8,1.9-1.9,1.9s-1.9-0.8-1.9-1.9c0-1,0.8-1.9,1.9-1.9S585.2,42.2,585.2,43.3z"/>
					<path class="st3" d="M592.6,43.3c0,0.9-0.7,1.5-1.5,1.5s-1.5-0.7-1.5-1.5c0-0.9,0.7-1.5,1.5-1.5S592.6,42.4,592.6,43.3z"/>
					<path class="st3" d="M599.9,43.3c0,0.6-0.5,1.1-1.1,1.1s-1.1-0.5-1.1-1.1s0.5-1.1,1.1-1.1S599.9,42.7,599.9,43.3z"/>
					<circle class="st3" cx="606.6" cy="43.3" r="0.6"/>
				</g>
			</g>
			<g>
				<g>
					<g>
						
							<ellipse transform="matrix(0.9999 -0.0172 0.0172 0.9999 -0.8067 9.9844)" class="st1" cx="578.93" cy="51.8" rx="1.4" ry="1.4"/>
						<ellipse class="st1" cx="572.34" cy="51.8" rx="2" ry="2"/>
						<circle class="st1" cx="565.9" cy="51.8" r="2.2"/>
						<ellipse class="st1" cx="559.4" cy="51.8" rx="2" ry="2"/>
						<circle class="st3" cx="552.8" cy="51.8" r="1.4"/>
					</g>
				</g>
				<g>
					<g>
						<g>
							
								<ellipse transform="matrix(0.3176 -0.9482 0.9482 0.3176 332.065 591.265)" class="st1" cx="576.83" cy="64.92" rx="1.4" ry="1.4"/>
							<ellipse class="st1" cx="570.63" cy="62.92" rx="2" ry="2"/>
							
								<ellipse transform="matrix(0.2941 -0.9558 0.9558 0.2941 340.251 582.4757)" class="st1" cx="564.45" cy="60.89" rx="2.2" ry="2.2"/>
							<ellipse class="st1" cx="558.27" cy="58.93" rx="2" ry="2"/>
							
								<ellipse transform="matrix(0.3211 -0.9471 0.9471 0.3211 321.0601 561.451)" class="st3" cx="552.13" cy="56.79" rx="1.4" ry="1.4"/>
						</g>
					</g>
				</g>
				<g>
					<g>
						<g>
							
								<ellipse transform="matrix(0.6066 -0.795 0.795 0.6066 163.5756 483.9955)" class="st1" cx="570.83" cy="76.71" rx="1.4" ry="1.4"/>
							<ellipse class="st1" cx="565.54" cy="72.92" rx="2" ry="2"/>
							
								<ellipse transform="matrix(0.594 -0.8044 0.8044 0.594 171.9291 478.6858)" class="st1" cx="560.23" cy="69" rx="2.2" ry="2.2"/>
							<ellipse class="st1" cx="554.99" cy="65.23" rx="2" ry="2"/>
							
								<ellipse transform="matrix(0.6297 -0.7769 0.7769 0.6297 155.8828 449.8146)" class="st3" cx="549.74" cy="61.41" rx="1.4" ry="1.4"/>
						</g>
					</g>
				</g>
				<g>
					<g>
						<g>
							<path class="st1" d="M560.6,84.9c0.6-0.4,1.4-0.3,1.9,0.3s0.3,1.4-0.3,1.9s-1.4,0.3-1.9-0.3C559.9,86.2,560,85.4,560.6,84.9z
								"/>
							<ellipse class="st1" cx="557.61" cy="80.79" rx="2" ry="2"/>
							
								<ellipse transform="matrix(0.8133 -0.5819 0.5819 0.8133 59.4811 336.3507)" class="st1" cx="553.81" cy="75.5" rx="2.2" ry="2.2"/>
							<ellipse class="st1" cx="549.97" cy="70.2" rx="2" ry="2"/>
							<path class="st3" d="M545.3,63.9c0.6-0.4,1.5-0.3,1.9,0.3c0.4,0.6,0.3,1.5-0.3,1.9s-1.5,0.3-1.9-0.3S544.7,64.3,545.3,63.9z"
								/>
						</g>
					</g>
				</g>
				<g>
					<g>
						<g>
							
								<ellipse transform="matrix(0.9524 -0.3049 0.3049 0.9524 -1.8847 171.9504)" class="st1" cx="549.6" cy="92.01" rx="1.4" ry="1.4"/>
							<ellipse class="st1" cx="547.63" cy="85.92" rx="2" ry="2"/>
							
								<ellipse transform="matrix(0.968 -0.2509 0.2509 0.968 -2.5452 139.4427)" class="st1" cx="545.6" cy="79.7" rx="2.2" ry="2.2"/>
							<ellipse class="st1" cx="543.61" cy="73.49" rx="2" ry="2"/>
							<path class="st3" d="M541.2,66c0.7-0.2,1.5,0.2,1.7,0.9c0.2,0.7-0.2,1.5-0.9,1.7s-1.5-0.2-1.7-0.9
								C540.1,67,540.5,66.2,541.2,66z"/>
						</g>
					</g>
				</g>
				<g>
					<g>
						<g>
							
								<ellipse transform="matrix(0.9999 -0.0173 0.0173 0.9999 -1.5435 9.2712)" class="st1" cx="536.63" cy="94.1" rx="1.4" ry="1.4"/>
							<ellipse class="st1" cx="536.57" cy="87.6" rx="2" ry="2"/>
							<circle class="st1" cx="536.6" cy="81.1" r="2.2"/>
							<ellipse class="st1" cx="536.61" cy="74.6" rx="2" ry="2"/>
							<path class="st3" d="M536.6,66.7c0.7,0,1.4,0.6,1.4,1.4c0,0.7-0.6,1.4-1.4,1.4c-0.7,0-1.4-0.6-1.4-1.4
								C535.2,67.3,535.8,66.7,536.6,66.7z"/>
						</g>
					</g>
				</g>
				<g>
					<g>
						<g>
							
								<ellipse transform="matrix(0.3145 -0.9493 0.9493 0.3145 271.4961 560.0035)" class="st1" cx="523.48" cy="92.03" rx="1.4" ry="1.4"/>
							<ellipse class="st1" cx="525.54" cy="85.9" rx="2" ry="2"/>
							
								<ellipse transform="matrix(0.2649 -0.9643 0.9643 0.2649 310.9598 567.2995)" class="st1" cx="527.56" cy="79.7" rx="2.2" ry="2.2"/>
							<ellipse class="st1" cx="529.54" cy="73.54" rx="2" ry="2"/>
							
								<ellipse transform="matrix(0.3503 -0.9366 0.9366 0.3503 282.3446 541.5923)" class="st3" cx="531.57" cy="67.27" rx="1.4" ry="1.4"/>
						</g>
					</g>
				</g>
				<g>
					<g>
						<g>
							<path class="st1" d="M510.55,85.23c0.44-0.64,1.31-0.79,1.95-0.35c0.64,0.44,0.79,1.31,0.35,1.95
								c-0.44,0.64-1.31,0.79-1.95,0.35C510.26,86.74,510.1,85.87,510.55,85.23z"/>
							<ellipse class="st1" cx="515.61" cy="80.76" rx="2" ry="2"/>
							
								<ellipse transform="matrix(0.554 -0.8325 0.8325 0.554 168.7921 466.053)" class="st1" cx="519.38" cy="75.49" rx="2.2" ry="2.2"/>
							<ellipse class="st1" cx="523.16" cy="70.23" rx="2" ry="2"/>
							
								<ellipse transform="matrix(0.6101 -0.7923 0.7923 0.6101 153.968 442.8914)" class="st3" cx="527" cy="65" rx="1.4" ry="1.4"/>
						</g>
					</g>
				</g>
				<g>
					<g>
						<g>
							<path class="st1" d="M503.5,75.9c0.4,0.6,0.3,1.4-0.3,1.9c-0.6,0.4-1.4,0.3-1.9-0.3s-0.3-1.4,0.3-1.9
								C502.2,75.2,503,75.3,503.5,75.9z"/>
							<ellipse class="st1" cx="507.64" cy="72.91" rx="2" ry="2"/>
							
								<ellipse transform="matrix(0.8325 -0.554 0.554 0.8325 47.6696 295.6948)" class="st1" cx="512.87" cy="69.01" rx="2.2" ry="2.2"/>
							<ellipse class="st1" cx="518.18" cy="65.2" rx="2" ry="2"/>
							
								<ellipse transform="matrix(0.7925 -0.6098 0.6098 0.7925 71.124 331.9279)" class="st3" cx="523.4" cy="61.43" rx="1.4" ry="1.4"/>
						</g>
					</g>
				</g>
				<g>
					<g>
						<g>
							<path class="st1" d="M497.6,64.5c0.2,0.7-0.2,1.5-0.9,1.7c-0.7,0.2-1.5-0.2-1.7-0.9c-0.2-0.7,0.2-1.5,0.9-1.7
								C496.7,63.4,497.4,63.8,497.6,64.5z"/>
							<ellipse class="st1" cx="502.59" cy="62.88" rx="2" ry="2"/>
							
								<ellipse transform="matrix(0.9281 -0.3724 0.3724 0.9281 13.8974 193.8304)" class="st1" cx="508.73" cy="60.94" rx="2.2" ry="2.2"/>
							<ellipse class="st1" cx="514.89" cy="58.9" rx="2" ry="2"/>
							
								<ellipse transform="matrix(0.9451 -0.3267 0.3267 0.9451 10.0074 173.3702)" class="st3" cx="521.1" cy="56.89" rx="1.4" ry="1.4"/>
						</g>
					</g>
				</g>
				<g>
					<g>
						
							<ellipse transform="matrix(0.0161 -0.9999 0.9999 0.0161 434.5032 545.1779)" class="st1" cx="494.27" cy="51.81" rx="1.4" ry="1.4"/>
						<ellipse class="st1" cx="500.82" cy="51.8" rx="2" ry="2"/>
						
							<ellipse transform="matrix(0.0333 -0.9994 0.9994 0.0333 438.5702 557.1272)" class="st1" cx="507.28" cy="51.86" rx="2.2" ry="2.2"/>
						<ellipse class="st1" cx="513.79" cy="51.84" rx="2" ry="2"/>
						
							<ellipse transform="matrix(0.0217 -0.9998 0.9998 0.0217 457.1794 570.8704)" class="st3" cx="520.29" cy="51.82" rx="1.4" ry="1.4"/>
					</g>
				</g>
			</g>
		</g>
	</g>
</g>
</svg>
