<?xml version="1.0" encoding="utf-8"?>
<!-- Generator: Adobe Illustrator 27.0.0, SVG Export Plug-In . SVG Version: 6.00 Build 0)  -->
<svg version="1.1" id="Layer_2_00000111904941983279577700000015007418608595135623_"
	 xmlns="http://www.w3.org/2000/svg" xmlns:xlink="http://www.w3.org/1999/xlink" x="0px" y="0px" viewBox="0 0 300 60"
	 style="enable-background:new 0 0 300 60;" xml:space="preserve">
<style type="text/css">
	.st0{fill:#232458;}
	.st1{fill:#FFFFFF;}
	.st2{fill:#BC994E;}
</style>
<g>
	<g>
		<rect x="62.8" y="13.5" class="st0" width="0.9" height="34.5"/>
		<path class="st0" d="M51.9,50c0.1-0.3,0.2-0.9,0.5-0.9c0.1,0,0.2,0.1,0.2,0.2C52.6,49.7,52.2,50,51.9,50L51.9,50L51.9,50z
			 M48.8,51h0.5l0.2-0.6c0.1-0.2,0.2-0.5,0.3-0.7c0.1-0.1,0.3-0.3,0.4-0.3c0.1,0,0.1,0.1,0.1,0.1c0,0.1-0.1,0.3-0.1,0.3l-0.1,0.5
			c0,0.1-0.1,0.3-0.1,0.4c0,0.2,0.1,0.3,0.3,0.3c0.3,0,0.6-0.4,0.7-0.7l-0.1,0c-0.1,0.1-0.2,0.4-0.4,0.4c-0.1,0-0.1-0.1-0.1-0.1
			c0-0.1,0.1-0.2,0.1-0.3l0.1-0.5c0-0.1,0.1-0.3,0.1-0.4c0-0.2-0.1-0.4-0.4-0.4c-0.4,0-0.6,0.3-0.8,0.6l0.4-1.7L49.2,48l0,0.1
			c0.1,0,0.3,0,0.3,0.2c0,0.1-0.1,0.5-0.1,0.6L48.8,51L48.8,51L48.8,51z M48.5,48.4h-0.4l-0.2,0.7h-0.4l0,0.2h0.3L47.6,50
			c0,0.2-0.1,0.5-0.1,0.7c0,0.2,0.2,0.4,0.4,0.4c0.3,0,0.6-0.4,0.7-0.7l-0.1,0l0,0.1c-0.1,0.1-0.2,0.4-0.4,0.4
			c-0.1,0-0.1-0.1-0.1-0.2c0-0.1,0.1-0.4,0.1-0.5l0.2-0.8h0.4l0-0.2h-0.4L48.5,48.4L48.5,48.4L48.5,48.4z M45.6,49.3H46l0-0.2h-0.4
			c0-0.2,0.1-0.5,0.2-0.7c0-0.1,0.1-0.2,0.2-0.2c0.2,0,0.1,0.3,0.4,0.3c0.1,0,0.2-0.1,0.2-0.2c0-0.2-0.3-0.3-0.4-0.3
			c-0.6,0-0.9,0.6-1,1.2h-0.4l0,0.2h0.4L44.7,51c-0.1,0.3-0.1,0.5-0.2,0.8c0,0.1,0,0.2-0.2,0.2c-0.1,0-0.1-0.1-0.1-0.1
			c0-0.1-0.1-0.2-0.2-0.2c-0.1,0-0.2,0.1-0.2,0.2c0,0.2,0.2,0.3,0.4,0.3c0.5,0,0.7-0.5,0.8-0.9L45.6,49.3L45.6,49.3L45.6,49.3z
			 M43.7,49.2c0.2,0,0.2,0.1,0.2,0.3c0,0.3-0.2,1.4-0.6,1.4c-0.2,0-0.2-0.2-0.2-0.3c0-0.2,0.1-0.6,0.2-0.8
			C43.3,49.5,43.4,49.2,43.7,49.2L43.7,49.2z M52.7,50.4c-0.1,0.2-0.3,0.4-0.6,0.4c-0.2,0-0.3-0.2-0.3-0.3c0-0.1,0-0.2,0-0.3
			c0.4-0.1,1.2-0.3,1.2-0.8c0-0.3-0.3-0.4-0.5-0.4c-0.7,0-1.2,0.7-1.2,1.3c0,0.4,0.2,0.7,0.6,0.7c0.4,0,0.7-0.3,0.9-0.6L52.7,50.4
			L52.7,50.4L52.7,50.4z M40.1,49.6l0.9-1.4c0.1-0.2,0.2-0.3,0.4-0.4v-0.2c-0.2,0-0.4,0-0.6,0c-0.2,0-0.3,0-0.5,0v0.2
			c0.2,0,0.4,0,0.4,0.3c0,0.1-0.1,0.4-0.2,0.5L40,49.4l-0.5-0.9c-0.1-0.1-0.2-0.3-0.2-0.4c0-0.2,0.2-0.2,0.4-0.2v-0.2
			c-0.3,0-0.6,0-0.9,0c-0.3,0-0.5,0-0.8,0v0.2c0.3,0.1,0.3,0.1,0.4,0.3l0.9,1.6v0.4c0,0.4,0,0.6-0.5,0.6V51c0.3,0,0.5,0,0.8,0
			c0.3,0,0.6,0,1,0v-0.2c-0.5,0-0.5-0.2-0.5-0.6V49.6L40.1,49.6L40.1,49.6z M37.4,47.6h-3.3l0,1h0.2c0.1-0.4,0.3-0.7,0.8-0.7
			c0.3,0,0.3,0,0.3,0.4v1.9c0,0.4,0,0.7-0.5,0.6V51c0.3,0,0.6,0,0.9,0c0.3,0,0.6,0,0.9,0v-0.2c-0.5,0-0.5-0.2-0.5-0.6v-1.9
			c0-0.4,0-0.4,0.3-0.4c0.4,0,0.7,0.3,0.8,0.7h0.2L37.4,47.6L37.4,47.6z M32.1,50.2c0,0.4,0,0.7-0.5,0.6V51c0.3,0,0.6,0,0.8,0
			c0.3,0,0.6,0,0.9,0v-0.2c-0.5,0-0.5-0.2-0.5-0.6v-1.7c0-0.4,0-0.7,0.5-0.6v-0.2c-0.3,0-0.6,0-0.9,0c-0.3,0-0.6,0-0.8,0v0.2
			c0.5,0,0.5,0.2,0.5,0.6L32.1,50.2C32.1,50.2,32.1,50.2,32.1,50.2z M43.3,51c0.6,0,1.1-0.6,1.1-1.2c0-0.4-0.3-0.8-0.7-0.8
			c-0.6,0-1.1,0.6-1.1,1.2C42.5,50.7,42.8,51,43.3,51L43.3,51z M28.7,50.7c0.2,0.2,0.6,0.3,0.9,0.3c0.6,0,1.2-0.4,1.2-1
			c0-0.7-0.5-0.9-1.1-1.1c-0.3-0.1-0.7-0.2-0.7-0.6c0-0.3,0.3-0.4,0.5-0.4c0.4,0,0.7,0.3,0.8,0.7h0.2l0-0.9h-0.2l-0.1,0.2
			c-0.2-0.2-0.5-0.2-0.8-0.2c-0.6,0-1.1,0.3-1.1,1c0,0.6,0.4,0.8,0.8,1c0.4,0.2,0.9,0.3,0.9,0.8c0,0.3-0.3,0.5-0.6,0.5
			c-0.6,0-0.8-0.4-0.9-0.9h-0.2V51h0.2L28.7,50.7L28.7,50.7L28.7,50.7z M26.4,49.3c0.4-0.1,0.8-0.4,0.8-0.8c0-0.4-0.2-0.6-0.5-0.8
			c-0.2-0.1-0.6-0.1-0.8-0.1c-0.3,0-0.6,0-0.8,0c-0.3,0-0.6,0-0.9,0v0.2c0.5,0,0.5,0.2,0.5,0.6v1.7c0,0.4,0,0.7-0.5,0.6V51
			c0.3,0,0.6,0,0.9,0c0.3,0,0.6,0,0.9,0v-0.2c-0.5,0-0.5-0.2-0.5-0.6v-0.7c0,0,0.1,0,0.1,0c0.1,0,0.4,0.2,0.5,0.5l0.7,1
			c0.2,0,0.3,0,0.5,0c0.2,0,0.3,0,0.5,0v-0.2c-0.1,0-0.2-0.1-0.3-0.2c-0.1-0.1-0.2-0.3-0.3-0.4L26.4,49.3L26.4,49.3L26.4,49.3z
			 M20.4,51c0.3,0,0.6,0,0.9,0c0.7,0,1.4,0,2.1,0c0-0.1,0-0.3,0-0.4c0-0.2,0-0.4,0-0.6h-0.2c-0.1,0.6-0.4,0.7-0.9,0.7
			s-0.6-0.3-0.6-0.8v-0.6c0.5,0,0.6,0.1,0.7,0.5h0.2c0-0.2,0-0.4,0-0.6c0-0.2,0-0.5,0-0.7h-0.2c0,0.5-0.3,0.5-0.7,0.5v-0.9
			c0,0,0-0.3,0-0.3c0-0.1,0.4-0.1,0.4-0.1c0.5,0,0.8,0.2,0.9,0.7h0.2l0-0.9c-0.6,0-1.3,0-1.9,0c-0.3,0-0.6,0-0.9,0v0.2
			c0.5,0,0.5,0.2,0.5,0.6v1.7c0,0.4,0,0.7-0.5,0.6L20.4,51L20.4,51L20.4,51z M18.1,51l1.1-2.7c0.1-0.3,0.2-0.5,0.6-0.5v-0.2
			c-0.2,0-0.4,0-0.7,0c-0.2,0-0.4,0-0.6,0v0.2c0.2,0,0.4,0,0.4,0.3c0,0.2-0.1,0.6-0.2,0.8l-0.5,1.2l-0.6-1.7c0-0.1-0.1-0.3-0.1-0.3
			c0-0.2,0.3-0.2,0.4-0.2v-0.2c-0.3,0-0.6,0-0.9,0c-0.3,0-0.6,0-0.8,0v0.2c0.4,0.1,0.4,0.1,0.6,0.5l1.1,2.7L18.1,51L18.1,51z
			 M25.4,49.3v-0.9c0-0.1,0-0.4,0-0.5c0-0.1,0.2-0.1,0.2-0.1c0.5,0,0.7,0.2,0.7,0.7c0,0.5-0.3,0.7-0.7,0.7H25.4L25.4,49.3z
			 M14.4,50.2c0,0.4,0,0.7-0.5,0.6V51c0.3,0,0.6,0,0.8,0c0.3,0,0.6,0,0.9,0v-0.2c-0.5,0-0.5-0.2-0.5-0.6v-1.7c0-0.4,0-0.7,0.5-0.6
			v-0.2c-0.3,0-0.6,0-0.9,0c-0.3,0-0.6,0-0.8,0v0.2c0.5,0,0.5,0.2,0.5,0.6V50.2L14.4,50.2z M12.5,51.1h0.3v-2.4c0-0.2,0-0.5,0.1-0.6
			c0.1-0.1,0.2-0.2,0.4-0.2v-0.2c-0.2,0-0.4,0-0.6,0c-0.2,0-0.4,0-0.6,0v0.2c0.5,0,0.5,0.4,0.5,0.8v1.3l-2-2.3c-0.2,0-0.4,0-0.6,0
			c-0.2,0-0.3,0-0.5,0v0.2c0.3,0,0.4,0.1,0.5,0.3v2c0,0.4,0,0.6-0.5,0.6V51c0.2,0,0.4,0,0.6,0c0.2,0,0.4,0,0.6,0v-0.2
			c-0.5,0-0.5-0.4-0.5-0.8v-1.6L12.5,51.1L12.5,51.1z M4.8,47.8c0.5,0,0.5,0.2,0.5,0.6v1.2c0,1.1,0.6,1.4,1.5,1.4s1.4-0.5,1.4-1.4
			v-0.9c0-0.2,0-0.5,0.1-0.7c0.1-0.1,0.2-0.2,0.4-0.2v-0.2c-0.2,0-0.4,0-0.6,0c-0.2,0-0.4,0-0.6,0v0.2c0.2,0,0.3,0.1,0.4,0.2
			C8,48.2,8,48.5,8,48.7v1.1c0,0.6-0.3,0.9-1,0.9c-0.7,0-0.9-0.4-0.9-1v-1.2c0-0.4,0-0.7,0.5-0.6v-0.2c-0.3,0-0.6,0-1,0
			c-0.3,0-0.5,0-0.8,0V47.8C4.8,47.8,4.8,47.8,4.8,47.8z M49.7,57.1c0.3,0,0.6,0,0.9,0c0.7,0,1.4,0,2.1,0c0-0.1,0-0.3,0-0.4
			c0-0.2,0-0.4,0-0.6h-0.2c-0.1,0.6-0.4,0.7-0.9,0.7c-0.6,0-0.6-0.3-0.6-0.8v-0.6c0.5,0,0.6,0.1,0.7,0.5h0.2c0-0.2,0-0.4,0-0.6
			c0-0.2,0-0.5,0-0.7h-0.2c0,0.5-0.3,0.5-0.7,0.5v-0.9c0,0,0-0.3,0-0.3c0-0.1,0.4-0.1,0.4-0.1c0.5,0,0.8,0.2,0.9,0.7h0.2l0-0.9
			c-0.6,0-1.3,0-1.9,0c-0.3,0-0.6,0-0.9,0v0.2c0.5,0,0.5,0.2,0.5,0.6v1.7c0,0.4,0,0.7-0.5,0.6L49.7,57.1L49.7,57.1L49.7,57.1z
			 M47,55.4v-1.1c0-0.3,0-0.2,0.3-0.2c0.4,0,0.6,0.3,0.6,0.7c0,0.5-0.3,0.7-0.8,0.7L47,55.4L47,55.4z M42.4,55.8l0.5-1.2l0.5,1.2
			H42.4L42.4,55.8z M46.2,56.3c0,0.4,0,0.7-0.5,0.6v0.2c0.3,0,0.6,0,0.8,0c0.3,0,0.6,0,0.9,0v-0.2C47,57,47,56.8,47,56.3v-0.7h0.5
			c0.6,0,1.3-0.2,1.3-0.9c0-0.8-0.8-0.9-1.4-0.9c-0.3,0-0.5,0-0.8,0c-0.3,0-0.6,0-0.9,0V54c0.5,0,0.5,0.2,0.5,0.6L46.2,56.3
			L46.2,56.3L46.2,56.3z M42.3,56.1h1.1l0.1,0.3c0,0.1,0.1,0.3,0.1,0.3c0,0.2-0.3,0.2-0.4,0.2v0.2c0.3,0,0.5,0,0.8,0
			c0.3,0,0.6,0,0.9,0v-0.2c-0.1,0-0.3,0-0.3-0.1c-0.1-0.1-0.2-0.4-0.3-0.5l-1.1-2.6h-0.2l-1,2.4c-0.1,0.3-0.3,0.8-0.7,0.8v0.2
			c0.2,0,0.4,0,0.6,0c0.2,0,0.4,0,0.6,0v-0.2c-0.2,0-0.4,0-0.4-0.3c0-0.1,0.1-0.3,0.1-0.4L42.3,56.1L42.3,56.1L42.3,56.1z
			 M40.4,57.1h0.2V56h-0.2c-0.1,0.5-0.4,1-1,1c-0.8,0-1.1-0.8-1.1-1.5c0-0.6,0.2-1.5,1-1.5c0.5,0,0.9,0.4,1,0.8h0.2l0-1.1h-0.2
			L40.3,54c-0.3-0.2-0.6-0.3-1-0.3c-1,0-1.8,0.8-1.8,1.8s0.7,1.7,1.7,1.7c0.4,0,0.8-0.1,1.1-0.4L40.4,57.1L40.4,57.1L40.4,57.1z
			 M33.5,57.2h0.3v-2.4c0-0.2,0-0.5,0.1-0.6c0.1-0.1,0.2-0.2,0.4-0.2v-0.2c-0.2,0-0.4,0-0.6,0c-0.2,0-0.4,0-0.6,0V54
			c0.5,0,0.5,0.4,0.5,0.8v1.3l-2-2.3c-0.2,0-0.4,0-0.6,0c-0.2,0-0.3,0-0.5,0V54c0.3,0,0.4,0.1,0.5,0.3v2c0,0.4,0,0.6-0.5,0.6v0.2
			c0.2,0,0.4,0,0.6,0c0.2,0,0.4,0,0.6,0v-0.2c-0.5,0-0.5-0.4-0.5-0.8v-1.6L33.5,57.2L33.5,57.2L33.5,57.2z M27.3,55.4v-0.9
			c0-0.1,0-0.4,0-0.5c0-0.1,0.2-0.1,0.2-0.1c0.5,0,0.7,0.2,0.7,0.7c0,0.5-0.3,0.7-0.7,0.7L27.3,55.4L27.3,55.4z M28.3,55.5
			c0.4-0.1,0.8-0.4,0.8-0.8c0-0.4-0.2-0.6-0.5-0.8c-0.2-0.1-0.6-0.1-0.8-0.1c-0.3,0-0.6,0-0.8,0c-0.3,0-0.6,0-0.9,0V54
			c0.5,0,0.5,0.2,0.5,0.6v1.7c0,0.4,0,0.7-0.5,0.6v0.2c0.3,0,0.6,0,0.9,0c0.3,0,0.6,0,0.9,0v-0.2c-0.5,0-0.5-0.2-0.5-0.6v-0.7
			c0,0,0.1,0,0.1,0c0.1,0,0.4,0.2,0.5,0.5l0.7,1c0.2,0,0.3,0,0.5,0c0.2,0,0.3,0,0.5,0v-0.2c-0.1,0-0.2-0.1-0.3-0.2
			c-0.1-0.1-0.2-0.3-0.3-0.4L28.3,55.5L28.3,55.5L28.3,55.5z M22.1,57.1c0.3,0,0.6,0,0.9,0c0.7,0,1.4,0,2.1,0c0-0.1,0-0.3,0-0.4
			c0-0.2,0-0.4,0-0.6h-0.2c-0.1,0.6-0.4,0.7-0.9,0.7s-0.6-0.3-0.6-0.8v-0.6c0.5,0,0.6,0.1,0.7,0.5h0.2c0-0.2,0-0.4,0-0.6
			c0-0.2,0-0.5,0-0.7H24c0,0.5-0.3,0.5-0.7,0.5v-0.9c0,0,0-0.3,0-0.3c0-0.1,0.4-0.1,0.4-0.1c0.5,0,0.8,0.2,0.9,0.7h0.2l0-0.9
			c-0.6,0-1.3,0-1.9,0c-0.3,0-0.6,0-0.9,0v0.2c0.5,0,0.5,0.2,0.5,0.6v1.7c0,0.4,0,0.7-0.5,0.6L22.1,57.1L22.1,57.1L22.1,57.1z
			 M21,53.8h-3.3l0,1h0.2c0.1-0.4,0.3-0.8,0.8-0.7c0.3,0,0.3,0,0.3,0.4v1.9c0,0.4,0,0.7-0.5,0.6v0.2c0.3,0,0.6,0,0.9,0
			c0.3,0,0.6,0,0.9,0v-0.2c-0.5,0-0.5-0.2-0.5-0.6v-1.9c0-0.4,0-0.4,0.3-0.4c0.4,0,0.7,0.3,0.7,0.7h0.2L21,53.8L21,53.8L21,53.8z
			 M14.5,56.8c0.2,0.2,0.6,0.3,0.9,0.3c0.6,0,1.2-0.4,1.2-1c0-0.7-0.5-0.9-1.1-1.1c-0.3-0.1-0.7-0.2-0.7-0.6c0-0.3,0.3-0.4,0.5-0.4
			c0.4,0,0.7,0.3,0.8,0.7h0.2l0-0.9h-0.2L16.1,54c-0.2-0.2-0.5-0.2-0.8-0.2c-0.6,0-1.1,0.3-1.1,1c0,0.6,0.4,0.8,0.8,1
			c0.4,0.2,0.9,0.3,0.9,0.8c0,0.3-0.3,0.5-0.6,0.5c-0.6,0-0.8-0.4-0.9-0.9h-0.2v1.1h0.2L14.5,56.8L14.5,56.8L14.5,56.8z M10.2,57.1
			c0.3,0,0.6,0,0.9,0c0.7,0,1.4,0,2.1,0c0-0.1,0-0.3,0-0.4c0-0.2,0-0.4,0-0.6h-0.2c-0.1,0.6-0.4,0.7-0.9,0.7c-0.6,0-0.6-0.3-0.6-0.8
			v-0.6c0.5,0,0.6,0.1,0.7,0.5h0.2c0-0.2,0-0.4,0-0.6c0-0.2,0-0.5,0-0.7h-0.2c0,0.5-0.3,0.5-0.7,0.5v-0.9c0,0,0-0.3,0-0.3
			c0-0.1,0.4-0.1,0.4-0.1c0.5,0,0.8,0.2,0.9,0.7h0.2l0-0.9c-0.6,0-1.3,0-1.9,0c-0.3,0-0.6,0-0.9,0v0.2c0.5,0,0.5,0.2,0.5,0.6v1.7
			c0,0.4,0,0.7-0.5,0.6L10.2,57.1L10.2,57.1L10.2,57.1z M7.8,57.2H8L9,54.4C9.1,54.1,9.1,54,9.4,54v-0.2c-0.2,0-0.4,0-0.6,0
			c-0.2,0-0.3,0-0.5,0V54c0.2,0,0.4,0.1,0.4,0.3c0,0.2-0.2,0.7-0.2,0.9l-0.3,0.8l-0.8-2.3H7.2l-0.7,2.3L6,54.8
			c0-0.1-0.1-0.4-0.1-0.6C5.8,54,6.1,54,6.3,54v-0.2c-0.3,0-0.6,0-0.9,0c-0.3,0-0.5,0-0.8,0V54c0.4,0.1,0.4,0.1,0.5,0.4l1,2.8h0.3
			L7.1,55L7.8,57.2L7.8,57.2L7.8,57.2z"/>
		<path class="st0" d="M13.5,2.8v19.7c0,2,0,3.1,0.9,4.9c1.6,3.1,4.8,5,8.6,7.2c2.1,1.2,3.6,2.1,5.8,3.5c2.2-1.5,3.7-2.4,5.8-3.5
			c3.8-2.2,6.9-4.1,8.6-7.2c0.9-1.7,0.9-2.8,0.9-4.9V2.8H13.5z"/>
		<path class="st1" d="M29.7,4.7c-1.3-0.7-1.8,0-1.8,0L28.2,5c0.4,0,0.6-0.4,1-0.3c-0.3,0-0.5,0.4-0.9,0.4l0.2,0.4
			C29,5.6,29.3,4.8,29.7,4.7L29.7,4.7L29.7,4.7z M28.3,5.7c-1.1-1.6-2.4-0.8-2.4-0.8c0.4,0.3,1.2,0.1,1.5,0.5
			c-0.5-0.3-1.2,0.1-1.8-0.3c0,0-0.4,0.1-0.4,0.1c0.3,0.2,0.5,0.3,0.9,0.5C26.9,6,27.7,5.4,28.3,5.7L28.3,5.7z M33,34.6
			c-1.2,0.1-1.5,1.4-3.8,2.2c0.2-0.3,0.3-0.6,0.6-0.9c1.6-0.5,2-1.1,2.3-1.2c-0.5,0-0.8,0.4-1.2,0.5C31.6,34,32.7,34.4,33,34.6
			L33,34.6L33,34.6z M31.5,33.1c-0.1,0.8-0.7,1.8-1.9,2.4c0.1-0.6,0.9-1,1.2-1.7c-0.4,0.6-1.4,0.9-1.6,2
			C28.9,33.9,31,33.6,31.5,33.1L31.5,33.1L31.5,33.1z M35.3,33.3c-0.7,0.7-1.8,1.2-2.8,0.7c1.1-0.1,1.3-0.5,2-0.5
			c-0.5-0.1-1.1,0.1-1.4,0.1c0.2-0.1,0.2-0.3,0.2-0.3C34,33,34.9,33.2,35.3,33.3L35.3,33.3z M34,31.6c-0.3,1-0.9,1.8-1.9,2.3
			c0.6-0.8,0.6-1.1,1.2-1.5c-0.8,0.4-0.9,1-1.5,1.4C32,32,33.6,31.9,34,31.6L34,31.6z M36.9,32.3C36,32.9,34.7,33,34,32.8
			c1-0.2,1.2-0.4,2-0.4c-0.7-0.2-1.3,0.1-2.1,0.1C35.1,31.4,36.4,32.2,36.9,32.3L36.9,32.3z M36.6,29.9c-0.1,0.9-0.2,1.7-1.1,1.7
			c0.2-0.6,0.6-0.6,0.7-1c-0.2,0.4-0.7,0.3-1,1c-0.2,0-0.4,0.1-0.4,0.1C35.1,30.5,36.2,30.5,36.6,29.9L36.6,29.9L36.6,29.9z
			 M39.2,30.4c-0.4,0.8-1.6,1.9-2.2,1.5c0.3-0.5,0.8-0.3,1.4-0.9c-0.7,0.4-1.3,0.2-1.6,0.9c-0.2-0.1-0.3-0.1-0.3-0.1
			C36.9,30.5,38.4,30.9,39.2,30.4L39.2,30.4L39.2,30.4z M39.1,28c-0.1,1.9-0.8,2.2-1.7,2.6c0.2-0.7,0.9-0.8,1.1-1.6
			c-0.4,0.7-1.1,0.7-1.4,1.5C37.2,28.9,38.6,28.7,39.1,28C39.1,28,39.1,28,39.1,28z M41.5,28.6c-0.4,1-1.6,1.4-2.5,1.4
			c0,0,0.1-0.1,0.2-0.3c0.4-0.1,1.2-0.2,1.5-0.6c-0.3,0.2-1.1,0.4-1.4,0.4C39.8,28.6,40.9,28.9,41.5,28.6
			C41.5,28.6,41.5,28.6,41.5,28.6z M42.9,26c0.1,1-1,2.1-1.7,2.3c0,0,0.1-0.2,0.1-0.4c0.3-0.1,0.8-0.5,1-0.9
			c-0.3,0.3-0.6,0.6-0.9,0.6c0,0,0-0.3,0-0.4C41.5,26.7,42.5,26.7,42.9,26L42.9,26L42.9,26z M40.7,25.8c0.4,1.3,0.3,2.3-0.2,2.5
			c-0.3-0.5,0.2-1.2,0-1.6c0,0.4-0.6,1.3-0.4,1.7c0,0-0.3,0-0.5,0.1C39.3,27.2,40.5,26.6,40.7,25.8L40.7,25.8L40.7,25.8z M41.2,23.3
			c0.2,1.2,1.2,1.4,0.9,2.7c-0.2-0.8-0.6-0.8-0.7-1.4c-0.1,0.6,0.5,1.1,0.4,1.8C41.6,26.3,40.6,25,41.2,23.3L41.2,23.3z M43.4,22.5
			c0.3,1,0.2,2.5-0.6,3.2c-0.1-0.4,0.5-1.6,0.3-2.1c0.1,0.5-0.7,1.5-0.5,1.7C41.9,24.3,43.2,23.2,43.4,22.5L43.4,22.5z M41.3,20.2
			c0.4,1.1,1.4,1.4,1.2,3.2c-0.2-0.8-0.9-1.1-0.9-1.9c-0.2,0.9,0.6,1.5,0.6,2.4C41.3,23.1,40.9,21.7,41.3,20.2L41.3,20.2L41.3,20.2z
			 M43.5,17.4c0.3,1.2,0.2,2.2-0.1,2.8c-0.1-0.3-0.2-0.4-0.2-0.4c0.1-0.2,0.3-1.3,0.2-1.5c-0.1,0.4-0.1,0.7-0.3,1.3
			C42.4,18.5,43.3,17.8,43.5,17.4L43.5,17.4L43.5,17.4z M41.4,16.5c0.2,0.5,0.9,1.1,1,1.6c0,0.2,0,0.5-0.3,0.7
			c-0.1-0.7-0.5-0.7-0.6-1.4c-0.2,0.7,0.3,1,0.4,1.6c0,0-0.2,0.3-0.3,0.6C40.8,18.7,41.2,17.2,41.4,16.5L41.4,16.5L41.4,16.5z
			 M42.5,19.2c0.1,0.7,1.3,1.9,0.6,3.1c0.1-1.2-0.4-1.5-0.5-1.8c-0.2,0.5,0.5,0.8,0.2,2.2C42.8,21.6,41.7,20.3,42.5,19.2L42.5,19.2z
			 M43.5,14.9c0.1,1.1-0.1,2.1-0.7,2.8c-0.1-0.8,0.6-1.2,0.3-1.9c-0.1,0.6-0.7,1.3-0.7,1.7C41.9,16.6,43.1,15.4,43.5,14.9L43.5,14.9
			L43.5,14.9z M41.3,13.3c0.1,0.3,1,0.9,1,1.7c0.1,0.6-0.3,1.2-0.3,1.2c0.2-1-0.3-1.2-0.5-1.8c-0.1,0.4,0.5,0.9,0.2,1.6
			C41.3,15.4,41,14.7,41.3,13.3L41.3,13.3z M43.6,12c0.2,0.8,0.1,2.3-0.7,2.9c-0.1-0.8,0.5-1.2,0.4-1.8c-0.1,0.5-0.6,0.7-0.7,1.3
			c-0.2-0.3-0.3-0.7-0.1-1C42.8,13.1,43.3,12.9,43.6,12L43.6,12z M43.4,10.1c-0.2,0.6,0.4,1.4-0.8,2.6c-0.1-0.6,0.6-1.2,0.5-1.6
			c-0.2,0.7-0.7,0.8-0.8,1.6C42.1,11.9,42.6,10.7,43.4,10.1L43.4,10.1z M41.1,9.5c0.6,0.6,1.2,1.7,0.8,2.4c-0.5-0.6,0-0.9-0.5-1.4
			c0.3,0.6-0.2,1,0.4,1.8c0.1,0.2,0.1,0.7,0.1,0.7s-0.8-0.8-0.9-1.6C41,10.6,41.3,10.4,41.1,9.5L41.1,9.5z M42.6,9.8
			c-0.3-1.8,0.6-2,0.9-2.9c0.3,0.6,0.4,2.5-0.6,3c0.5-1,0.2-1.5,0.4-2C42.8,8.3,43.1,9.2,42.6,9.8L42.6,9.8z M41.2,6.9
			c0.3,0.8,1.1,1.2,0.9,2c-0.2,0-0.5-0.8-0.7-1.1c0,0.5,0.2,1.1,0.6,1.6c0,0.2,0,0.4,0,0.4C41.6,9.5,40.9,8.3,41.2,6.9L41.2,6.9
			L41.2,6.9z M42.4,4.3c0,0.6,0,1,0.1,1.5c0.1,0.5,0.4,0.9,0.1,1.4c-0.1-0.6-0.7-0.8-0.6-1.8c-0.5,1.1,0.4,1.4,0.3,2.3
			C40.9,5.9,42.1,4.8,42.4,4.3L42.4,4.3z M43.2,3.6c0.6,1,0.5,2,0,2.4c0.2-1,0.1-1.4,0-1.6c0,0.3,0,1.2-0.1,1.4
			C42.6,5.2,43,4.1,43.2,3.6L43.2,3.6L43.2,3.6z M39.4,3.7c1.1-0.6,2.9-0.1,2.9,0c0,0,0,0-0.1,0.1c-0.2-0.2-1.6-0.1-2-0.1
			C40.5,3.9,42,3.9,42,4.1C41,4.4,39.9,3.9,39.4,3.7L39.4,3.7z M38.2,5.7c1-0.4,1.6-1.3,2.9-1c-0.8,0.2-1.1,0.6-1.9,0.8
			C39.9,5.6,40.6,5,41.3,5c-0.2,0.2-0.8,0.9-1.8,0.8C39,5.7,38.7,5.7,38.2,5.7L38.2,5.7L38.2,5.7z M38.5,4.5
			c-1.1,0.2-1.5-0.8-1.8-0.9c1.7-0.2,2.7,0.5,2.7,0.7c0,0-0.3,0-0.4,0.1c-0.6-0.2-0.8-0.6-1.5-0.5C38,4,38.5,4.5,38.5,4.5L38.5,4.5
			L38.5,4.5z M35.2,5.7C35.8,5,36.6,4.8,37,4.8c0.4,0,0.7,0.1,0.7,0.1c-0.3,0.3-0.9,0.3-1.5,0.5c0.7-0.1,1.3,0,1.9-0.4
			C38.3,5,38.5,5,38.5,5C37.4,6,36,5.5,35.2,5.7L35.2,5.7L35.2,5.7z M33.7,3.5c0.6-0.1,1.7-0.4,2.9,0.8c0,0-0.4-0.1-0.6,0
			c-0.1-0.1-1-0.6-1.6-0.6c0.5,0.2,1,0.5,1.2,0.7c0,0-0.5,0.1-0.7,0C34.8,4.4,34.2,4.2,33.7,3.5L33.7,3.5L33.7,3.5z M32.3,5.7
			c0.9-1,2-1.1,2-1.1l0.3,0c-0.1,0.2-1.1,0.6-1.3,0.7c0.3,0,1.3-0.3,1.6-0.6c0,0,0.4,0.1,0.4,0.1c-0.5,0.5-1.1,0.8-1.7,0.8
			C33.1,5.7,32.9,5.9,32.3,5.7L32.3,5.7L32.3,5.7z M31.1,3.6c0.3,0,0.7-0.1,1.3-0.1c0.6,0.1,1.2,0.8,1.2,0.8l-0.1,0
			C33,4,32.2,3.9,31.9,3.8c0.3,0.3,1.1,0.5,1.2,0.6C32.7,4.9,31.5,4,31.1,3.6L31.1,3.6z M24.7,34.6c1.2,0.1,1.5,1.4,3.8,2.2
			c-0.2-0.3-0.3-0.6-0.6-0.9c-1.6-0.5-2-1.1-2.3-1.2c0.5,0,0.8,0.4,1.2,0.5C26.1,34.1,25,34.4,24.7,34.6L24.7,34.6L24.7,34.6z
			 M26.2,33.2c0.1,0.8,0.7,1.8,1.9,2.4c-0.1-0.6-0.9-1-1.2-1.7c0.4,0.6,1.4,0.9,1.6,2C28.8,33.9,26.7,33.7,26.2,33.2L26.2,33.2
			L26.2,33.2z M22.3,33.3c0.7,0.7,1.8,1.2,2.8,0.7c-1.1-0.1-1.3-0.5-2-0.5c0.5-0.1,1.1,0.1,1.4,0.1c-0.2-0.1-0.2-0.3-0.2-0.3
			C23.6,33,22.8,33.2,22.3,33.3L22.3,33.3L22.3,33.3z M23.7,31.6c0.3,1,0.9,1.8,1.9,2.3c-0.6-0.8-0.6-1.1-1.2-1.5
			c0.8,0.4,0.9,1,1.5,1.4C25.6,32,24.1,31.9,23.7,31.6L23.7,31.6z M20.8,32.3c0.8,0.6,2.2,0.7,2.8,0.5c-1-0.2-1.2-0.4-2-0.4
			c0.7-0.2,1.3,0.1,2.1,0.1C22.6,31.4,21.3,32.3,20.8,32.3L20.8,32.3L20.8,32.3z M21.1,29.9c0.1,0.9,0.2,1.7,1.1,1.7
			c-0.2-0.6-0.6-0.6-0.7-1c0.2,0.4,0.7,0.3,1,1c0.2,0,0.4,0.1,0.4,0.1C22.5,30.5,21.5,30.5,21.1,29.9L21.1,29.9L21.1,29.9z
			 M18.4,30.4c0.4,0.8,1.6,1.9,2.2,1.5c-0.3-0.5-0.8-0.3-1.4-0.9c0.7,0.4,1.3,0.2,1.6,0.9c0.2-0.1,0.3-0.1,0.3-0.1
			C20.7,30.5,19.3,30.9,18.4,30.4L18.4,30.4z M18.6,28c0.1,1.9,0.8,2.2,1.7,2.6c-0.2-0.7-0.9-0.8-1.1-1.6c0.4,0.7,1.1,0.7,1.4,1.5
			C20.5,28.9,19,28.7,18.6,28L18.6,28L18.6,28z M16.2,28.6c0.4,1,1.6,1.4,2.5,1.4c0,0-0.1-0.1-0.2-0.3c-0.4-0.1-1.2-0.2-1.5-0.6
			c0.3,0.2,1.1,0.4,1.4,0.4C17.8,28.6,16.8,28.9,16.2,28.6L16.2,28.6L16.2,28.6z M14.8,26c-0.1,1,1,2.1,1.7,2.3c0,0-0.1-0.2-0.1-0.4
			c-0.3-0.1-0.8-0.5-1-0.9c0.3,0.3,0.6,0.6,0.9,0.6c0,0,0-0.3,0-0.4C16.1,26.7,15.2,26.7,14.8,26L14.8,26L14.8,26z M17,25.8
			c-0.4,1.3-0.3,2.3,0.2,2.5c0.3-0.5-0.2-1.2,0-1.6c0,0.4,0.6,1.3,0.4,1.7c0,0,0.3,0,0.5,0.1C18.4,27.2,17.1,26.6,17,25.8L17,25.8
			L17,25.8z M16.5,23.3c-0.2,1.2-1.2,1.4-0.9,2.7c0.2-0.8,0.6-0.8,0.7-1.4c0.1,0.6-0.5,1.1-0.4,1.8C16.1,26.4,17,25,16.5,23.3
			L16.5,23.3L16.5,23.3z M14.3,22.5c-0.3,1-0.2,2.5,0.6,3.2c0.1-0.4-0.5-1.6-0.3-2.1c-0.1,0.5,0.7,1.5,0.5,1.7
			C15.7,24.3,14.5,23.2,14.3,22.5L14.3,22.5z M16.4,20.2c-0.4,1.1-1.4,1.4-1.2,3.2c0.2-0.8,0.9-1.1,0.9-1.9c0.2,0.9-0.6,1.5-0.6,2.4
			C16.4,23.1,16.8,21.7,16.4,20.2L16.4,20.2L16.4,20.2z M14.2,17.4c-0.3,1.2-0.2,2.2,0.1,2.8c0.1-0.3,0.2-0.4,0.2-0.4
			c-0.1-0.2-0.3-1.3-0.2-1.5c0.1,0.4,0.1,0.7,0.3,1.3C15.2,18.5,14.3,17.8,14.2,17.4L14.2,17.4L14.2,17.4z M16.2,16.5
			c-0.2,0.5-0.9,1.1-1,1.6c0,0.2,0,0.5,0.3,0.7c0.1-0.7,0.5-0.7,0.6-1.4c0.2,0.7-0.3,1-0.4,1.6c0,0,0.2,0.3,0.3,0.6
			C16.9,18.7,16.5,17.2,16.2,16.5L16.2,16.5L16.2,16.5z M15.2,19.2c-0.1,0.7-1.3,1.9-0.6,3.1c-0.1-1.2,0.4-1.5,0.5-1.8
			c0.2,0.5-0.5,0.8-0.2,2.2C14.9,21.6,16,20.3,15.2,19.2L15.2,19.2z M14.2,14.9c-0.1,1.1,0.1,2.1,0.7,2.8c0.1-0.8-0.6-1.2-0.4-1.9
			c0.1,0.6,0.7,1.3,0.7,1.7C15.8,16.6,14.5,15.4,14.2,14.9L14.2,14.9z M16.3,13.3c-0.1,0.3-1,0.9-1,1.7c-0.1,0.6,0.3,1.2,0.3,1.2
			c-0.2-1,0.3-1.2,0.5-1.8c0.1,0.4-0.5,0.9-0.2,1.6C16.3,15.4,16.7,14.7,16.3,13.3L16.3,13.3z M14.1,12c-0.2,0.8-0.1,2.3,0.7,2.9
			c0.1-0.8-0.5-1.2-0.4-1.8c0.1,0.5,0.6,0.7,0.7,1.3c0.2-0.3,0.3-0.7,0.1-1C14.9,13.1,14.4,12.9,14.1,12L14.1,12z M14.2,10.1
			c0.2,0.6-0.4,1.4,0.8,2.6c0.1-0.6-0.6-1.2-0.5-1.6c0.2,0.7,0.7,0.8,0.8,1.6C15.5,11.9,15.1,10.8,14.2,10.1L14.2,10.1z M16.5,9.5
			c-0.6,0.6-1.2,1.7-0.8,2.4c0.5-0.6,0-0.9,0.5-1.4c-0.3,0.6,0.2,1-0.4,1.8c-0.1,0.2-0.1,0.7-0.1,0.7s0.8-0.8,0.9-1.6
			C16.6,10.6,16.3,10.4,16.5,9.5L16.5,9.5z M15.1,9.9c0.3-1.8-0.6-2-0.9-2.9c-0.3,0.6-0.4,2.5,0.6,3c-0.5-1-0.2-1.5-0.4-2
			C14.8,8.3,14.6,9.2,15.1,9.9L15.1,9.9L15.1,9.9z M16.4,6.9c-0.3,0.8-1.1,1.2-0.9,2c0.2,0,0.5-0.8,0.7-1.1c0,0.5-0.2,1.1-0.6,1.6
			c0,0.2,0,0.4,0,0.4C16.1,9.5,16.8,8.3,16.4,6.9L16.4,6.9L16.4,6.9z M15.2,4.3c0,0.6,0,1-0.1,1.5C15,6.2,14.7,6.7,15,7.2
			c0.1-0.6,0.7-0.8,0.6-1.8c0.5,1.1-0.4,1.4-0.2,2.3C16.8,5.9,15.6,4.8,15.2,4.3L15.2,4.3L15.2,4.3z M14.5,3.6c-0.6,1-0.5,2,0,2.4
			c-0.2-1-0.1-1.4,0-1.6c0,0.3,0,1.2,0.1,1.4C15,5.2,14.7,4.1,14.5,3.6L14.5,3.6L14.5,3.6z M18.2,3.7c-1.1-0.6-2.9-0.1-2.9,0
			c0,0,0,0,0.1,0.1c0.2-0.2,1.6-0.1,2-0.1c-0.2,0.2-1.8,0.2-1.7,0.4C16.6,4.4,17.7,3.9,18.2,3.7L18.2,3.7z M19.4,5.7
			c-1-0.4-1.6-1.3-2.9-1c0.8,0.2,1.1,0.6,1.9,0.8C17.7,5.6,17,5,16.3,5c0.2,0.2,0.8,0.9,1.8,0.8C18.6,5.7,18.9,5.7,19.4,5.7
			L19.4,5.7z M19.1,4.5c1.1,0.2,1.5-0.8,1.8-0.9c-1.7-0.2-2.7,0.5-2.7,0.7c0,0,0.3,0,0.4,0.1c0.6-0.2,0.8-0.6,1.5-0.5
			C19.6,4,19.1,4.5,19.1,4.5L19.1,4.5L19.1,4.5z M22.4,5.7C21.8,5,21,4.8,20.6,4.8c-0.4,0-0.7,0.1-0.7,0.1c0.3,0.3,0.9,0.3,1.5,0.5
			c-0.7-0.1-1.3,0-1.9-0.4C19.3,5,19.1,5,19.1,5C20.2,6,21.6,5.5,22.4,5.7L22.4,5.7z M23.9,3.5c-0.6-0.1-1.7-0.4-2.9,0.8
			c0,0,0.4-0.1,0.6,0c0.1-0.1,1-0.6,1.6-0.6c-0.5,0.2-1,0.5-1.2,0.7c0,0,0.5,0.1,0.7,0C22.8,4.4,23.4,4.2,23.9,3.5L23.9,3.5
			L23.9,3.5z M25.3,5.7c-0.9-1-2-1.1-2-1.1l-0.3,0c0.1,0.2,1.1,0.6,1.3,0.7c-0.3,0-1.3-0.3-1.6-0.6c0,0-0.4,0.1-0.4,0.1
			c0.5,0.5,1.1,0.8,1.7,0.8C24.5,5.7,24.7,5.9,25.3,5.7L25.3,5.7L25.3,5.7z M26.5,3.6c-0.3,0-0.7-0.1-1.3-0.1
			C24.6,3.6,24,4.3,24,4.3l0.1,0c0.4-0.4,1.3-0.4,1.5-0.5c-0.3,0.3-1.1,0.5-1.2,0.6C24.9,4.9,26.1,4,26.5,3.6L26.5,3.6z M29.2,3.7
			c-1.8-0.6-2.5,0.2-2.5,0.2L27.1,4c0.2-0.1,0.7-0.2,0.9-0.2C27.8,4,27.5,4,27.4,4.1l0.3,0.2C28.1,4.2,28.5,3.8,29.2,3.7L29.2,3.7
			L29.2,3.7z M29.4,3.5c1.3,0,1.8,0.6,1.8,0.6l-0.5,0c-0.2-0.2-0.6-0.3-0.8-0.4C30,4,30.3,4,30.4,4.2l-0.4,0.1
			C29.8,4.2,29.5,3.8,29.4,3.5L29.4,3.5z M29.1,5.8c1.1-1.6,2.4-0.8,2.4-0.8c-0.4,0.3-1.2,0.1-1.5,0.5c0.5-0.3,1.2,0.1,1.8-0.3
			c0,0,0.4,0.1,0.4,0.1c-0.3,0.2-0.5,0.3-0.9,0.5C30.5,6,29.7,5.4,29.1,5.8L29.1,5.8z"/>
		<path class="st2" d="M28.8,38.6c-5.3,0-9.5-1.4-12.5-2.9l0-1.5c0-0.5,0-0.9-0.5-1.2c-1.1-0.7-1.8-0.6-2.5-0.9
			c-0.5-0.2-0.6-0.4-0.8-1.1c-0.5,0.4-0.7,0.8-0.7,1.4c0,0.5,0.1,0.9,0.4,1.3c-0.4,0.3-0.6,0.7-0.5,1.2c0.1,0.6,0.5,0.8,0.9,1.1
			c0.2,0.2,0.6,0.3,1,0.3v1c0,0.7,0,1.1,0.5,1.3c4.5,2.4,8.5,3.6,14.8,3.6s10.2-1.3,14.8-3.6c0.5-0.2,0.5-0.6,0.5-1.3v-1
			c0.4,0,0.8-0.1,1-0.3c0.5-0.3,0.9-0.5,0.9-1.1c0.1-0.5-0.1-0.9-0.5-1.2c0.3-0.4,0.5-0.8,0.4-1.3c0-0.6-0.2-0.9-0.7-1.4
			c-0.2,0.7-0.4,0.8-0.8,1.1c-0.7,0.4-1.5,0.2-2.6,0.9c-0.5,0.3-0.5,0.7-0.5,1.2l0,1.5C38.3,37.2,34.1,38.6,28.8,38.6L28.8,38.6
			L28.8,38.6z"/>
		<path class="st0" d="M16.6,38.9c0,0.1,0,0.1-0.1,0.1v0l1.5,0c0-0.2,0-0.3,0-0.5h-0.1c0,0.3-0.2,0.3-0.4,0.3h-0.6v-0.7h0.4
			c0.1,0,0.2,0,0.2,0.2h0.1c0-0.1,0-0.2,0-0.2c0-0.1,0-0.2,0-0.2h-0.1c0,0.2-0.1,0.2-0.2,0.2h-0.4v-0.6h0.7c0.1,0,0.2,0,0.3,0.3h0.1
			c0-0.1,0-0.3,0-0.4l-1.4,0v0c0.1,0,0.1,0,0.1,0.1L16.6,38.9C16.6,38.9,16.6,38.9,16.6,38.9z M20.4,40.2c0,0.1,0,0.1-0.1,0.1v0
			c0.1,0,0.2,0,0.3,0c0.1,0,0.2,0,0.3,0v0c-0.1,0-0.1,0-0.1-0.1v-1.5h0.1c0.4,0,0.6,0.1,0.6,0.4c0,0.3-0.2,0.4-0.5,0.4h-0.2
			c0,0,0,0,0,0c0,0,0,0,0,0c0.1,0,0.2,0.1,0.3,0.1c0.4,0,0.7-0.2,0.7-0.6c0-0.3-0.2-0.5-0.6-0.5h-0.8v0c0.1,0,0.1,0,0.1,0.1
			L20.4,40.2L20.4,40.2L20.4,40.2z M22.2,40.8c0.1,0,0.2,0,0.3,0c0.1,0,0.2,0,0.3,0v0c-0.1,0-0.1,0-0.1-0.1v-1.5
			c0-0.1,0-0.1,0.1-0.1v0c-0.1,0-0.2,0-0.3,0c-0.1,0-0.2,0-0.3,0v0c0.1,0,0.1,0,0.1,0.1v1.5C22.3,40.8,22.3,40.8,22.2,40.8
			L22.2,40.8L22.2,40.8z M24.9,40.8c-0.2,0.1-0.4,0.2-0.6,0.2c-0.4,0-0.7-0.4-0.7-0.8c0-0.4,0.3-0.7,0.7-0.7c0.2,0,0.4,0.1,0.5,0.3
			h0c0-0.1,0-0.3,0-0.4c-0.1-0.1-0.3-0.1-0.4-0.1c-0.4,0-1,0.3-1,0.9c0,0.7,0.5,0.9,0.9,0.9c0.2,0,0.5-0.1,0.6-0.2L24.9,40.8
			L24.9,40.8L24.9,40.8z M25.6,41.2c0,0.1,0,0.1-0.1,0.1v0h1.5c0-0.2,0-0.3,0-0.5h-0.1c-0.1,0.3-0.2,0.3-0.4,0.3h-0.6v-0.7h0.4
			c0.1,0,0.2,0,0.2,0.2h0.1c0-0.1,0-0.2,0-0.2c0-0.1,0-0.2,0-0.2h-0.1c0,0.2-0.1,0.2-0.2,0.2h-0.4v-0.6h0.7c0.1,0,0.2,0,0.3,0.3h0.1
			c0-0.1,0-0.3,0-0.4h-1.4v0c0.1,0,0.1,0,0.1,0.1L25.6,41.2L25.6,41.2z M28.6,41.3c0,0.1,0,0.1-0.1,0.1v0c0.1,0,0.2,0,0.3,0
			c0.1,0,0.2,0,0.3,0v0c-0.1,0-0.1,0-0.1-0.1v-1.5h0.1c0.4,0,0.6,0.1,0.6,0.4c0,0.3-0.2,0.4-0.5,0.4h-0.2c0,0,0,0,0,0c0,0,0,0,0,0
			c0.1,0,0.2,0.1,0.3,0.1c0.4,0,0.7-0.2,0.7-0.6c0-0.3-0.2-0.5-0.6-0.5h-0.8v0c0.1,0,0.1,0,0.1,0.1L28.6,41.3L28.6,41.3L28.6,41.3z
			 M30.6,41.3c0,0.1,0,0.1-0.1,0.1v0c0.1,0,0.2,0,0.3,0c0.1,0,0.2,0,0.3,0v0c-0.1,0-0.1,0-0.1-0.1v-1.5H31c0.2,0,0.5,0,0.5,0.3
			c0,0.2-0.2,0.4-0.5,0.4c0,0-0.1,0-0.1,0c0,0,0,0,0.1,0.1l0.4,0.5c0.2,0.3,0.3,0.4,0.3,0.4c0.1,0,0.1,0,0.2,0c0,0,0.1,0,0.1,0v0
			c-0.1,0-0.2-0.1-0.2-0.2l-0.5-0.7c0.3,0,0.5-0.2,0.5-0.5c0-0.2-0.1-0.4-0.5-0.4h-0.8v0c0.1,0,0.1,0,0.1,0.1L30.6,41.3L30.6,41.3
			L30.6,41.3z M32.7,40.2c-0.1-0.5,0.3-0.7,0.5-0.8c0.4,0,0.7,0.2,0.8,0.7c0.1,0.4-0.2,0.7-0.5,0.7C33.1,41,32.8,40.6,32.7,40.2
			L32.7,40.2L32.7,40.2z M32.5,40.3c0.1,0.5,0.4,0.9,1,0.8c0.6-0.1,0.9-0.6,0.8-1.1c0-0.4-0.4-0.9-1-0.8
			C32.9,39.3,32.4,39.8,32.5,40.3L32.5,40.3L32.5,40.3z M34.9,40.2c0,0.1,0,0.3,0,0.4c0.2,0.1,0.3,0.1,0.5,0.1
			c0.5,0,0.8-0.3,0.8-0.6c0-0.4-0.3-0.4-0.6-0.5c-0.4-0.1-0.5-0.1-0.5-0.3c0-0.2,0.2-0.3,0.5-0.3c0.2,0,0.4,0.1,0.5,0.3h0.1
			c0-0.1,0-0.3,0-0.4c-0.1-0.1-0.4-0.1-0.5-0.1c-0.5,0-0.8,0.2-0.8,0.5c0,0.3,0.3,0.4,0.8,0.5c0.2,0,0.3,0.1,0.3,0.3
			c0,0.3-0.2,0.4-0.4,0.4C35.2,40.6,35,40.4,34.9,40.2L34.9,40.2L34.9,40.2z M36.9,40.2c0,0.1,0,0.1-0.1,0.1v0c0.1,0,0.2,0,0.3,0
			c0.1,0,0.2,0,0.3,0v0c-0.1,0-0.1,0-0.1-0.1v-1.5h0.1c0.4,0,0.6,0.1,0.6,0.4c0,0.3-0.2,0.4-0.5,0.4h-0.2c0,0,0,0,0,0c0,0,0,0,0,0
			c0.1,0,0.2,0.1,0.3,0.1c0.4,0,0.7-0.2,0.7-0.6c0-0.3-0.2-0.5-0.6-0.5h-0.8v0c0.1,0,0.1,0,0.1,0.1L36.9,40.2L36.9,40.2L36.9,40.2z
			 M38.7,39.8c0.1,0,0.2,0,0.3,0s0.2,0,0.3,0v0c-0.1,0-0.1,0-0.1-0.1v-1.5c0-0.1,0-0.1,0.1-0.1v0c-0.1,0-0.2,0-0.3,0s-0.2,0-0.3,0v0
			c0.1,0,0.1,0,0.1,0.1v1.5C38.8,39.7,38.8,39.7,38.7,39.8L38.7,39.8L38.7,39.8z M41.2,38.7c-0.2,0.1-0.4,0.2-0.6,0.2
			c-0.4,0-0.7-0.4-0.7-0.9c0-0.4,0.3-0.7,0.7-0.7c0.2,0,0.4,0.1,0.5,0.3h0c0-0.1,0-0.3,0-0.4c-0.1-0.1-0.3-0.1-0.4-0.1
			c-0.4,0-1,0.2-1,0.9c0,0.7,0.5,0.9,0.9,1c0.2,0,0.5-0.1,0.6-0.2L41.2,38.7L41.2,38.7L41.2,38.7z M41.8,38.1c0,0.1,0,0.1-0.1,0.1v0
			l1.5,0c0-0.2,0-0.3,0-0.5h-0.1c0,0.3-0.2,0.3-0.4,0.3l-0.6,0l0-0.7l0.4,0c0.1,0,0.2,0,0.2,0.2h0.1c0-0.1,0-0.2,0-0.2
			c0-0.1,0-0.2,0-0.2h-0.1c0,0.2-0.1,0.2-0.2,0.2l-0.4,0l0-0.6l0.7,0c0.1,0,0.2,0,0.3,0.3h0.1c0-0.1,0-0.3,0-0.4l-1.4,0v0
			c0.1,0,0.1,0,0.1,0.1L41.8,38.1L41.8,38.1L41.8,38.1z M14.6,38c0,0.1,0,0.1-0.1,0.1v0c0.1,0,0.2,0,0.3,0s0.2,0,0.3,0v0
			c-0.1,0-0.1,0-0.1-0.1v-1.5H15c0.2,0,0.5,0,0.5,0.3c0,0.2-0.2,0.4-0.5,0.4c0,0-0.1,0-0.1,0c0,0,0,0,0.1,0.1l0.4,0.5
			c0.2,0.3,0.3,0.4,0.3,0.4c0.1,0,0.1,0,0.2,0c0,0,0.1,0,0.1,0v0c-0.1,0-0.2-0.1-0.2-0.2l-0.5-0.7c0.3,0,0.5-0.2,0.5-0.5
			c0-0.2-0.1-0.4-0.5-0.4h-0.8v0c0.1,0,0.1,0,0.1,0.1L14.6,38L14.6,38L14.6,38z M18.4,39.2c0,0.1,0,0.3,0,0.4
			c0.2,0.1,0.3,0.2,0.5,0.2c0.5,0,0.8-0.2,0.8-0.5c0-0.4-0.2-0.5-0.6-0.6c-0.4-0.1-0.5-0.1-0.4-0.3c0-0.2,0.2-0.3,0.5-0.3
			c0.2,0,0.4,0.1,0.5,0.4h0.1c0-0.1,0-0.3,0-0.4C19.6,38,19.3,38,19.2,38c-0.5,0-0.8,0.2-0.8,0.5c0,0.3,0.2,0.4,0.7,0.6
			c0.2,0,0.3,0.1,0.3,0.3c0,0.3-0.3,0.4-0.5,0.3C18.7,39.7,18.5,39.5,18.4,39.2L18.4,39.2L18.4,39.2z"/>
		<path class="st0" d="M12.3,31.5c0.1,0.2,0.2,0.5,0.5,0.7c0.4,0.3,0.8,0.4,1.2,0.5c0.3,0.1,0.6,0.1,0.9,0.2c0.4,0.2,0.9,0.4,1,0.7
			c0,0.1,0.1,0.2,0.1,0.3v0.3c0,0-0.3,0-0.4,0c-0.6,0-1.2-0.3-1.7-0.3c0,0-0.1,0-0.2,0c-0.1,0-0.1,0-0.1,0c-0.1,0-0.3,0.2-0.3,0.2
			c0,0,0,0.1-0.1,0.1v1.8h-0.1c-0.1,0-0.6-0.3-0.6-0.3c-0.6-0.4-0.8-0.6-0.8-1.1c0-0.7,0.6-0.9,0.6-1c0-0.1-0.5-0.5-0.5-1.2
			C11.9,32.3,12,31.8,12.3,31.5L12.3,31.5L12.3,31.5z M28.8,42.1h-0.5l-1.3,0L25.7,42c-2-0.2-4.1-0.5-6.1-1.2
			c-0.5-0.2-1.1-0.4-1.6-0.6c-0.8-0.3-1.7-0.7-2.5-1.1c-0.4-0.2-0.7-0.4-1-0.5c-0.2-0.1-0.6-0.4-0.5-0.6c0,0,0-0.1,0-0.1v-3.1
			c2.2,1.2,4.4,2.2,6.5,2.9c1.2,0.4,2.3,0.6,3.5,0.8c1,0.2,2,0.3,3.1,0.4c0.6,0,0.2,0,2,0.1c1.8,0,1.4,0,2-0.1c1-0.1,2-0.2,3.1-0.4
			c1.1-0.2,2.3-0.5,3.5-0.8c2.2-0.7,4.4-1.7,6.5-2.9v3.1c0,0,0,0.1,0,0.1c0,0.2-0.3,0.5-0.5,0.6c-0.4,0.1-0.7,0.4-1.1,0.5
			c-0.8,0.4-1.7,0.8-2.5,1.1c-0.5,0.2-1.1,0.4-1.6,0.6c-2,0.7-4.1,1-6.1,1.2l-1.3,0.1l-1.3,0H28.8L28.8,42.1z M43.6,34.3L43.6,34.3
			c-0.2,0-0.9,0.2-1,0.2c-0.2,0-0.3,0.1-0.5,0.1l-0.2,0c-0.1,0-0.3,0-0.4,0v0.8C42.2,35.1,43,34.7,43.6,34.3L43.6,34.3L43.6,34.3z
			 M45.3,31.5c-0.1,0.2-0.2,0.5-0.5,0.7c-0.4,0.3-0.8,0.4-1.2,0.5c-0.3,0.1-0.6,0.1-0.9,0.2c-0.4,0.2-0.9,0.4-1,0.7
			c0,0.1-0.1,0.2-0.1,0.3v0.3c0,0,0.3,0,0.4,0c0.6,0,1.2-0.3,1.7-0.3c0,0,0.1,0,0.2,0c0.1,0,0.1,0,0.1,0c0.1,0,0.3,0.2,0.3,0.2
			c0,0,0,0.1,0,0.1v1.8h0.1c0.1,0,0.6-0.3,0.6-0.3c0.6-0.4,0.8-0.6,0.8-1.1c0-0.7-0.6-0.9-0.6-1c0-0.1,0.5-0.5,0.5-1.2
			C45.7,32.3,45.6,31.8,45.3,31.5L45.3,31.5L45.3,31.5z M14,34.3L14,34.3c0.2,0,0.9,0.2,1,0.2c0.2,0,0.3,0.1,0.5,0.1l0.2,0
			c0.1,0,0.3,0,0.4,0v0.8C15.4,35.1,14.7,34.7,14,34.3L14,34.3L14,34.3z M28.8,38.4h-1.2l-0.7,0c-1.7-0.1-3.5-0.4-5.2-0.8
			c-1.7-0.4-3.5-1.1-5.2-1.9v-1.8c0,0,0-0.2-0.1-0.3c0-0.1-0.1-0.2-0.1-0.2c-0.2-0.4-0.8-0.7-1.2-0.8c-0.5-0.2-1-0.3-1.5-0.4
			c-0.3-0.1-0.8-0.3-0.9-0.7c-0.1-0.2-0.2-0.5-0.3-0.7c-0.1,0.1-0.2,0.2-0.2,0.2c-0.6,0.5-0.8,1-0.8,1.5c0,0.1,0,0.2,0,0.2
			c0,0.3,0.1,0.8,0.4,1.1c-0.2,0.1-0.4,0.6-0.4,0.8V35c0,0,0,0.1,0,0.1c0.1,0.7,1.1,1.4,1.9,1.5l0,0v1.3c0,0.3,0.1,0.7,0.4,0.9
			c1.4,0.8,2.9,1.5,4.4,2c0.4,0.1,0.7,0.3,1.1,0.4c2.1,0.7,4.3,1.1,6.4,1.3l1.5,0.1l1.7,0l1.7,0l1.5-0.1c2.1-0.2,4.3-0.6,6.4-1.3
			c0.4-0.1,0.7-0.2,1.1-0.4c1.5-0.5,3-1.2,4.4-2c0.3-0.2,0.4-0.7,0.4-0.9v-1.3c0,0,0,0,0,0c0.8-0.1,1.8-0.8,1.9-1.5c0,0,0-0.1,0-0.1
			v-0.4c0-0.2-0.2-0.7-0.4-0.8c0.2-0.3,0.4-0.8,0.4-1.1c0,0,0-0.1,0-0.2c0-0.5-0.2-1-0.8-1.5c-0.1-0.1-0.2-0.2-0.2-0.2
			c-0.1,0.2-0.2,0.5-0.3,0.7c-0.1,0.4-0.6,0.6-0.9,0.7c-0.5,0.1-1,0.2-1.5,0.4c-0.4,0.2-1.1,0.5-1.2,0.8c0,0.1-0.1,0.2-0.1,0.2
			c0,0.1-0.1,0.3-0.1,0.3v1.8c-1.7,0.8-3.4,1.5-5.2,1.9c-1.7,0.4-3.4,0.7-5.2,0.8l-0.7,0H28.8L28.8,38.4z"/>
		<path class="st1" d="M23.7,21.7v-0.2h-0.3v-0.2h-0.8v0.2h-0.3v0.2h-0.3l0.1,4.7h1.6l0.1-4.7H23.7z M20,27.3v0.2h17.6v-0.2H20z
			 M20.4,27v0.2h16.8V27H20.4z M20.8,26.6v0.2h16.1v-0.2H20.8z M21.3,21.7c-0.1,0-0.1,0.1-0.1,0.1v4.5c0,0.1,0.1,0.1,0.1,0.1
			s0.1-0.1,0.1-0.1v-4.5C21.5,21.8,21.4,21.7,21.3,21.7L21.3,21.7z M21.8,21.7c-0.1,0-0.1,0.1-0.1,0.1v4.5c0,0.1,0.1,0.1,0.1,0.1
			s0.1-0.1,0.1-0.1v-4.5C22,21.8,21.9,21.7,21.8,21.7L21.8,21.7z M21.1,21.2c-0.1,0-0.1,0.1-0.1,0.1c0,0.1,0.1,0.1,0.1,0.1h1
			c0.1,0,0.1-0.1,0.1-0.1c0-0.1-0.1-0.1-0.1-0.1H21.1z M24.2,21.7c-0.1,0-0.1,0.1-0.1,0.1v4.5c0,0.1,0.1,0.1,0.1,0.1
			c0.1,0,0.1-0.1,0.1-0.1v-4.5C24.4,21.8,24.3,21.7,24.2,21.7L24.2,21.7z M24.7,21.7c-0.1,0-0.1,0.1-0.1,0.1v4.5
			c0,0.1,0.1,0.1,0.1,0.1c0.1,0,0.1-0.1,0.1-0.1v-4.5C24.9,21.8,24.8,21.7,24.7,21.7L24.7,21.7z M24,21.2c-0.1,0-0.1,0.1-0.1,0.1
			c0,0.1,0.1,0.1,0.1,0.1h1c0.1,0,0.1-0.1,0.1-0.1c0-0.1-0.1-0.1-0.1-0.1H24z M26.9,21.2c-0.1,0-0.1,0.1-0.1,0.1
			c0,0.1,0.1,0.1,0.1,0.1h1c0.1,0,0.1-0.1,0.1-0.1c0-0.1-0.1-0.1-0.1-0.1H26.9z M27.1,21.7c-0.1,0-0.1,0.1-0.1,0.1v4.5
			c0,0.1,0.1,0.1,0.1,0.1c0.1,0,0.1-0.1,0.1-0.1v-4.5C27.2,21.8,27.2,21.7,27.1,21.7L27.1,21.7z M27.6,21.7c-0.1,0-0.1,0.1-0.1,0.1
			v4.5c0,0.1,0.1,0.1,0.1,0.1c0.1,0,0.1-0.1,0.1-0.1v-4.5C27.7,21.8,27.7,21.7,27.6,21.7L27.6,21.7z M21.2,20.3V21h15.2v-0.6H21.2
			L21.2,20.3z M20.9,18.7c-0.1,0-0.2,0.1-0.2,0.2s0.1,0.2,0.2,0.2h15.8c0.1,0,0.2-0.1,0.2-0.2s-0.1-0.2-0.2-0.2H20.9z M21.3,19.3
			c-0.1,0-0.1,0.1-0.1,0.1V20c0,0.1,0.1,0.1,0.1,0.1c0.1,0,0.1-0.1,0.1-0.1v-0.5C21.5,19.4,21.4,19.3,21.3,19.3L21.3,19.3z
			 M21.8,19.3c-0.1,0-0.1,0.1-0.1,0.1V20c0,0.1,0.1,0.1,0.1,0.1S22,20,22,20v-0.5C22,19.4,21.9,19.3,21.8,19.3L21.8,19.3z
			 M24.2,19.3c-0.1,0-0.1,0.1-0.1,0.1V20c0,0.1,0.1,0.1,0.1,0.1c0.1,0,0.1-0.1,0.1-0.1v-0.5C24.4,19.4,24.3,19.3,24.2,19.3
			L24.2,19.3z M24.7,19.3c-0.1,0-0.1,0.1-0.1,0.1V20c0,0.1,0.1,0.1,0.1,0.1c0.1,0,0.1-0.1,0.1-0.1v-0.5
			C24.9,19.4,24.8,19.3,24.7,19.3L24.7,19.3z M27.1,19.3c-0.1,0-0.1,0.1-0.1,0.1V20c0,0.1,0.1,0.1,0.1,0.1s0.1-0.1,0.1-0.1v-0.5
			C27.2,19.4,27.2,19.3,27.1,19.3L27.1,19.3z M27.6,19.3c-0.1,0-0.1,0.1-0.1,0.1V20c0,0.1,0.1,0.1,0.1,0.1c0.1,0,0.1-0.1,0.1-0.1
			v-0.5C27.7,19.4,27.7,19.3,27.6,19.3L27.6,19.3z M22.7,19.3c-0.1,0-0.1,0.1-0.1,0.1V20c0,0.1,0.1,0.1,0.1,0.1h0.8
			c0.1,0,0.1-0.1,0.1-0.1v-0.5c0-0.1-0.1-0.1-0.1-0.1H22.7z M25.5,19.3c-0.1,0-0.1,0.1-0.1,0.1V20c0,0.1,0.1,0.1,0.1,0.1h0.8
			c0.1,0,0.1-0.1,0.1-0.1v-0.5c0-0.1-0.1-0.1-0.1-0.1H25.5z M28.4,19.3c-0.1,0-0.1,0.1-0.1,0.1V20c0,0.1,0.1,0.1,0.1,0.1h0.8
			c0.1,0,0.1-0.1,0.1-0.1v-0.5c0-0.1-0.1-0.1-0.1-0.1H28.4z M32.5,26.4l0.1-4.7h-0.3v-0.2h-0.3v-0.2h-0.8v0.2h-0.3v0.2h-0.3l0.1,4.7
			H32.5L32.5,26.4z M34,21.7h-0.3l0.1,4.7h1.6l0.1-4.7h-0.3v-0.2H35v-0.2h-0.8v0.2H34L34,21.7L34,21.7L34,21.7z M36.3,21.7
			c-0.1,0-0.1,0.1-0.1,0.1v4.5c0,0.1,0.1,0.1,0.1,0.1c0.1,0,0.1-0.1,0.1-0.1v-4.5C36.4,21.8,36.4,21.7,36.3,21.7L36.3,21.7z
			 M35.8,21.7c-0.1,0-0.1,0.1-0.1,0.1v4.5c0,0.1,0.1,0.1,0.1,0.1c0.1,0,0.1-0.1,0.1-0.1v-4.5C35.9,21.8,35.9,21.7,35.8,21.7
			L35.8,21.7z M35.5,21.2c-0.1,0-0.1,0.1-0.1,0.1c0,0.1,0.1,0.1,0.1,0.1h1c0.1,0,0.1-0.1,0.1-0.1c0-0.1-0.1-0.1-0.1-0.1H35.5z
			 M33.4,21.7c-0.1,0-0.1,0.1-0.1,0.1v4.5c0,0.1,0.1,0.1,0.1,0.1c0.1,0,0.1-0.1,0.1-0.1v-4.5C33.5,21.8,33.5,21.7,33.4,21.7
			L33.4,21.7z M32.9,21.7c-0.1,0-0.1,0.1-0.1,0.1v4.5c0,0.1,0.1,0.1,0.1,0.1s0.1-0.1,0.1-0.1v-4.5C33,21.8,33,21.7,32.9,21.7
			L32.9,21.7z M32.6,21.2c-0.1,0-0.1,0.1-0.1,0.1c0,0.1,0.1,0.1,0.1,0.1h1c0.1,0,0.1-0.1,0.1-0.1c0-0.1-0.1-0.1-0.1-0.1H32.6z
			 M29.8,21.2c-0.1,0-0.1,0.1-0.1,0.1c0,0.1,0.1,0.1,0.1,0.1h1c0.1,0,0.1-0.1,0.1-0.1c0-0.1-0.1-0.1-0.1-0.1H29.8z M30.5,21.7
			c-0.1,0-0.1,0.1-0.1,0.1v4.5c0,0.1,0.1,0.1,0.1,0.1s0.1-0.1,0.1-0.1v-4.5C30.6,21.8,30.6,21.7,30.5,21.7L30.5,21.7z M30,21.7
			c-0.1,0-0.1,0.1-0.1,0.1v4.5c0,0.1,0.1,0.1,0.1,0.1c0.1,0,0.1-0.1,0.1-0.1v-4.5C30.1,21.8,30.1,21.7,30,21.7L30,21.7z M36.3,19.3
			c-0.1,0-0.1,0.1-0.1,0.1V20c0,0.1,0.1,0.1,0.1,0.1c0.1,0,0.1-0.1,0.1-0.1v-0.5C36.4,19.4,36.4,19.3,36.3,19.3L36.3,19.3z
			 M35.8,19.3c-0.1,0-0.1,0.1-0.1,0.1V20c0,0.1,0.1,0.1,0.1,0.1s0.1-0.1,0.1-0.1v-0.5C35.9,19.4,35.9,19.3,35.8,19.3L35.8,19.3z
			 M33.4,19.3c-0.1,0-0.1,0.1-0.1,0.1V20c0,0.1,0.1,0.1,0.1,0.1c0.1,0,0.1-0.1,0.1-0.1v-0.5C33.5,19.4,33.5,19.3,33.4,19.3
			L33.4,19.3z M32.9,19.3c-0.1,0-0.1,0.1-0.1,0.1V20c0,0.1,0.1,0.1,0.1,0.1S33,20,33,20v-0.5C33,19.4,33,19.3,32.9,19.3L32.9,19.3z
			 M30.5,19.3c-0.1,0-0.1,0.1-0.1,0.1V20c0,0.1,0.1,0.1,0.1,0.1c0.1,0,0.1-0.1,0.1-0.1v-0.5C30.6,19.4,30.6,19.3,30.5,19.3
			L30.5,19.3z M30,19.3c-0.1,0-0.1,0.1-0.1,0.1V20c0,0.1,0.1,0.1,0.1,0.1s0.1-0.1,0.1-0.1v-0.5C30.1,19.4,30.1,19.3,30,19.3L30,19.3
			z M34.2,19.3c-0.1,0-0.1,0.1-0.1,0.1V20c0,0.1,0.1,0.1,0.1,0.1H35c0.1,0,0.1-0.1,0.1-0.1v-0.5c0-0.1-0.1-0.1-0.1-0.1H34.2z
			 M31.3,19.3c-0.1,0-0.1,0.1-0.1,0.1V20c0,0.1,0.1,0.1,0.1,0.1h0.8c0.1,0,0.1-0.1,0.1-0.1v-0.5c0-0.1-0.1-0.1-0.1-0.1H31.3z
			 M28.8,16.5l8.2,2c0.1,0,0.2,0,0.2-0.1s0-0.2-0.1-0.2l-8.3-2l-8.3,2c-0.1,0-0.2,0.1-0.1,0.2c0,0.1,0.1,0.1,0.2,0.1L28.8,16.5
			L28.8,16.5z M23.4,18.4h10.9l-5.5-1.3L23.4,18.4L23.4,18.4L23.4,18.4z M29.2,21.2h-0.8v0.2h-0.3v0.2h-0.3l0.1,4.7h1.6l0.1-4.7
			h-0.3v-0.2h-0.3L29.2,21.2L29.2,21.2L29.2,21.2z M25.1,26.4h1.6l0.1-4.7h-0.3v-0.2h-0.3v-0.2h-0.8v0.2h-0.3v0.2H25L25.1,26.4
			L25.1,26.4z M19.8,27.7v-0.6h0.4v-0.4h0.4v-0.4H21l0.1-4.6h-0.2v-0.2h-0.2V21H21v-1.6h-0.5v-0.5L20,18.6v-0.6l8.8-2.2l8.8,2.2v0.6
			l-0.4,0.2v0.5h-0.5V21H37v0.6h-0.2v0.2h-0.2l0.1,4.6H37v0.4h0.4v0.4h0.4v0.6L19.8,27.7L19.8,27.7z"/>
		<path class="st2" d="M45.2,31.5c-0.1,0.2-0.2,0.5-0.5,0.7c-0.4,0.3-0.8,0.4-1.2,0.5c-0.3,0.1-0.6,0.1-0.9,0.2
			c-0.4,0.2-0.9,0.4-1,0.7c0,0.1-0.1,0.2-0.1,0.3v0.3c0,0,0.3,0,0.4,0c0.6,0,1.2-0.3,1.7-0.3c0,0,0.1,0,0.2,0c0,0,0.1,0,0.1,0
			c0.1,0,0.3,0.2,0.3,0.2c0,0,0,0.1,0,0.1v1.8h0.1c0.1,0,0.6-0.3,0.6-0.3c0.6-0.4,0.8-0.6,0.8-1.1c0-0.7-0.6-0.9-0.6-1
			c0-0.1,0.5-0.5,0.5-1.2C45.7,32.3,45.6,31.9,45.2,31.5L45.2,31.5L45.2,31.5z"/>
		<path class="st2" d="M43.6,34.3L43.6,34.3c-0.2,0-0.9,0.2-1,0.2c-0.2,0-0.3,0.1-0.5,0.1l-0.2,0c-0.1,0-0.3,0-0.4,0v0.8
			C42.2,35.1,42.9,34.7,43.6,34.3L43.6,34.3L43.6,34.3z"/>
		<polygon class="st2" points="17.3,6.5 17.3,14.6 40.3,14.6 40.3,6.5 17.3,6.5 		"/>
		<path class="st0" d="M39.5,10.3c0-0.2-0.2-0.4-0.2-0.2c-0.1,0.6-0.8,0.9-1.1,1.2c-0.2,0.2-0.3,0.4-0.5,0.7
			c-0.1,0.1-0.5,0.1-0.5,0.1s0-0.3,0.1-0.4c0.7-0.4,0.9-0.7,1.3-1.3c0.2-0.4,0.4-0.9,0.1-1.4c0-0.2-0.1-0.3-0.2-0.5
			c-0.2,0-0.4,0.3-0.4,0.3S38,8.3,37.8,8.1c-0.3,0.1-0.5,0.4-0.5,0.4S37.2,8.1,37,7.9c-0.3,0.1-0.5,0.4-0.5,0.4S36.3,8,36.1,7.9
			c-0.3,0.2-0.4,0.5-0.4,0.5s-0.2-0.2-0.4-0.3c-0.2,0.2-0.3,0.6-0.3,0.6s-0.2-0.2-0.3-0.3c-0.2,0.1-0.1,0.5-0.2,0.5
			c-0.8,1.1,0.7,2.5,1.3,2.9c0.2,0.1,0.1,0.4,0.1,0.4h-0.2c-0.3-0.8-1.1-0.9-1.3-1.1c-0.2-0.2-0.5-0.5-0.7-0.8
			c-0.1-0.1-0.2,0-0.2,0.1c-0.1,0.9-0.2,1.6,0,2c0.9,1.1,1.7,0.1,2.5,0.3c0,0,0,0.4,0.2,0.5c0.2,0,0.6,0,0.8-0.1
			c0.2-0.1,0.2-0.6,0.2-0.6l0.2,0c0.3,0.3,1.3,0.3,1.7,0C39.5,12.1,39.6,11.2,39.5,10.3L39.5,10.3L39.5,10.3z M34.8,12.5
			c-0.7,0.4-1.3-0.5-1.1-1C33.8,11.9,34.3,12.4,34.8,12.5L34.8,12.5z M35.4,12.2c-0.1,0.3-1.5,0.1-1.4-1.2c0.1,0.2,0.5,0.4,0.8,0.5
			C35.1,11.6,35.5,12,35.4,12.2L35.4,12.2z M36.9,11.4c-0.1-0.1-0.2-0.2-0.2-0.2s0.1-0.2,0.2-0.3c0.1,0,0.2,0.3,0.2,0.3
			S36.9,11.2,36.9,11.4L36.9,11.4L36.9,11.4z M36.9,10.2c-0.1-0.1-0.2-0.2-0.2-0.2s0.1-0.3,0.2-0.4C37,9.7,37.1,10,37.1,10
			S37,10.1,36.9,10.2L36.9,10.2z M36.6,11.9c0.1-0.1,0.2-0.1,0.3,0c0,0.3,0,0.6,0,0.9c0,0.2-0.3,0.2-0.4,0.1
			C36.5,12.5,36.6,12.3,36.6,11.9L36.6,11.9z M36.5,10.8c-0.1-0.2-0.2-0.3-0.2-0.3s0.1-0.2,0.2-0.3c0.2,0.1,0.2,0.3,0.2,0.3
			S36.6,10.6,36.5,10.8L36.5,10.8z M36,11.1c0,0,0.1-0.2,0.2-0.3c0.1,0.1,0.2,0.3,0.2,0.3s-0.1,0.1-0.2,0.2
			C36.2,11.2,36,11.1,36,11.1L36,11.1z M35.8,9.9c0,0,0.1-0.2,0.2-0.3c0.1,0.1,0.2,0.4,0.2,0.4S36.1,10,36,10.2
			C36,10,35.8,9.9,35.8,9.9L35.8,9.9z M35.8,10.8c-0.1-0.1-0.2-0.3-0.2-0.3s0.1-0.2,0.2-0.3c0.2,0.1,0.3,0.3,0.3,0.3
			S35.8,10.6,35.8,10.8L35.8,10.8z M35.4,11c0,0,0.1-0.1,0.2-0.2c0.1,0.1,0.2,0.3,0.2,0.3c-0.1,0.1-0.1,0.2-0.1,0.2
			C35.5,11.2,35.4,11,35.4,11L35.4,11L35.4,11z M35.3,10.2c-0.1-0.2-0.2-0.2-0.2-0.2s0.1-0.2,0.3-0.3c0.1,0.1,0.2,0.4,0.2,0.4
			S35.4,10,35.3,10.2L35.3,10.2z M34.8,10.4c0,0,0.1-0.2,0.2-0.2c0.1,0.1,0.2,0.3,0.2,0.3s-0.1,0.1-0.2,0.2
			C34.9,10.5,34.8,10.4,34.8,10.4L34.8,10.4z M34.8,9.8c-0.1,0.1-0.2,0.2-0.2,0.2s-0.1-0.2-0.1-0.3c0,0,0-0.2,0.1-0.2
			C34.7,9.5,34.8,9.7,34.8,9.8L34.8,9.8L34.8,9.8z M34.9,8.9C34.8,9,34.8,9,34.7,9.1c0-0.1,0-0.2,0-0.4C34.9,8.8,34.9,8.9,34.9,8.9
			L34.9,8.9L34.9,8.9z M35.6,8.6c-0.2,0-0.4,0.1-0.4,0.1c0,0,0-0.2,0.1-0.4C35.5,8.5,35.6,8.6,35.6,8.6L35.6,8.6z M36.3,8.5
			c-0.1,0.1-0.3,0.2-0.4,0.2c0,0,0-0.2,0.2-0.4C36.2,8.3,36.3,8.5,36.3,8.5L36.3,8.5L36.3,8.5z M37.2,8.6c-0.2,0-0.3-0.1-0.4-0.2
			c0,0,0.1-0.2,0.2-0.2C37.1,8.4,37.2,8.6,37.2,8.6L37.2,8.6z M37.9,8.8c-0.1,0-0.2-0.1-0.4-0.1c0,0,0.1-0.1,0.3-0.3
			C37.9,8.6,37.9,8.8,37.9,8.8L37.9,8.8z M38,9.4l-0.2,0.2c0,0-0.1-0.2-0.3-0.3c-0.2,0.2-0.2,0.5-0.2,0.5s-0.1-0.3-0.4-0.4
			c-0.2,0.1-0.4,0.4-0.4,0.4S36.3,9.4,36,9.3c-0.3,0.1-0.4,0.3-0.4,0.3s-0.1-0.2-0.2-0.4c-0.1,0-0.4,0.2-0.4,0.2l-0.1-0.2
			c0.2-0.3,0.9-0.4,1.1-0.4c0,0.1-0.2,0.2-0.1,0.4c0.1-0.2,0.4-0.5,0.5-0.5c0.1,0.1,0.1,0.4,0.2,0.6c0.1-0.1,0-0.6,0.2-0.6
			C36.7,9,37,9.1,37.1,9.3c0.1-0.2-0.3-0.4-0.2-0.5C37.3,9,37.8,9,38,9.4L38,9.4z M37.6,9.6c0.1,0.1,0.2,0.3,0.2,0.3
			s-0.1,0.1-0.2,0.3c-0.1-0.2-0.2-0.2-0.2-0.2S37.5,9.7,37.6,9.6L37.6,9.6z M38.4,9.2c-0.1-0.1-0.1-0.2-0.2-0.2c0,0,0.1-0.1,0.2-0.2
			C38.5,9,38.4,9.1,38.4,9.2L38.4,9.2z M38.3,10.1c0,0-0.1-0.1-0.2-0.2c0-0.1,0.1-0.2,0.2-0.3c0.1,0,0.1,0.2,0.1,0.2
			C38.4,9.9,38.3,10.1,38.3,10.1L38.3,10.1z M37.8,10.5c0,0,0.1-0.2,0.2-0.3c0.1,0.1,0.2,0.2,0.2,0.2s0,0.1-0.2,0.3
			C37.9,10.6,37.8,10.5,37.8,10.5L37.8,10.5z M37.4,11.1c0,0,0-0.1,0.2-0.3c0.1,0.1,0.2,0.2,0.2,0.2s-0.1,0.1-0.2,0.2
			C37.5,11.3,37.5,11.2,37.4,11.1L37.4,11.1L37.4,11.1z M37,10.6c0,0,0.1-0.2,0.2-0.4c0.1,0.1,0.2,0.3,0.2,0.3s-0.1,0.2-0.2,0.3
			C37.2,10.7,37,10.6,37,10.6L37,10.6L37,10.6z M37.8,12.4c0.5,0,1.1-0.3,1.3-0.8C39.2,12,38.4,12.8,37.8,12.4L37.8,12.4z
			 M39.2,10.6c-0.1,1.1-1,1.6-1.2,1.4c-0.2-0.1,0.2-0.6,0.4-0.6C38.7,11.3,39.1,10.9,39.2,10.6L39.2,10.6L39.2,10.6z M32,12.9
			c0.5-0.4,0.7-1.5,0.6-2.6c0-0.3-0.3-0.4-0.3-0.2c-0.1,0.8-1,1.2-1.4,1.5c-0.3,0.3-0.4,0.4-0.6,0.8c-0.1,0.1-0.6,0.1-0.6,0.1
			s-0.1-0.3,0.1-0.5c0.8-0.5,1.1-0.8,1.5-1.6c0.3-0.5,0.5-1.1,0.2-1.7c0-0.3-0.1-0.4-0.2-0.6c-0.3,0-0.4,0.3-0.4,0.3
			s-0.1-0.6-0.4-0.9C30.2,7.7,30,8.1,30,8.1s-0.1-0.5-0.4-0.8c-0.4,0.1-0.6,0.5-0.6,0.5s-0.2-0.3-0.5-0.5c-0.4,0.3-0.5,0.6-0.5,0.6
			s-0.2-0.2-0.5-0.4C27.1,7.8,27,8.2,27,8.2S26.8,8,26.6,7.9c-0.2,0.1-0.1,0.6-0.2,0.6c-1,1.3,0.9,3.1,1.6,3.6
			c0.2,0.1,0.2,0.5,0.2,0.5H28c-0.4-1-1.3-1-1.6-1.3c-0.3-0.3-0.6-0.7-0.9-1c-0.1-0.1-0.2,0-0.2,0.2c-0.1,1.1-0.3,2,0,2.4
			c1.1,1.4,2,0.1,3,0.4c0,0-0.1,0.5,0.2,0.6c0.2,0,0.8,0,0.9-0.1c0.2-0.1,0.2-0.7,0.2-0.7l0.3,0C30.3,13.4,31.5,13.4,32,12.9
			L32,12.9L32,12.9z M26.9,12.9c-0.8,0.4-1.6-0.7-1.4-1.3C25.6,12.2,26.3,12.8,26.9,12.9L26.9,12.9z M27.6,12.6
			c-0.1,0.4-1.8,0.2-1.7-1.5c0.2,0.3,0.6,0.4,1,0.6C27.2,11.9,27.7,12.3,27.6,12.6L27.6,12.6z M29.4,11.6c-0.1-0.2-0.2-0.3-0.2-0.3
			s0.1-0.3,0.3-0.4c0.2,0.1,0.3,0.3,0.3,0.3S29.5,11.4,29.4,11.6L29.4,11.6L29.4,11.6z M29.2,9.9c0,0,0.1-0.3,0.3-0.5
			c0.1,0.1,0.3,0.4,0.3,0.4s-0.2,0.1-0.3,0.3C29.3,10,29.2,9.9,29.2,9.9L29.2,9.9z M29,12.3c0.1-0.1,0.3-0.1,0.4,0
			c0,0.4,0,0.7,0,1.1c0,0.2-0.4,0.3-0.4,0.1C28.9,13,29,12.7,29,12.3L29,12.3L29,12.3z M29,10.8c-0.1-0.2-0.3-0.4-0.3-0.4
			s0.1-0.3,0.3-0.4c0.2,0.1,0.3,0.4,0.3,0.4S29.1,10.6,29,10.8L29,10.8z M28.3,11.2c0,0,0.1-0.3,0.3-0.3c0.1,0.1,0.3,0.4,0.3,0.4
			s-0.1,0.1-0.2,0.3C28.6,11.4,28.3,11.2,28.3,11.2L28.3,11.2z M28.1,9.8c0,0,0.1-0.3,0.3-0.4c0.1,0.1,0.3,0.5,0.3,0.5
			s-0.1,0.1-0.2,0.3C28.3,9.9,28.1,9.8,28.1,9.8L28.1,9.8z M28,10.9c-0.1-0.2-0.3-0.4-0.3-0.4s0.1-0.2,0.2-0.4
			c0.2,0.1,0.3,0.4,0.3,0.4S28.1,10.7,28,10.9L28,10.9L28,10.9z M27.6,11.2c0,0,0.1-0.2,0.2-0.3c0.2,0.2,0.2,0.3,0.2,0.3
			c-0.1,0.1-0.2,0.2-0.2,0.2C27.7,11.3,27.6,11.2,27.6,11.2L27.6,11.2z M27.5,10.1c-0.1-0.2-0.3-0.3-0.3-0.3s0.1-0.3,0.3-0.4
			c0.1,0.1,0.2,0.4,0.2,0.4S27.6,9.9,27.5,10.1L27.5,10.1z M26.9,10.4c0,0,0.1-0.2,0.2-0.3c0.2,0.1,0.3,0.4,0.3,0.4
			s-0.1,0.1-0.3,0.3C27,10.5,26.9,10.4,26.9,10.4L26.9,10.4L26.9,10.4z M26.9,9.6c-0.1,0.1-0.2,0.3-0.2,0.3s-0.1-0.2-0.1-0.4
			c0,0,0-0.2,0.1-0.3C26.7,9.3,26.8,9.5,26.9,9.6L26.9,9.6L26.9,9.6z M27,8.6c-0.1,0.1-0.2,0.1-0.3,0.3c0-0.2-0.1-0.3,0-0.5
			C26.9,8.4,27,8.6,27,8.6L27,8.6L27,8.6z M27.9,8.2c-0.3,0-0.5,0.1-0.5,0.2c0,0,0-0.2,0.1-0.5C27.7,8.1,27.9,8.2,27.9,8.2L27.9,8.2
			L27.9,8.2z M28.7,8c-0.2,0.1-0.3,0.2-0.5,0.2c0,0,0-0.3,0.3-0.5C28.6,7.8,28.7,8,28.7,8L28.7,8z M29.7,8.2c-0.2,0-0.4-0.1-0.5-0.2
			c0,0,0.1-0.2,0.3-0.3C29.7,7.9,29.7,8.2,29.7,8.2L29.7,8.2z M30.6,8.4c-0.1-0.1-0.3-0.1-0.5-0.2c0,0,0.2-0.2,0.4-0.3
			C30.6,8.2,30.6,8.5,30.6,8.4L30.6,8.4L30.6,8.4z M30.8,9.1l-0.2,0.3c0,0-0.1-0.2-0.4-0.4c-0.2,0.2-0.3,0.6-0.3,0.6
			s-0.2-0.4-0.5-0.5c-0.3,0.1-0.5,0.5-0.5,0.5s-0.2-0.3-0.5-0.5c-0.3,0.1-0.5,0.4-0.5,0.4S27.8,9.2,27.6,9c-0.1,0-0.5,0.3-0.5,0.3
			L26.9,9c0.3-0.4,1.1-0.5,1.3-0.5c0,0.2-0.2,0.3-0.1,0.5c0.1-0.3,0.5-0.6,0.6-0.6c0.2,0.2,0.1,0.5,0.2,0.8c0.2-0.1,0-0.7,0.2-0.8
			c0.1,0.3,0.4,0.4,0.5,0.6c0.1-0.3-0.3-0.5-0.2-0.6C29.9,8.7,30.5,8.6,30.8,9.1L30.8,9.1L30.8,9.1z M30.3,9.4
			c0.2,0.1,0.3,0.4,0.3,0.4s-0.1,0.1-0.2,0.3c-0.2-0.2-0.3-0.3-0.3-0.3S30.2,9.5,30.3,9.4L30.3,9.4z M31.3,8.9
			c-0.1-0.1-0.2-0.2-0.3-0.3c0,0,0.1-0.1,0.3-0.2C31.3,8.6,31.3,8.8,31.3,8.9L31.3,8.9L31.3,8.9z M31.2,9.9c0,0-0.1-0.2-0.2-0.3
			c0.1-0.1,0.2-0.3,0.3-0.4c0.1,0,0.1,0.3,0.1,0.3C31.3,9.7,31.2,9.9,31.2,9.9L31.2,9.9z M30.5,10.5c0,0,0.1-0.2,0.3-0.4
			c0.1,0.1,0.2,0.3,0.2,0.3s-0.1,0.2-0.2,0.4C30.6,10.6,30.5,10.5,30.5,10.5L30.5,10.5L30.5,10.5z M30,11.2c0,0,0.1-0.1,0.2-0.3
			c0.1,0.1,0.2,0.3,0.2,0.3s-0.1,0.2-0.3,0.3C30.2,11.4,30.1,11.3,30,11.2L30,11.2z M29.6,10.6c0,0,0.1-0.3,0.3-0.4
			c0.2,0.1,0.3,0.4,0.3,0.4s-0.2,0.2-0.3,0.4C29.8,10.7,29.6,10.6,29.6,10.6L29.6,10.6L29.6,10.6z M32.3,10.7
			c-0.1,1.4-1.3,1.9-1.5,1.8c-0.2-0.1,0.2-0.7,0.5-0.8C31.6,11.5,32.1,10.9,32.3,10.7L32.3,10.7z M32.1,11.7c0.1,0.6-0.8,1.6-1.6,1
			C31.1,12.8,31.9,12.3,32.1,11.7L32.1,11.7z M23.8,12.5c0.4-0.3,0.6-1.3,0.5-2.2c0-0.2-0.2-0.4-0.2-0.2c-0.1,0.6-0.8,0.9-1.1,1.2
			c-0.2,0.2-0.3,0.4-0.5,0.7c-0.1,0.1-0.5,0.1-0.5,0.1s0-0.3,0.1-0.4c0.7-0.4,0.9-0.7,1.3-1.3c0.2-0.4,0.4-0.9,0.1-1.4
			c0-0.2-0.1-0.3-0.2-0.5c-0.2,0-0.4,0.3-0.4,0.3s-0.1-0.5-0.3-0.7c-0.3,0.1-0.5,0.4-0.5,0.4S22,8.1,21.7,7.9
			c-0.3,0.1-0.5,0.4-0.5,0.4S21.1,8,20.8,7.9c-0.3,0.2-0.4,0.5-0.4,0.5s-0.2-0.2-0.4-0.3c-0.2,0.2-0.3,0.6-0.3,0.6s-0.2-0.2-0.3-0.3
			c-0.2,0.1-0.1,0.5-0.2,0.5c-0.8,1.1,0.7,2.5,1.3,2.9c0.2,0.1,0.1,0.4,0.1,0.4h-0.2c-0.3-0.8-1.1-0.9-1.3-1.1
			c-0.2-0.2-0.5-0.5-0.7-0.8c-0.1-0.1-0.2,0-0.2,0.1c-0.1,0.9-0.2,1.6,0,2c0.9,1.1,1.7,0.1,2.5,0.3c0,0,0,0.4,0.2,0.5
			c0.2,0,0.6,0,0.8-0.1c0.2-0.1,0.2-0.6,0.2-0.6l0.2,0C22.4,12.9,23.3,12.8,23.8,12.5L23.8,12.5L23.8,12.5z M19.5,12.5
			c-0.7,0.4-1.3-0.5-1.1-1C18.5,11.9,19,12.4,19.5,12.5L19.5,12.5z M20.2,12.2c-0.1,0.3-1.5,0.1-1.4-1.2c0.1,0.2,0.5,0.4,0.8,0.5
			C19.8,11.6,20.2,12,20.2,12.2L20.2,12.2z M21.6,11.4c-0.1-0.1-0.2-0.2-0.2-0.2s0.1-0.2,0.2-0.3c0.1,0,0.2,0.3,0.2,0.3
			S21.7,11.3,21.6,11.4L21.6,11.4z M21.6,10.2c-0.1-0.1-0.2-0.2-0.2-0.2s0.1-0.3,0.2-0.4c0.1,0.1,0.2,0.3,0.2,0.3
			S21.7,10.1,21.6,10.2L21.6,10.2L21.6,10.2z M21.3,11.9c0.1-0.1,0.2-0.1,0.3,0c0,0.3,0,0.6,0,0.9c0,0.2-0.3,0.2-0.4,0.1
			C21.2,12.5,21.3,12.3,21.3,11.9L21.3,11.9z M21.3,10.8c-0.1-0.2-0.2-0.3-0.2-0.3s0.1-0.2,0.2-0.3c0.2,0.1,0.2,0.3,0.2,0.3
			S21.4,10.6,21.3,10.8L21.3,10.8z M20.8,11.1c0,0,0.1-0.2,0.2-0.3c0.1,0.1,0.2,0.3,0.2,0.3s-0.1,0.1-0.2,0.2
			C20.9,11.3,20.8,11.1,20.8,11.1L20.8,11.1L20.8,11.1z M20.6,9.9c0,0,0.1-0.2,0.2-0.3C20.9,9.7,21,10,21,10s-0.1,0.1-0.2,0.2
			C20.7,10,20.6,9.9,20.6,9.9L20.6,9.9z M20.5,10.8c-0.1-0.1-0.2-0.3-0.2-0.3s0.1-0.2,0.2-0.3c0.2,0.1,0.3,0.3,0.3,0.3
			S20.6,10.6,20.5,10.8L20.5,10.8z M20.1,11c0,0,0.1-0.1,0.2-0.2c0.1,0.1,0.2,0.3,0.2,0.3c-0.1,0.1-0.1,0.2-0.1,0.2
			C20.2,11.2,20.1,11,20.1,11L20.1,11L20.1,11z M20,10.2c-0.1-0.2-0.2-0.2-0.2-0.2s0.1-0.2,0.3-0.3c0.1,0.1,0.2,0.4,0.2,0.4
			S20.1,10,20,10.2L20,10.2L20,10.2z M19.6,10.4c0,0,0.1-0.2,0.2-0.2c0.1,0.1,0.2,0.3,0.2,0.3s-0.1,0.1-0.2,0.2
			C19.6,10.5,19.6,10.4,19.6,10.4L19.6,10.4z M19.6,9.8c-0.1,0.1-0.2,0.2-0.2,0.2s-0.1-0.2-0.1-0.3c0,0,0-0.2,0.1-0.2
			C19.4,9.5,19.5,9.7,19.6,9.8L19.6,9.8z M19.7,8.9C19.6,9,19.5,9,19.5,9.1c0-0.1,0-0.2,0-0.4C19.6,8.8,19.7,8.9,19.7,8.9L19.7,8.9
			L19.7,8.9z M20.4,8.6c-0.2,0-0.4,0.1-0.4,0.1c0,0,0-0.2,0.1-0.4C20.2,8.5,20.4,8.6,20.4,8.6L20.4,8.6z M21,8.5
			c-0.1,0.1-0.3,0.2-0.4,0.2c0,0,0-0.2,0.2-0.4C21,8.3,21,8.5,21,8.5L21,8.5L21,8.5z M21.9,8.6c-0.2,0-0.3-0.1-0.4-0.2
			c0,0,0.1-0.2,0.2-0.2C21.8,8.4,21.9,8.6,21.9,8.6L21.9,8.6z M22.6,8.8c-0.1,0-0.2-0.1-0.4-0.1c0,0,0.1-0.1,0.3-0.3
			C22.6,8.6,22.6,8.8,22.6,8.8L22.6,8.8z M22.8,9.4l-0.2,0.2c0,0-0.1-0.2-0.3-0.3C22.1,9.5,22,9.8,22,9.8s-0.1-0.3-0.4-0.4
			c-0.2,0.1-0.4,0.4-0.4,0.4S21,9.5,20.8,9.3c-0.3,0.1-0.4,0.3-0.4,0.3s-0.1-0.2-0.2-0.4c-0.1,0-0.4,0.2-0.4,0.2l-0.1-0.2
			c0.2-0.3,0.9-0.4,1.1-0.4c0,0.1-0.2,0.2-0.1,0.4C20.6,9.1,21,8.8,21,8.8c0.1,0.1,0.1,0.4,0.2,0.6c0.1-0.1,0-0.6,0.2-0.6
			c0.1,0.2,0.4,0.3,0.4,0.5c0.1-0.2-0.3-0.4-0.2-0.5C22,9,22.6,9,22.8,9.4L22.8,9.4z M22.3,9.6c0.1,0.1,0.2,0.3,0.2,0.3
			s-0.1,0.1-0.2,0.3C22.3,10,22.2,10,22.2,10S22.2,9.7,22.3,9.6L22.3,9.6L22.3,9.6z M23.2,9.2C23.1,9.1,23,9.1,22.9,9
			c0,0,0.1-0.1,0.2-0.2C23.2,9,23.2,9.1,23.2,9.2L23.2,9.2z M23.1,10.1c0,0-0.1-0.1-0.2-0.2c0-0.1,0.1-0.2,0.2-0.3
			c0.1,0,0.1,0.2,0.1,0.2C23.2,9.9,23.1,10.1,23.1,10.1L23.1,10.1z M22.6,10.5c0,0,0.1-0.2,0.2-0.3c0.1,0.1,0.2,0.2,0.2,0.2
			s0,0.1-0.2,0.3C22.6,10.6,22.6,10.5,22.6,10.5L22.6,10.5z M22.1,11.1c0,0,0-0.1,0.2-0.3c0.1,0.1,0.2,0.2,0.2,0.2s-0.1,0.1-0.2,0.2
			C22.3,11.3,22.2,11.2,22.1,11.1L22.1,11.1L22.1,11.1z M21.8,10.6c0,0,0.1-0.2,0.2-0.4c0.1,0.1,0.2,0.3,0.2,0.3s-0.1,0.2-0.2,0.3
			C21.9,10.7,21.8,10.6,21.8,10.6L21.8,10.6L21.8,10.6z M24,10.7c-0.1,1.1-1,1.6-1.2,1.4c-0.2-0.1,0.2-0.6,0.4-0.6
			C23.4,11.3,23.8,10.9,24,10.7L24,10.7L24,10.7z M23.8,11.5c0.1,0.5-0.7,1.3-1.3,0.8C23,12.4,23.6,12,23.8,11.5L23.8,11.5z"/>
	</g>
	<g>
		<g>
			<g>
				<path class="st0" d="M77.3,14.5v12.2h-2.5V14.5H77.3z"/>
				<path class="st0" d="M89.5,14.5v12.2h-1.9l-6.4-7.9v7.9h-2.5V14.5h1.9l6.4,7.8v-7.8H89.5z"/>
				<path class="st0" d="M101.7,14.5v12.2h-1.9l-6.4-7.9v7.9h-2.5V14.5h1.9l6.4,7.8v-7.8H101.7z"/>
				<path class="st0" d="M108.5,27c-1.8,0-3.3-0.6-4.4-1.8c-1.2-1.2-1.7-2.7-1.7-4.5s0.6-3.3,1.7-4.5c1.1-1.2,2.6-1.8,4.4-1.8
					c1.8,0,3.3,0.6,4.5,1.8c1.1,1.2,1.7,2.7,1.7,4.5s-0.6,3.3-1.7,4.5C111.9,26.4,110.4,27,108.5,27z M108.5,24.6
					c1.1,0,1.9-0.4,2.6-1.1c0.7-0.8,1-1.7,1-2.9c0-1.2-0.3-2.1-1-2.9c-0.7-0.8-1.6-1.1-2.6-1.1c-1,0-1.9,0.4-2.6,1.1
					c-0.7,0.8-1,1.7-1,2.9c0,1.2,0.3,2.1,1,2.9C106.6,24.2,107.5,24.6,108.5,24.6z"/>
				<path class="st0" d="M118.3,26.7l-4.8-12.2h2.6l3.5,9.5l3.5-9.5h2.6l-4.8,12.2H118.3z"/>
				<path class="st0" d="M130.7,14.5l4.8,12.2h-2.6l-0.9-2.4h-5.3l-0.9,2.4h-2.6l4.8-12.2H130.7z M129.4,17.2l-1.9,5.1h3.8
					L129.4,17.2z"/>
				<path class="st0" d="M133.1,16.7v-2.2h9.7v2.2h-3.6v10h-2.5v-10H133.1z"/>
				<path class="st0" d="M145.5,14.5v12.2H143V14.5H145.5z"/>
				<path class="st0" d="M152.4,27c-1.8,0-3.3-0.6-4.4-1.8c-1.2-1.2-1.7-2.7-1.7-4.5s0.6-3.3,1.7-4.5c1.1-1.2,2.6-1.8,4.4-1.8
					c1.8,0,3.3,0.6,4.5,1.8c1.1,1.2,1.7,2.7,1.7,4.5s-0.6,3.3-1.7,4.5C155.7,26.4,154.2,27,152.4,27z M152.4,24.6
					c1.1,0,1.9-0.4,2.6-1.1c0.7-0.8,1-1.7,1-2.9c0-1.2-0.3-2.1-1-2.9c-0.7-0.8-1.6-1.1-2.6-1.1c-1,0-1.9,0.4-2.6,1.1
					c-0.7,0.8-1,1.7-1,2.9c0,1.2,0.3,2.1,1,2.9C150.5,24.2,151.4,24.6,152.4,24.6z"/>
				<path class="st0" d="M170.1,14.5v12.2h-1.9l-6.4-7.9v7.9h-2.5V14.5h1.9l6.4,7.8v-7.8H170.1z"/>
				<path class="st0" d="M185.5,14.5v12.2H183v-5.1h-5.6v5.1H175V14.5h2.5v5.1h5.6v-5.1H185.5z"/>
				<path class="st0" d="M192,27c-1.6,0-2.9-0.5-3.8-1.5c-1-1-1.4-2.3-1.4-3.9v-7h2.5v7c0,0.9,0.2,1.7,0.7,2.2
					c0.5,0.6,1.2,0.9,2.1,0.9c0.9,0,1.6-0.3,2.1-0.9c0.5-0.6,0.7-1.3,0.7-2.3v-7h2.5v7c0,1.6-0.5,2.9-1.4,3.9
					C194.9,26.5,193.6,27,192,27z"/>
				<path class="st0" d="M208.6,23.1c0,1.1-0.4,2-1.2,2.6c-0.8,0.6-1.9,0.9-3.3,0.9h-5.6V14.5h5.5c1.4,0,2.4,0.3,3.1,0.9
					c0.7,0.6,1.1,1.4,1.1,2.4c0,0.6-0.1,1.1-0.4,1.5c-0.3,0.4-0.7,0.8-1.1,1v0.1c0.6,0.2,1.1,0.5,1.4,1
					C208.4,21.9,208.6,22.5,208.6,23.1z M205.7,18.1c0-0.5-0.2-0.8-0.5-1.1c-0.3-0.3-0.7-0.4-1.2-0.4h-3v2.9h3
					c0.5,0,0.9-0.1,1.2-0.4C205.5,18.9,205.7,18.5,205.7,18.1z M204.2,21.5H201v3h3.2c0.5,0,1-0.1,1.3-0.4c0.3-0.3,0.5-0.6,0.5-1.1
					c0-0.4-0.2-0.8-0.5-1.1C205.1,21.6,204.7,21.5,204.2,21.5z"/>
			</g>
			<g>
				<path class="st2" d="M82.4,38c0.7,0.1,1.2,0.4,1.6,0.8c0.4,0.4,0.6,0.9,0.6,1.4c0,0.5-0.1,0.9-0.4,1.3c-0.3,0.4-0.6,0.7-1.1,1
					c-0.5,0.3-1,0.4-1.5,0.5c-0.5,0.1-1.3,0.1-2.3,0.1h-3.3l0.1-0.3h0.3c0.3,0,0.5-0.1,0.7-0.2c0.2-0.1,0.3-0.2,0.4-0.4
					c0.1-0.1,0.2-0.5,0.3-0.9l1.9-6.2c0.1-0.5,0.2-0.8,0.2-0.9c0-0.3-0.3-0.5-0.9-0.5H79l0.1-0.3h3.1c0.5,0,1,0,1.3,0.1
					c0.3,0,0.6,0.2,1,0.4c0.3,0.2,0.6,0.4,0.7,0.7c0.2,0.3,0.3,0.6,0.3,0.9c0,0.6-0.2,1.1-0.7,1.6C84.2,37.5,83.4,37.8,82.4,38z
					 M80.2,38.1l-1,3.4c-0.1,0.3-0.1,0.5-0.1,0.6c0,0.4,0.5,0.7,1.4,0.7c0.9,0,1.7-0.3,2.1-0.9c0.5-0.6,0.7-1.3,0.7-2.1
					c0-0.4-0.1-0.8-0.3-1c-0.2-0.3-0.4-0.4-0.7-0.5c-0.3-0.1-0.7-0.1-1.3-0.1H80.2z M80.3,37.8h0.7c0.7,0,1.3-0.1,1.7-0.3
					s0.7-0.5,1-0.9c0.2-0.4,0.4-0.9,0.4-1.4c0-0.4-0.1-0.7-0.3-0.9c-0.2-0.3-0.4-0.4-0.6-0.5c-0.2-0.1-0.6-0.1-1.1-0.1h-0.5
					L80.3,37.8z"/>
				<path class="st2" d="M85.9,39h-0.3c0.2-0.5,0.5-1,0.8-1.4c0.3-0.4,0.6-0.6,0.9-0.6c0.2,0,0.4,0.1,0.5,0.2s0.2,0.4,0.2,0.7
					c0,0.4-0.1,1-0.3,1.8c0,0,0.1-0.2,0.2-0.5c0.4-0.8,0.7-1.4,0.9-1.7c0.3-0.4,0.5-0.5,0.8-0.5c0.2,0,0.3,0.1,0.4,0.2
					c0.1,0.1,0.1,0.2,0.1,0.4c0,0.1,0,0.3-0.1,0.4C89.8,38,89.7,38,89.6,38c-0.1,0-0.3-0.1-0.4-0.2c-0.1-0.1-0.1-0.1-0.2-0.1
					c-0.2,0-0.6,0.6-1.1,1.7c-0.5,1.1-0.9,2.2-1.2,3.2l-0.2,0.5h-0.9l1.1-3.8c0.2-0.7,0.3-1.2,0.3-1.5c0-0.1,0-0.2-0.1-0.3
					c0-0.1-0.1-0.1-0.2-0.1c-0.2,0-0.4,0.2-0.6,0.5C86.2,38.4,86,38.7,85.9,39z"/>
				<path class="st2" d="M92.8,41.5h0.3c-0.2,0.5-0.5,0.9-0.9,1.2c-0.4,0.4-0.7,0.5-1,0.5c-0.2,0-0.4-0.1-0.6-0.2
					c-0.2-0.2-0.3-0.4-0.3-0.7c0-0.3,0.1-0.7,0.4-1.5l0.8-2.2c0.2-0.5,0.3-0.8,0.3-0.9c0-0.1,0-0.2-0.1-0.2c0,0-0.1-0.1-0.2-0.1
					c-0.2,0-0.4,0.1-0.7,0.4c-0.3,0.3-0.4,0.5-0.5,0.8H90c0.3-0.5,0.6-0.9,0.9-1.2c0.3-0.3,0.6-0.5,0.9-0.5c0.2,0,0.4,0.1,0.6,0.2
					c0.1,0.2,0.2,0.4,0.2,0.6c0,0.3-0.1,0.7-0.4,1.4l-0.7,1.9c-0.3,0.7-0.4,1.1-0.4,1.3c0,0.1,0,0.2,0.1,0.3
					c0.1,0.1,0.1,0.1,0.2,0.1C91.9,42.8,92.3,42.4,92.8,41.5z M92.2,33.9c0-0.2,0.1-0.3,0.2-0.4c0.1-0.1,0.3-0.2,0.4-0.2
					c0.2,0,0.3,0.1,0.4,0.2c0.1,0.1,0.2,0.3,0.2,0.4s-0.1,0.3-0.2,0.4c-0.1,0.1-0.3,0.2-0.4,0.2c-0.2,0-0.3-0.1-0.4-0.2
					C92.3,34.2,92.2,34,92.2,33.9z"/>
				<path class="st2" d="M98.8,41.7h0.4c-0.3,0.5-0.6,0.9-0.9,1.2c-0.3,0.3-0.6,0.4-0.9,0.4c-0.2,0-0.4-0.1-0.6-0.2
					s-0.2-0.3-0.2-0.6c0-0.2,0.1-0.6,0.3-1.3l0.8-2.2c0.2-0.6,0.3-1,0.3-1.2c0-0.2,0-0.3-0.1-0.4c-0.1-0.1-0.2-0.1-0.3-0.1
					c-0.4,0-0.8,0.4-1.4,1.3c-0.6,0.9-1.1,2-1.5,3.3l-0.4,1.1h-0.9l1.3-4.1c0.2-0.7,0.3-1.2,0.3-1.3c0-0.1,0-0.1,0-0.2
					c0,0-0.1-0.1-0.1-0.1c-0.3,0-0.6,0.3-1,1h-0.3c0.6-1.1,1.2-1.6,1.7-1.6c0.2,0,0.3,0.1,0.4,0.2c0.1,0.1,0.1,0.3,0.1,0.5
					c0,0.4-0.2,1-0.5,1.9c0.9-1.7,1.7-2.6,2.5-2.6c0.3,0,0.5,0.1,0.7,0.3c0.2,0.2,0.3,0.4,0.3,0.8c0,0.2-0.1,0.6-0.3,1.2l-0.8,2.3
					c-0.2,0.6-0.3,1-0.3,1c0,0.1,0,0.2,0.1,0.2c0,0,0.1,0.1,0.2,0.1c0.2,0,0.3-0.1,0.5-0.3C98.4,42.4,98.6,42.1,98.8,41.7z"/>
				<path class="st2" d="M101.2,41.4c-0.3-0.2-0.5-0.4-0.7-0.7c-0.2-0.3-0.2-0.6-0.2-1c0-0.7,0.2-1.3,0.7-1.9
					c0.5-0.5,1.1-0.8,1.7-0.8c0.2,0,0.4,0,0.5,0.1c0.2,0.1,0.3,0.2,0.5,0.3c0.3-0.3,0.6-0.4,0.8-0.4c0.2,0,0.3,0,0.4,0.1
					c0.1,0.1,0.2,0.2,0.2,0.4c0,0.2-0.1,0.3-0.3,0.3c-0.1,0-0.2-0.1-0.4-0.2c-0.1-0.1-0.2-0.2-0.2-0.2c-0.1,0-0.2,0.1-0.2,0.2
					c0.2,0.3,0.3,0.7,0.3,1.1c0,0.8-0.2,1.5-0.7,2c-0.5,0.5-1.1,0.8-1.8,0.9c-1,0.1-1.6,0.4-1.6,0.8c0,0.1,0.1,0.2,0.2,0.3
					c0.1,0.1,0.4,0.2,0.8,0.3c0.7,0.1,1.2,0.3,1.6,0.4c0.4,0.1,0.7,0.3,0.9,0.5s0.3,0.5,0.3,0.8c0,0.5-0.2,0.9-0.7,1.3
					c-0.5,0.4-1.2,0.6-2.1,0.6c-0.9,0-1.5-0.1-2-0.4c-0.5-0.3-0.7-0.6-0.7-1.1c0-0.3,0.1-0.6,0.4-0.8c0.2-0.2,0.4-0.3,0.6-0.3
					s0.3,0.1,0.3,0.2c0,0.1-0.1,0.2-0.2,0.3c-0.2,0.2-0.3,0.4-0.3,0.6c0,0.3,0.2,0.6,0.5,0.8c0.3,0.2,0.8,0.4,1.4,0.4
					c0.7,0,1.2-0.1,1.6-0.4c0.4-0.2,0.5-0.5,0.5-0.8c0-0.3-0.1-0.5-0.4-0.6c-0.3-0.2-0.8-0.3-1.6-0.5c-0.7-0.2-1.2-0.4-1.4-0.5
					c-0.2-0.2-0.3-0.4-0.3-0.6c0-0.3,0.2-0.6,0.5-0.9C100.2,41.7,100.6,41.5,101.2,41.4z M101,40.4c0,0.3,0.1,0.5,0.2,0.6
					c0.1,0.2,0.3,0.2,0.6,0.2c0.3,0,0.5-0.1,0.7-0.3c0.2-0.2,0.4-0.6,0.6-1.2c0.2-0.6,0.3-1.1,0.3-1.5c0-0.3-0.1-0.6-0.2-0.7
					c-0.1-0.2-0.3-0.2-0.5-0.2c-0.4,0-0.8,0.3-1.2,1S101,39.7,101,40.4z"/>
				<path class="st2" d="M107.8,41.5h0.3c-0.2,0.5-0.5,0.9-0.9,1.2c-0.4,0.4-0.7,0.5-1,0.5c-0.2,0-0.4-0.1-0.6-0.2
					c-0.2-0.2-0.3-0.4-0.3-0.7c0-0.3,0.1-0.7,0.4-1.5l0.8-2.2c0.2-0.5,0.3-0.8,0.3-0.9c0-0.1,0-0.2-0.1-0.2c0,0-0.1-0.1-0.2-0.1
					c-0.2,0-0.4,0.1-0.7,0.4c-0.3,0.3-0.4,0.5-0.5,0.8h-0.3c0.3-0.5,0.6-0.9,0.9-1.2c0.3-0.3,0.6-0.5,0.9-0.5c0.2,0,0.4,0.1,0.6,0.2
					c0.1,0.2,0.2,0.4,0.2,0.6c0,0.3-0.1,0.7-0.4,1.4l-0.7,1.9c-0.3,0.7-0.4,1.1-0.4,1.3c0,0.1,0,0.2,0.1,0.3
					c0.1,0.1,0.1,0.1,0.2,0.1C106.9,42.8,107.3,42.4,107.8,41.5z M107.3,33.9c0-0.2,0.1-0.3,0.2-0.4c0.1-0.1,0.3-0.2,0.4-0.2
					s0.3,0.1,0.4,0.2c0.1,0.1,0.2,0.3,0.2,0.4s-0.1,0.3-0.2,0.4c-0.1,0.1-0.3,0.2-0.4,0.2c-0.2,0-0.3-0.1-0.4-0.2
					S107.3,34,107.3,33.9z"/>
				<path class="st2" d="M113.8,41.7h0.4c-0.3,0.5-0.6,0.9-0.9,1.2c-0.3,0.3-0.6,0.4-0.9,0.4c-0.2,0-0.4-0.1-0.6-0.2
					s-0.2-0.3-0.2-0.6c0-0.2,0.1-0.6,0.3-1.3l0.8-2.2c0.2-0.6,0.3-1,0.3-1.2c0-0.2,0-0.3-0.1-0.4c-0.1-0.1-0.2-0.1-0.3-0.1
					c-0.4,0-0.8,0.4-1.4,1.3c-0.6,0.9-1.1,2-1.5,3.3l-0.4,1.1h-0.9l1.3-4.1c0.2-0.7,0.3-1.2,0.3-1.3c0-0.1,0-0.1,0-0.2
					c0,0-0.1-0.1-0.1-0.1c-0.3,0-0.6,0.3-1,1h-0.3c0.6-1.1,1.2-1.6,1.7-1.6c0.2,0,0.3,0.1,0.4,0.2c0.1,0.1,0.1,0.3,0.1,0.5
					c0,0.4-0.2,1-0.5,1.9c0.9-1.7,1.7-2.6,2.5-2.6c0.3,0,0.5,0.1,0.7,0.3c0.2,0.2,0.3,0.4,0.3,0.8c0,0.2-0.1,0.6-0.3,1.2l-0.8,2.3
					c-0.2,0.6-0.3,1-0.3,1c0,0.1,0,0.2,0.1,0.2c0,0,0.1,0.1,0.2,0.1c0.2,0,0.3-0.1,0.5-0.3C113.4,42.4,113.6,42.1,113.8,41.7z"/>
				<path class="st2" d="M116.2,41.4c-0.3-0.2-0.5-0.4-0.7-0.7c-0.2-0.3-0.2-0.6-0.2-1c0-0.7,0.2-1.3,0.7-1.9
					c0.5-0.5,1.1-0.8,1.7-0.8c0.2,0,0.4,0,0.5,0.1c0.2,0.1,0.3,0.2,0.5,0.3c0.3-0.3,0.6-0.4,0.8-0.4c0.2,0,0.3,0,0.4,0.1
					c0.1,0.1,0.2,0.2,0.2,0.4c0,0.2-0.1,0.3-0.3,0.3c-0.1,0-0.2-0.1-0.4-0.2c-0.1-0.1-0.2-0.2-0.2-0.2c-0.1,0-0.2,0.1-0.2,0.2
					c0.2,0.3,0.3,0.7,0.3,1.1c0,0.8-0.2,1.5-0.7,2c-0.5,0.5-1.1,0.8-1.8,0.9c-1,0.1-1.6,0.4-1.6,0.8c0,0.1,0.1,0.2,0.2,0.3
					s0.4,0.2,0.8,0.3c0.7,0.1,1.2,0.3,1.6,0.4c0.4,0.1,0.7,0.3,0.9,0.5s0.3,0.5,0.3,0.8c0,0.5-0.2,0.9-0.7,1.3
					c-0.5,0.4-1.2,0.6-2.1,0.6c-0.9,0-1.5-0.1-2-0.4c-0.5-0.3-0.7-0.6-0.7-1.1c0-0.3,0.1-0.6,0.4-0.8c0.2-0.2,0.4-0.3,0.6-0.3
					c0.2,0,0.3,0.1,0.3,0.2c0,0.1-0.1,0.2-0.2,0.3c-0.2,0.2-0.3,0.4-0.3,0.6c0,0.3,0.2,0.6,0.5,0.8c0.3,0.2,0.8,0.4,1.4,0.4
					c0.7,0,1.2-0.1,1.6-0.4c0.4-0.2,0.5-0.5,0.5-0.8c0-0.3-0.1-0.5-0.4-0.6c-0.3-0.2-0.8-0.3-1.6-0.5c-0.7-0.2-1.2-0.4-1.4-0.5
					c-0.2-0.2-0.3-0.4-0.3-0.6c0-0.3,0.2-0.6,0.5-0.9C115.2,41.7,115.6,41.5,116.2,41.4z M116.1,40.4c0,0.3,0.1,0.5,0.2,0.6
					c0.1,0.2,0.3,0.2,0.6,0.2c0.3,0,0.5-0.1,0.7-0.3c0.2-0.2,0.4-0.6,0.6-1.2c0.2-0.6,0.3-1.1,0.3-1.5c0-0.3-0.1-0.6-0.2-0.7
					c-0.1-0.2-0.3-0.2-0.5-0.2c-0.4,0-0.8,0.3-1.2,1C116.2,39.1,116.1,39.7,116.1,40.4z"/>
				<path class="st2" d="M127.3,37.2l-0.1,0.3h-1.1l-0.9,3.1c-0.3,1-0.5,1.6-0.5,1.8c0,0.1,0,0.2,0.1,0.3s0.1,0.1,0.2,0.1
					c0.2,0,0.4-0.2,0.7-0.5c0.3-0.3,0.5-0.7,0.7-1.2h0.3c-0.3,0.7-0.6,1.3-1,1.6c-0.4,0.4-0.7,0.6-1,0.6c-0.2,0-0.4-0.1-0.6-0.3
					c-0.1-0.2-0.2-0.4-0.2-0.7c0-0.2,0.1-0.8,0.4-1.8l0.9-3h-1l0.1-0.3h1l0.7-2.2h0.9l-0.7,2.2H127.3z"/>
				<path class="st2" d="M127.6,43.2h-0.9l2.5-8.3c0.1-0.5,0.2-0.7,0.2-0.8c0-0.1,0-0.2-0.1-0.2c-0.1,0-0.2-0.1-0.5-0.1h-0.2
					l0.1-0.3c0.8,0,1.3-0.1,1.7-0.3h0.2l-1.6,5.3c0.9-1,1.6-1.6,2.3-1.6c0.3,0,0.6,0.1,0.7,0.2c0.2,0.1,0.2,0.3,0.2,0.6
					c0,0.2-0.1,0.7-0.4,1.5l-0.6,1.8c-0.2,0.7-0.4,1.1-0.4,1.2c0,0.1,0,0.2,0.1,0.3c0,0.1,0.1,0.1,0.2,0.1c0.2,0,0.4-0.1,0.6-0.3
					c0.2-0.2,0.4-0.5,0.6-0.8h0.4c-0.2,0.5-0.5,0.9-0.9,1.2c-0.3,0.3-0.7,0.4-1,0.4c-0.2,0-0.4-0.1-0.6-0.2
					c-0.2-0.2-0.2-0.4-0.2-0.6c0-0.3,0.1-0.8,0.4-1.5l0.6-1.7c0.3-0.8,0.4-1.2,0.4-1.4c0-0.1,0-0.2-0.1-0.3
					c-0.1-0.1-0.2-0.1-0.3-0.1c-0.2,0-0.5,0.1-0.8,0.3c-0.3,0.2-0.6,0.5-0.9,0.9c-0.3,0.4-0.5,0.8-0.7,1.1c-0.1,0.4-0.3,0.9-0.6,1.7
					L127.6,43.2z"/>
				<path class="st2" d="M136.5,41.3h0.3c-0.6,1.3-1.4,2-2.3,2c-0.4,0-0.7-0.1-1-0.4c-0.2-0.3-0.4-0.6-0.4-1.1c0-0.6,0.2-1.3,0.5-2
					c0.3-0.7,0.8-1.4,1.4-1.9c0.6-0.5,1.1-0.8,1.5-0.8c0.3,0,0.5,0.1,0.6,0.3c0.1,0.2,0.2,0.4,0.2,0.6c0,0.5-0.3,1-0.8,1.5
					c-0.5,0.5-1.3,0.9-2.3,1.4c-0.1,0.4-0.2,0.8-0.2,1.2c0,0.3,0.1,0.5,0.2,0.7s0.3,0.2,0.5,0.2C135.4,42.9,136,42.3,136.5,41.3z
					 M134.4,40.4c0.6-0.3,1.2-0.7,1.7-1.1c0.5-0.5,0.7-0.9,0.7-1.3c0-0.2,0-0.3-0.1-0.4c-0.1-0.1-0.2-0.1-0.3-0.1
					c-0.3,0-0.6,0.3-1,0.8C134.9,38.8,134.6,39.5,134.4,40.4z"/>
				<path class="st2" d="M150.3,33.4l0,2.2H150c-0.1-0.5-0.3-1-0.5-1.3c-0.2-0.3-0.5-0.5-0.7-0.5c-0.2-0.1-0.6-0.1-1.2-0.1h-1.6
					l-1.2,4.2h0.8c0.8,0,1.4-0.1,1.8-0.4c0.4-0.3,0.6-0.7,0.8-1.2h0.3l-1.1,3.9H147c0.1-0.3,0.1-0.6,0.1-0.9c0-0.3-0.1-0.6-0.2-0.8
					c-0.1-0.2-0.3-0.3-0.5-0.3c-0.2,0-0.5-0.1-1-0.1h-0.7l-0.9,3c-0.1,0.5-0.2,0.7-0.2,0.8c0,0.2,0.1,0.4,0.3,0.5
					c0.2,0.1,0.4,0.2,0.7,0.2h0.2l-0.1,0.3h-4l0.1-0.3h0.2c0.3,0,0.5-0.1,0.7-0.2c0.2-0.1,0.3-0.2,0.4-0.4c0.1-0.1,0.2-0.4,0.3-0.9
					l1.8-6.2c0.1-0.5,0.2-0.8,0.2-0.9c0-0.3-0.3-0.5-0.9-0.5h-0.2l0.1-0.3H150.3z"/>
				<path class="st2" d="M154.6,41.6h0.3c-0.4,1.1-1,1.7-1.6,1.7c-0.2,0-0.4-0.1-0.5-0.2c-0.1-0.1-0.2-0.3-0.2-0.6
					c0-0.4,0.1-0.9,0.4-1.7c-0.8,1.7-1.7,2.5-2.5,2.5c-0.3,0-0.5-0.1-0.7-0.3c-0.2-0.2-0.3-0.4-0.3-0.7c0-0.3,0.1-0.7,0.3-1.4
					l0.9-2.6c0.1-0.4,0.2-0.6,0.2-0.7c0-0.1-0.1-0.2-0.2-0.2c-0.3,0-0.6,0.4-1,1.2h-0.3c0.2-0.5,0.4-0.9,0.8-1.2
					c0.3-0.3,0.6-0.5,0.9-0.5c0.2,0,0.3,0.1,0.5,0.2c0.1,0.1,0.2,0.3,0.2,0.5c0,0.2-0.1,0.5-0.3,1l-0.9,2.6c-0.2,0.5-0.3,0.9-0.3,1
					c0,0.1,0,0.3,0.1,0.3c0.1,0.1,0.2,0.1,0.3,0.1c0.4,0,0.9-0.4,1.5-1.3c0.6-0.9,1.1-2.2,1.7-4l0.1-0.4h0.9l-1.3,4.1
					c-0.2,0.7-0.3,1.1-0.3,1.2c0,0.1,0,0.2,0.1,0.3c0,0.1,0.1,0.1,0.2,0.1C153.9,42.8,154.3,42.4,154.6,41.6z"/>
				<path class="st2" d="M159,37.2l-0.1,0.3h-1.1l-0.9,3.1c-0.3,1-0.5,1.6-0.5,1.8c0,0.1,0,0.2,0.1,0.3c0,0.1,0.1,0.1,0.2,0.1
					c0.2,0,0.4-0.2,0.7-0.5c0.3-0.3,0.5-0.7,0.7-1.2h0.3c-0.3,0.7-0.6,1.3-1,1.6c-0.4,0.4-0.7,0.6-1,0.6c-0.2,0-0.4-0.1-0.6-0.3
					c-0.1-0.2-0.2-0.4-0.2-0.7c0-0.2,0.1-0.8,0.4-1.8l0.9-3h-1l0.1-0.3h1l0.7-2.2h0.9l-0.7,2.2H159z"/>
				<path class="st2" d="M164.2,41.6h0.3c-0.4,1.1-1,1.7-1.6,1.7c-0.2,0-0.4-0.1-0.5-0.2c-0.1-0.1-0.2-0.3-0.2-0.6
					c0-0.4,0.1-0.9,0.4-1.7c-0.8,1.7-1.7,2.5-2.5,2.5c-0.3,0-0.5-0.1-0.7-0.3c-0.2-0.2-0.3-0.4-0.3-0.7c0-0.3,0.1-0.7,0.3-1.4
					l0.9-2.6c0.1-0.4,0.2-0.6,0.2-0.7c0-0.1-0.1-0.2-0.2-0.2c-0.3,0-0.6,0.4-1,1.2H159c0.2-0.5,0.4-0.9,0.8-1.2
					c0.3-0.3,0.6-0.5,0.9-0.5c0.2,0,0.3,0.1,0.5,0.2c0.1,0.1,0.2,0.3,0.2,0.5c0,0.2-0.1,0.5-0.3,1l-0.9,2.6c-0.2,0.5-0.3,0.9-0.3,1
					c0,0.1,0,0.3,0.1,0.3c0.1,0.1,0.2,0.1,0.3,0.1c0.4,0,0.9-0.4,1.5-1.3c0.6-0.9,1.1-2.2,1.7-4l0.1-0.4h0.9l-1.3,4.1
					c-0.2,0.7-0.3,1.1-0.3,1.2c0,0.1,0,0.2,0.1,0.3c0,0.1,0.1,0.1,0.2,0.1C163.5,42.8,163.9,42.4,164.2,41.6z"/>
				<path class="st2" d="M165.4,39h-0.3c0.2-0.5,0.5-1,0.8-1.4c0.3-0.4,0.6-0.6,0.9-0.6c0.2,0,0.4,0.1,0.5,0.2
					c0.1,0.2,0.2,0.4,0.2,0.7c0,0.4-0.1,1-0.3,1.8c0,0,0.1-0.2,0.2-0.5c0.4-0.8,0.7-1.4,0.9-1.7c0.3-0.4,0.5-0.5,0.8-0.5
					c0.2,0,0.3,0.1,0.4,0.2c0.1,0.1,0.1,0.2,0.1,0.4c0,0.1,0,0.3-0.1,0.4c-0.1,0.1-0.2,0.1-0.3,0.1c-0.1,0-0.3-0.1-0.4-0.2
					c-0.1-0.1-0.1-0.1-0.2-0.1c-0.2,0-0.6,0.6-1.1,1.7c-0.5,1.1-0.9,2.2-1.2,3.2l-0.2,0.5h-0.9l1.1-3.8c0.2-0.7,0.3-1.2,0.3-1.5
					c0-0.1,0-0.2-0.1-0.3c0-0.1-0.1-0.1-0.2-0.1c-0.2,0-0.4,0.2-0.6,0.5C165.6,38.4,165.5,38.7,165.4,39z"/>
				<path class="st2" d="M172.2,41.3h0.3c-0.6,1.3-1.4,2-2.3,2c-0.4,0-0.7-0.1-1-0.4c-0.2-0.3-0.4-0.6-0.4-1.1c0-0.6,0.2-1.3,0.5-2
					c0.3-0.7,0.8-1.4,1.4-1.9c0.6-0.5,1.1-0.8,1.5-0.8c0.3,0,0.5,0.1,0.6,0.3c0.1,0.2,0.2,0.4,0.2,0.6c0,0.5-0.3,1-0.8,1.5
					c-0.5,0.5-1.3,0.9-2.3,1.4c-0.1,0.4-0.2,0.8-0.2,1.2c0,0.3,0.1,0.5,0.2,0.7c0.1,0.2,0.3,0.2,0.5,0.2
					C171.1,42.9,171.7,42.3,172.2,41.3z M170,40.4c0.6-0.3,1.2-0.7,1.7-1.1c0.5-0.5,0.7-0.9,0.7-1.3c0-0.2,0-0.3-0.1-0.4
					c-0.1-0.1-0.2-0.1-0.3-0.1c-0.3,0-0.6,0.3-1,0.8C170.6,38.8,170.3,39.5,170,40.4z"/>
				<path class="st2" d="M184.6,40.1h0.3l-1,3.1h-0.3c0-0.3,0-0.6-0.1-1c-0.7,0.7-1.5,1-2.4,1c-1,0-1.9-0.4-2.5-1.1
					c-0.6-0.8-0.9-1.6-0.9-2.6c0-1.5,0.6-3,1.7-4.3c1.1-1.4,2.3-2,3.7-2c0.6,0,1.1,0.1,1.5,0.4c0.4,0.3,0.7,0.6,0.9,1.1
					c0.2-0.4,0.4-0.7,0.5-1.1h0.3l-0.6,2.8h-0.3c0-0.1,0-0.3,0-0.4c0-0.8-0.2-1.5-0.6-1.9c-0.4-0.4-0.9-0.7-1.5-0.7
					c-0.7,0-1.3,0.3-1.9,0.8c-0.6,0.5-1.1,1.4-1.6,2.6c-0.5,1.2-0.7,2.3-0.7,3.2c0,0.8,0.2,1.5,0.6,2c0.4,0.5,0.9,0.8,1.6,0.8
					C182.7,42.9,183.8,42,184.6,40.1z"/>
				<path class="st2" d="M188.4,41.4h0.3c-0.5,1.3-1.1,1.9-1.9,1.9c-0.3,0-0.5-0.1-0.6-0.3c-0.2-0.2-0.2-0.4-0.2-0.7
					c0-0.3,0.2-0.9,0.5-1.9l1.7-5.5c0.1-0.5,0.2-0.7,0.2-0.8c0-0.1,0-0.2-0.1-0.2c-0.1,0-0.2-0.1-0.5-0.1h-0.3l0.1-0.3
					c0.8,0,1.4-0.1,1.7-0.3h0.2l-2.3,7.6c0,0.1-0.1,0.3-0.2,0.7c-0.1,0.4-0.2,0.7-0.2,0.9c0,0.1,0,0.3,0.1,0.3
					c0.1,0.1,0.1,0.1,0.2,0.1c0.2,0,0.4-0.1,0.6-0.3C188,42.3,188.2,41.9,188.4,41.4z"/>
				<path class="st2" d="M189.3,41.2c0-0.6,0.1-1.2,0.4-1.9c0.3-0.7,0.6-1.2,1.1-1.6s1-0.6,1.4-0.6c0.4,0,0.8,0.2,1,0.5
					c0.3,0.4,0.4,0.8,0.4,1.5c0,0.7-0.2,1.4-0.5,2.1c-0.3,0.7-0.7,1.2-1.1,1.5c-0.5,0.4-0.9,0.5-1.4,0.5c-0.4,0-0.7-0.2-1-0.5
					C189.5,42.5,189.3,42,189.3,41.2z M190.1,42c0,0.3,0.1,0.5,0.2,0.7c0.1,0.2,0.3,0.3,0.6,0.3c0.6,0,1.2-0.6,1.6-1.8
					c0.4-1.2,0.6-2.1,0.6-2.8c0-0.3-0.1-0.6-0.2-0.7c-0.1-0.2-0.3-0.2-0.6-0.2c-0.6,0-1.1,0.6-1.5,1.7
					C190.3,40.2,190.1,41.2,190.1,42z"/>
				<path class="st2" d="M197.4,41.5c0,0.4-0.2,0.8-0.5,1.2c-0.3,0.4-0.8,0.6-1.5,0.6c-0.5,0-0.9-0.1-1.1-0.3
					c-0.2-0.2-0.4-0.4-0.4-0.7c0-0.1,0-0.2,0.1-0.3c0.1-0.1,0.2-0.1,0.3-0.1c0.3,0,0.4,0.1,0.4,0.4c0,0.1,0,0.2,0,0.3
					c0,0.1,0,0.1,0,0.1c0,0.1,0.1,0.2,0.2,0.3c0.1,0.1,0.3,0.1,0.5,0.1c0.3,0,0.6-0.1,0.9-0.3c0.3-0.2,0.4-0.5,0.4-0.8
					c0-0.3-0.2-0.8-0.6-1.5c-0.4-0.8-0.6-1.3-0.6-1.7c0-0.5,0.2-0.8,0.5-1.2c0.4-0.3,0.8-0.5,1.2-0.5c0.3,0,0.6,0.1,0.9,0.3
					c0.2,0.2,0.4,0.4,0.4,0.6c0,0.3-0.1,0.4-0.3,0.4c-0.2,0-0.3-0.1-0.3-0.4c-0.1-0.3-0.3-0.5-0.6-0.5c-0.3,0-0.5,0.1-0.7,0.2
					c-0.2,0.1-0.3,0.3-0.3,0.6c0,0.3,0.2,0.8,0.5,1.3c0.3,0.5,0.5,0.9,0.6,1.2C197.3,40.9,197.4,41.2,197.4,41.5z"/>
				<path class="st2" d="M201.6,41.3h0.3c-0.6,1.3-1.4,2-2.3,2c-0.4,0-0.7-0.1-1-0.4c-0.2-0.3-0.4-0.6-0.4-1.1c0-0.6,0.2-1.3,0.5-2
					c0.3-0.7,0.8-1.4,1.4-1.9c0.6-0.5,1.1-0.8,1.5-0.8c0.3,0,0.5,0.1,0.6,0.3c0.1,0.2,0.2,0.4,0.2,0.6c0,0.5-0.3,1-0.8,1.5
					c-0.5,0.5-1.3,0.9-2.3,1.4c-0.1,0.4-0.2,0.8-0.2,1.2c0,0.3,0.1,0.5,0.2,0.7c0.1,0.2,0.3,0.2,0.5,0.2
					C200.6,42.9,201.1,42.3,201.6,41.3z M199.5,40.4c0.6-0.3,1.2-0.7,1.7-1.1c0.5-0.5,0.7-0.9,0.7-1.3c0-0.2,0-0.3-0.1-0.4
					c-0.1-0.1-0.2-0.1-0.3-0.1c-0.3,0-0.6,0.3-1,0.8C200.1,38.8,199.8,39.5,199.5,40.4z"/>
				<path class="st2" d="M203.1,39h-0.3c0.2-0.5,0.5-1,0.8-1.4c0.3-0.4,0.6-0.6,0.9-0.6c0.2,0,0.4,0.1,0.5,0.2
					c0.1,0.2,0.2,0.4,0.2,0.7c0,0.4-0.1,1-0.3,1.8c0,0,0.1-0.2,0.2-0.5c0.4-0.8,0.7-1.4,0.9-1.7c0.3-0.4,0.5-0.5,0.8-0.5
					c0.2,0,0.3,0.1,0.4,0.2c0.1,0.1,0.1,0.2,0.1,0.4c0,0.1,0,0.3-0.1,0.4c-0.1,0.1-0.2,0.1-0.3,0.1c-0.1,0-0.3-0.1-0.4-0.2
					c-0.1-0.1-0.1-0.1-0.2-0.1c-0.2,0-0.6,0.6-1.1,1.7c-0.5,1.1-0.9,2.2-1.2,3.2l-0.2,0.5H203l1.1-3.8c0.2-0.7,0.3-1.2,0.3-1.5
					c0-0.1,0-0.2-0.1-0.3c0-0.1-0.1-0.1-0.2-0.1c-0.2,0-0.4,0.2-0.6,0.5C203.4,38.4,203.2,38.7,203.1,39z"/>
			</g>
		</g>
		<g>
			<g>
				<g>
					<g>
						<path class="st0" d="M217.6,16.6"/>
						<path class="st2" d="M221.8,16.6c0,0.2-0.1,0.3-0.3,0.3c-0.2,0-0.3-0.1-0.3-0.3s0.1-0.3,0.3-0.3
							C221.6,16.3,221.8,16.4,221.8,16.6z"/>
						<circle class="st2" cx="225.3" cy="16.6" r="0.6"/>
						<path class="st2" d="M230,16.6c0,0.4-0.3,0.8-0.8,0.8s-0.8-0.3-0.8-0.8c0-0.4,0.3-0.8,0.8-0.8S230,16.2,230,16.6z"/>
						<path class="st2" d="M234.1,16.6c0,0.5-0.4,0.9-0.9,0.9c-0.5,0-0.9-0.4-0.9-0.9s0.4-0.9,0.9-0.9
							C233.6,15.6,234.1,16.1,234.1,16.6z"/>
						<path class="st2" d="M238.1,16.6c0,0.6-0.5,1.1-1.1,1.1c-0.6,0-1.1-0.5-1.1-1.1c0-0.6,0.5-1.1,1.1-1.1
							C237.6,15.5,238.1,16,238.1,16.6z"/>
						<circle class="st2" cx="240.9" cy="16.6" r="1.2"/>
						<path class="st2" d="M246.1,16.6c0,0.7-0.6,1.3-1.3,1.3c-0.7,0-1.3-0.6-1.3-1.3c0-0.7,0.6-1.3,1.3-1.3
							C245.5,15.3,246.1,15.9,246.1,16.6z"/>
						<path class="st2" d="M250,16.6c0,0.7-0.6,1.3-1.3,1.3s-1.3-0.6-1.3-1.3s0.6-1.3,1.3-1.3S250,15.9,250,16.6z"/>
						<circle class="st2" cx="264.3" cy="16.6" r="1.3"/>
						<path class="st2" d="M269.4,16.6c0,0.7-0.6,1.3-1.3,1.3s-1.3-0.6-1.3-1.3c0-0.7,0.6-1.3,1.3-1.3S269.4,15.9,269.4,16.6z"/>
						<path class="st2" d="M273.3,16.6c0,0.7-0.5,1.2-1.2,1.2s-1.2-0.5-1.2-1.2c0-0.7,0.5-1.2,1.2-1.2S273.3,15.9,273.3,16.6z"/>
						<circle class="st2" cx="275.9" cy="16.6" r="1.1"/>
						<path class="st2" d="M280.8,16.6c0,0.5-0.4,0.9-0.9,0.9c-0.5,0-0.9-0.4-0.9-0.9c0-0.5,0.4-0.9,0.9-0.9
							C280.4,15.6,280.8,16.1,280.8,16.6z"/>
						<path class="st2" d="M284.5,16.6c0,0.4-0.3,0.8-0.8,0.8c-0.4,0-0.8-0.3-0.8-0.8c0-0.4,0.3-0.8,0.8-0.8
							C284.2,15.8,284.5,16.2,284.5,16.6z"/>
						<path class="st2" d="M288.2,16.6c0,0.3-0.3,0.6-0.6,0.6s-0.6-0.3-0.6-0.6s0.3-0.6,0.6-0.6S288.2,16.3,288.2,16.6z"/>
						<circle class="st2" cx="291.5" cy="16.6" r="0.3"/>
						<path class="st2" d="M295.4,16.6"/>
					</g>
				</g>
				<g>
					<g>
						<g>
							
								<ellipse transform="matrix(0.9999 -1.723395e-02 1.723395e-02 0.9999 -0.3183 4.788)" class="st0" cx="277.6" cy="20.9" rx="0.7" ry="0.7"/>
							
								<ellipse transform="matrix(3.120426e-02 -0.9995 0.9995 3.120426e-02 244.9738 294.4648)" class="st0" cx="274.4" cy="20.9" rx="1" ry="1"/>
							<circle class="st0" cx="271.1" cy="20.9" r="1.1"/>
							
								<ellipse transform="matrix(0.9999 -1.470129e-02 1.470129e-02 0.9999 -0.2777 3.9404)" class="st0" cx="267.9" cy="20.9" rx="1" ry="1"/>
							<circle class="st2" cx="264.6" cy="20.9" r="0.7"/>
						</g>
					</g>
					<g>
						<g>
							<g>
								
									<ellipse transform="matrix(0.3176 -0.9482 0.9482 0.3176 162.7871 280.9896)" class="st0" cx="276.6" cy="27.4" rx="0.7" ry="0.7"/>
								
									<ellipse transform="matrix(0.4228 -0.9062 0.9062 0.4228 133.9566 263.1002)" class="st0" cx="273.5" cy="26.4" rx="1" ry="1"/>
								
									<ellipse transform="matrix(0.2941 -0.9558 0.9558 0.2941 166.6233 276.3788)" class="st0" cx="270.4" cy="25.4" rx="1.1" ry="1.1"/>
								
									<ellipse transform="matrix(0.3313 -0.9435 0.9435 0.3313 155.7555 268.5289)" class="st0" cx="267.3" cy="24.4" rx="1" ry="1"/>
								
									<ellipse transform="matrix(0.3211 -0.9471 0.9471 0.3211 157.2471 266.1031)" class="st2" cx="264.2" cy="23.4" rx="0.7" ry="0.7"/>
							</g>
						</g>
					</g>
					<g>
						<g>
							<g>
								
									<ellipse transform="matrix(0.6066 -0.795 0.795 0.6066 81.1724 230.6264)" class="st0" cx="273.6" cy="33.3" rx="0.7" ry="0.7"/>
								
									<ellipse transform="matrix(0.5109 -0.8596 0.8596 0.5109 105.5441 248.2819)" class="st0" cx="271" cy="31.4" rx="1" ry="1"/>
								
									<ellipse transform="matrix(0.594 -0.8044 0.8044 0.594 85.2223 227.8206)" class="st0" cx="268.3" cy="29.5" rx="1.1" ry="1.1"/>
								
									<ellipse transform="matrix(0.5746 -0.8184 0.8184 0.5746 90.4729 229.1814)" class="st0" cx="265.7" cy="27.6" rx="1" ry="1"/>
								
									<ellipse transform="matrix(0.6297 -0.7769 0.7769 0.6297 77.4971 213.8626)" class="st2" cx="263.1" cy="25.6" rx="0.7" ry="0.7"/>
							</g>
						</g>
					</g>
					<g>
						<g>
							<g>
								<path class="st0" d="M268.5,37.4c0.3-0.2,0.7-0.2,0.9,0.1c0.2,0.3,0.2,0.7-0.1,0.9s-0.7,0.2-0.9-0.1
									C268.2,38.1,268.2,37.7,268.5,37.4z"/>
								<ellipse transform="matrix(0.8268 -0.5625 0.5625 0.8268 26.361 156.3088)" class="st0" cx="267" cy="35.3" rx="1" ry="1"/>
								
									<ellipse transform="matrix(0.8133 -0.5819 0.5819 0.8133 30.4667 160.3655)" class="st0" cx="265.1" cy="32.7" rx="1.1" ry="1.1"/>
								
									<ellipse transform="matrix(0.7857 -0.6186 0.6186 0.7857 37.7928 169.2528)" class="st0" cx="263.2" cy="30.1" rx="1" ry="1"/>
								<path class="st2" d="M260.9,26.9c0.3-0.2,0.7-0.2,0.9,0.2c0.2,0.3,0.2,0.7-0.2,0.9c-0.3,0.2-0.7,0.2-0.9-0.2
									C260.5,27.5,260.6,27.1,260.9,26.9z"/>
							</g>
						</g>
					</g>
					<g>
						<g>
							<g>
								
									<ellipse transform="matrix(0.9524 -0.3049 0.3049 0.9524 2.629323e-02 82.1424)" class="st0" cx="263" cy="41" rx="0.7" ry="0.7"/>
								<ellipse transform="matrix(0.9579 -0.2872 0.2872 0.9579 0.1572 76.8528)" class="st0" cx="262" cy="37.9" rx="1" ry="1"/>
								
									<ellipse transform="matrix(0.968 -0.2509 0.2509 0.968 -0.3812 66.5991)" class="st0" cx="261" cy="34.8" rx="1.1" ry="1.1"/>
								<ellipse transform="matrix(0.9461 -0.3239 0.3239 0.9461 3.7479 85.9171)" class="st0" cx="260" cy="31.7" rx="1" ry="1"/>
								<path class="st2" d="M258.8,28c0.4-0.1,0.7,0.1,0.9,0.4c0.1,0.4-0.1,0.7-0.4,0.9c-0.4,0.1-0.7-0.1-0.9-0.4
									C258.2,28.5,258.4,28.1,258.8,28z"/>
							</g>
						</g>
					</g>
					<g>
						<g>
							<g>
								
									<ellipse transform="matrix(0.9999 -1.725168e-02 1.725168e-02 0.9999 -0.6868 4.431)" class="st0" cx="256.5" cy="42" rx="0.7" ry="0.7"/>
								
									<ellipse transform="matrix(2.733531e-02 -0.9996 0.9996 2.733531e-02 210.7185 294.0939)" class="st0" cx="256.5" cy="38.8" rx="1" ry="1"/>
								<circle class="st0" cx="256.5" cy="35.5" r="1.1"/>
								
									<ellipse transform="matrix(0.9999 -1.514649e-02 1.514649e-02 0.9999 -0.4591 3.8885)" class="st0" cx="256.5" cy="32.3" rx="1" ry="1"/>
								<path class="st2" d="M256.5,28.3c0.4,0,0.7,0.3,0.7,0.7c0,0.4-0.3,0.7-0.7,0.7c-0.4,0-0.7-0.3-0.7-0.7
									C255.8,28.6,256.1,28.3,256.5,28.3z"/>
							</g>
						</g>
					</g>
					<g>
						<g>
							<g>
								
									<ellipse transform="matrix(0.3145 -0.9493 0.9493 0.3145 132.4315 265.3582)" class="st0" cx="249.9" cy="41" rx="0.7" ry="0.7"/>
								
									<ellipse transform="matrix(0.3935 -0.9193 0.9193 0.3935 117.3579 253.6788)" class="st0" cx="250.9" cy="37.9" rx="1" ry="1"/>
								
									<ellipse transform="matrix(0.2649 -0.9643 0.9643 0.2649 151.6601 268.5313)" class="st0" cx="252" cy="34.8" rx="1.1" ry="1.1"/>
								
									<ellipse transform="matrix(0.3273 -0.9449 0.9449 0.3273 140.2115 260.3499)" class="st0" cx="253" cy="31.7" rx="1" ry="1"/>
								
									<ellipse transform="matrix(0.3503 -0.9366 0.9366 0.3503 138.2101 256.4565)" class="st2" cx="254" cy="28.6" rx="0.7" ry="0.7"/>
							</g>
						</g>
					</g>
					<g>
						<g>
							<g>
								
									<ellipse transform="matrix(0.5704 -0.8214 0.8214 0.5704 73.6498 216.7713)" class="st0" cx="244" cy="38" rx="0.7" ry="0.7"/>
								
									<ellipse transform="matrix(0.6579 -0.7531 0.7531 0.6579 57.5235 197.3264)" class="st0" cx="246" cy="35.3" rx="1" ry="1"/>
								
									<ellipse transform="matrix(0.554 -0.8325 0.8325 0.554 83.3138 220.9452)" class="st0" cx="247.9" cy="32.7" rx="1.1" ry="1.1"/>
								
									<ellipse transform="matrix(0.5912 -0.8065 0.8065 0.5912 77.8504 213.7529)" class="st0" cx="249.8" cy="30.1" rx="1" ry="1"/>
								
									<ellipse transform="matrix(0.6101 -0.7923 0.7923 0.6101 76.3797 210.117)" class="st2" cx="251.7" cy="27.4" rx="0.7" ry="0.7"/>
							</g>
						</g>
					</g>
					<g>
						<g>
							<g>
								<path class="st0" d="M239.9,32.9c0.2,0.3,0.2,0.7-0.1,0.9c-0.3,0.2-0.7,0.2-0.9-0.1s-0.2-0.7,0.1-0.9S239.7,32.6,239.9,32.9
									z"/>
								<ellipse transform="matrix(0.7688 -0.6395 0.6395 0.7688 35.88 162.0131)" class="st0" cx="242" cy="31.4" rx="1" ry="1"/>
								
									<ellipse transform="matrix(0.8325 -0.554 0.554 0.8325 24.6448 140.4635)" class="st0" cx="244.6" cy="29.5" rx="1.1" ry="1.1"/>
								
									<ellipse transform="matrix(0.7902 -0.6128 0.6128 0.7902 34.985 157.315)" class="st0" cx="247.3" cy="27.6" rx="1" ry="1"/>
								
									<ellipse transform="matrix(0.7925 -0.6098 0.6098 0.7925 36.2082 157.7187)" class="st2" cx="249.9" cy="25.6" rx="0.7" ry="0.7"/>
							</g>
						</g>
					</g>
					<g>
						<g>
							<g>
								<path class="st0" d="M237,27.2c0.1,0.4-0.1,0.7-0.4,0.9c-0.4,0.1-0.7-0.1-0.9-0.4c-0.1-0.4,0.1-0.7,0.4-0.9
									C236.5,26.6,236.9,26.8,237,27.2z"/>
								<ellipse transform="matrix(0.9272 -0.3745 0.3745 0.9272 7.5415 91.598)" class="st0" cx="239.5" cy="26.4" rx="1" ry="1"/>
								
									<ellipse transform="matrix(0.9281 -0.3724 0.3724 0.9281 7.9945 92.1625)" class="st0" cx="242.5" cy="25.4" rx="1.1" ry="1.1"/>
								
									<ellipse transform="matrix(0.9445 -0.3284 0.3284 0.9445 5.6157 82.0185)" class="st0" cx="245.6" cy="24.4" rx="1" ry="1"/>
								
									<ellipse transform="matrix(0.9451 -0.3267 0.3267 0.9451 6.0111 82.5437)" class="st2" cx="248.7" cy="23.4" rx="0.7" ry="0.7"/>
							</g>
						</g>
					</g>
					<g>
						<g>
							
								<ellipse transform="matrix(1.612320e-02 -0.9999 0.9999 1.612320e-02 210.6678 255.8154)" class="st0" cx="235.3" cy="20.9" rx="0.7" ry="0.7"/>
							
								<ellipse transform="matrix(0.9994 -3.564638e-02 3.564638e-02 0.9994 -0.592 8.5176)" class="st0" cx="238.6" cy="20.9" rx="1" ry="1"/>
							
								<ellipse transform="matrix(3.327806e-02 -0.9994 0.9994 3.327806e-02 212.9342 261.8653)" class="st0" cx="241.8" cy="20.9" rx="1.1" ry="1.1"/>
							
								<ellipse transform="matrix(1.388507e-02 -0.9999 0.9999 1.388507e-02 220.8249 265.6357)" class="st0" cx="245.1" cy="20.9" rx="1" ry="1"/>
							
								<ellipse transform="matrix(2.172387e-02 -0.9998 0.9998 2.172387e-02 222.0915 268.6928)" class="st2" cx="248.3" cy="20.9" rx="0.7" ry="0.7"/>
						</g>
					</g>
				</g>
			</g>
		</g>
	</g>
</g>
</svg>
